<?xml version="1.0" encoding="UTF-8" standalone="no"?><svg xmlns="http://www.w3.org/2000/svg" xmlns:xlink="http://www.w3.org/1999/xlink" clip-rule="evenodd" stroke-miterlimit="10" viewBox="0 0 1920 1080"><desc>SVG generated by Keynote</desc><defs><radialGradient id="gradSh1.84" cx="0.0" cy="0.0" r="1.0" fx="0.0" fy="0.0" gradientUnits="userSpaceOnUse" gradientTransform="matrix(595.73, 0.00, 0.00, -595.76, 227.2, 115.7)"><stop offset="0.00000" stop-color="#000000"></stop><stop offset="1.00000" stop-color="#000000"></stop></radialGradient><radialGradient id="gradSh2.85" cx="0.0" cy="0.0" r="1.0" fx="0.0" fy="0.0" gradientUnits="userSpaceOnUse" gradientTransform="matrix(791.01, 0.00, 0.00, -791.05, 401.4, 701.7)"><stop offset="0.00000" stop-color="#000000"></stop><stop offset="0.00220" stop-color="#010101"></stop><stop offset="0.00733" stop-color="#020202"></stop><stop offset="0.01393" stop-color="#040404"></stop><stop offset="0.01906" stop-color="#050505"></stop><stop offset="0.03006" stop-color="#080808"></stop><stop offset="0.03446" stop-color="#090909"></stop><stop offset="0.06085" stop-color="#101010"></stop><stop offset="0.06598" stop-color="#111111"></stop><stop offset="0.12390" stop-color="#202020"></stop><stop offset="0.12830" stop-color="#212121"></stop><stop offset="0.24927" stop-color="#404040"></stop><stop offset="0.25440" stop-color="#414141"></stop><stop offset="0.50000" stop-color="#808080"></stop><stop offset="0.50513" stop-color="#818181"></stop><stop offset="1.00000" stop-color="#FFFFFF"></stop></radialGradient><radialGradient id="gradSh3.86" cx="0.0" cy="0.0" r="1.0" fx="0.0" fy="0.0" gradientUnits="userSpaceOnUse" gradientTransform="matrix(803.56, 0.00, 0.00, -803.60, 740.4, 153.6)"><stop offset="0.00000" stop-color="#000000"></stop><stop offset="1.00000" stop-color="#000000"></stop></radialGradient><radialGradient id="gradSh4.87" cx="0.0" cy="0.0" r="1.0" fx="0.0" fy="0.0" gradientUnits="userSpaceOnUse" gradientTransform="matrix(711.03, 0.00, 0.00, -711.07, 1897.0, 1050.3)"><stop offset="0.00000" stop-color="#000000"></stop><stop offset="1.00000" stop-color="#000000"></stop></radialGradient><radialGradient id="gradSh3.88" cx="0.0" cy="0.0" r="1.0" fx="0.0" fy="0.0" gradientUnits="userSpaceOnUse" gradientTransform="matrix(773.43, 0.00, 0.00, -773.47, 1773.4, 178.2)"><stop offset="0.00000" stop-color="#000000"></stop><stop offset="1.00000" stop-color="#000000"></stop></radialGradient><radialGradient id="gradSh6.89" cx="0.0" cy="0.0" r="1.0" fx="0.0" fy="0.0" gradientUnits="userSpaceOnUse" gradientTransform="matrix(0.00, -514.59, -660.53, 0.00, 957.6, 732.2)"><stop offset="0.00000" stop-color="#000000"></stop><stop offset="1.00000" stop-color="#000000"></stop></radialGradient><radialGradient id="gradSh1.90" cx="0.0" cy="0.0" r="1.0" fx="0.0" fy="0.0" gradientUnits="userSpaceOnUse" gradientTransform="matrix(782.78, 0.00, 0.00, -840.39, 645.7, 997.6)"><stop offset="0.00000" stop-color="#000000"></stop><stop offset="1.00000" stop-color="#000000"></stop></radialGradient><radialGradient id="gradSh5.91" cx="0.0" cy="0.0" r="1.0" fx="0.0" fy="0.0" gradientUnits="userSpaceOnUse" gradientTransform="matrix(595.73, 0.00, 0.00, -595.76, 1.7, 1081.9)"><stop offset="0.00000" stop-color="#000000"></stop><stop offset="1.00000" stop-color="#000000"></stop></radialGradient></defs><g transform="matrix(1.00, 0.00, -0.00, -1.00, 0.0, 1080.0)"><path d="M 0.0 1080.0 L 1920.0 1080.0 L 1920.0 0.0 L 0.0 0.0 Z M 0.0 1080.0 " fill="#322A3D"></path><g><clipPath id="clip0x6080054be180"><path d="M -594.0 -650.0 L 2608.0 -650.0 L 2608.0 1838.0 L -594.0 1838.0 Z M -594.0 -650.0 "></path></clipPath><g clip-path="url(#clip0x6080054be180)"><path d="M 1921.8 -1.4 L 1.5 -1.4 L 1.5 1078.8 L 1921.8 1078.8 Z M 1921.8 -1.4 " fill="#2E2B3C"></path><path d="M 1921.8 -1.4 L 1.5 -1.4 L 1.5 1078.8 L 1921.8 1078.8 Z M 1921.8 -1.4 " fill="#2E2B3C"></path></g></g><g><clipPath id="clip0x6080044b8c60"><path d="M 1.5 667.2 L 1.5 -1.4 L 811.4 -1.4 C 819.0 36.4 822.9 75.6 822.9 115.7 L 822.9 115.7 C 822.9 444.7 556.2 711.4 227.2 711.4 L 227.2 711.4 C 147.3 711.4 71.1 695.7 1.5 667.2 "></path></clipPath><g clip-path="url(#clip0x6080044b8c60)"><g><clipPath id="clip0x608003eb6440"><path d="M -594.0 -650.0 L 2608.0 -650.0 L 2608.0 1838.0 L -594.0 1838.0 Z M -594.0 -650.0 "></path></clipPath><g clip-path="url(#clip0x608003eb6440)"><path d="M -594.0 -650.0 L 2608.0 -650.0 L 2608.0 1838.0 L -594.0 1838.0 Z M -594.0 -650.0 " fill="url(#gradSh1.84)"></path></g></g></g></g><g><clipPath id="clip0x6080060a7aa0"><path d="M 1.5 1078.8 L 1.5 19.0 C 13.7 11.9 26.0 5.1 38.6 -1.4 L 38.6 -1.4 L 764.2 -1.4 C 1018.5 130.1 1192.4 395.6 1192.4 701.7 L 1192.4 701.7 C 1192.4 838.2 1157.8 966.7 1096.9 1078.8 L 1096.9 1078.8 Z M 1.5 1078.8 "></path></clipPath><g clip-path="url(#clip0x6080060a7aa0)"><g><clipPath id="clip0x6080060a7c20"><path d="M -594.0 -650.0 L 2608.0 -650.0 L 2608.0 1838.0 L -594.0 1838.0 Z M -594.0 -650.0 "></path></clipPath><g clip-path="url(#clip0x6080060a7c20)"><path d="M -594.0 -650.0 L 2608.0 -650.0 L 2608.0 1838.0 L -594.0 1838.0 Z M -594.0 -650.0 " fill="url(#gradSh2.85)"></path></g></g></g></g><g><clipPath id="clip0x6080062a9300"><path d="M 1.5 470.1 L 1.5 -1.4 L 1529.0 -1.4 C 1538.8 48.8 1543.9 100.6 1543.9 153.6 L 1543.9 153.6 C 1543.9 597.4 1184.2 957.2 740.4 957.2 L 740.4 957.2 C 408.9 957.2 124.4 756.5 1.5 470.1 "></path></clipPath><g clip-path="url(#clip0x6080062a9300)"><g><clipPath id="clip0x6080062a9480"><path d="M -594.0 -650.0 L 2608.0 -650.0 L 2608.0 1838.0 L -594.0 1838.0 Z M -594.0 -650.0 "></path></clipPath><g clip-path="url(#clip0x6080062a9480)"><path d="M -594.0 -650.0 L 2608.0 -650.0 L 2608.0 1838.0 L -594.0 1838.0 Z M -594.0 -650.0 " fill="url(#gradSh3.86)"></path></g></g></g></g><g><clipPath id="clip0x6080064aa860"><path d="M 1186.5 1078.8 C 1186.1 1069.3 1185.9 1059.9 1185.9 1050.3 L 1185.9 1050.3 C 1185.9 657.6 1504.3 339.2 1897.0 339.2 L 1897.0 339.2 C 1905.3 339.2 1913.5 339.4 1921.8 339.7 L 1921.8 339.7 L 1921.8 1078.8 Z M 1186.5 1078.8 "></path></clipPath><g clip-path="url(#clip0x6080064aa860)"><g><clipPath id="clip0x6080064aa9e0"><path d="M -594.0 -650.0 L 2608.0 -650.0 L 2608.0 1838.0 L -594.0 1838.0 Z M -594.0 -650.0 "></path></clipPath><g clip-path="url(#clip0x6080064aa9e0)"><path d="M -594.0 -650.0 L 2608.0 -650.0 L 2608.0 1838.0 L -594.0 1838.0 Z M -594.0 -650.0 " fill="url(#gradSh4.87)"></path></g></g></g></g><g><clipPath id="clip0x6080066abdc0"><path d="M 999.9 178.2 C 999.9 116.4 1007.2 56.2 1020.9 -1.4 L 1020.9 -1.4 L 1921.8 -1.4 L 1921.8 937.4 C 1873.7 946.8 1824.1 951.7 1773.4 951.7 L 1773.4 951.7 C 1346.2 951.7 999.9 605.4 999.9 178.2 "></path></clipPath><g clip-path="url(#clip0x6080066abdc0)"><g><clipPath id="clip0x6080066abf40"><path d="M -594.0 -650.0 L 2608.0 -650.0 L 2608.0 1838.0 L -594.0 1838.0 Z M -594.0 -650.0 "></path></clipPath><g clip-path="url(#clip0x6080066abf40)"><path d="M -594.0 -650.0 L 2608.0 -650.0 L 2608.0 1838.0 L -594.0 1838.0 Z M -594.0 -650.0 " fill="url(#gradSh3.88)"></path></g></g></g></g><g><clipPath id="clip0x6080068ad260"><path d="M 1.5 -1.4 L 1921.8 -1.4 L 1921.8 1078.8 L 1.5 1078.8 Z M 1.5 -1.4 "></path></clipPath><g clip-path="url(#clip0x6080068ad260)"><g opacity="0.90"><g><clipPath id="clip0x6080068ad440"><path d="M 957.6 217.6 C 592.8 217.6 297.1 448.0 297.1 732.2 C 297.1 1016.4 592.8 1246.8 957.6 1246.8 C 1322.4 1246.8 1618.2 1016.4 1618.2 732.2 C 1618.2 448.0 1322.4 217.6 957.6 217.6 "></path></clipPath><g clip-path="url(#clip0x6080068ad440)"><g><clipPath id="clip0x6080068ad5c0"><path d="M 297.1 217.6 L 1618.2 217.6 L 1618.2 1079.0 L 297.1 1079.0 Z M 297.1 217.6 "></path></clipPath><g clip-path="url(#clip0x6080068ad5c0)"><path d="M 297.1 217.6 L 1618.2 217.6 L 1618.2 1079.0 L 297.1 1079.0 Z M 297.1 217.6 " fill="url(#gradSh6.89)"></path></g></g></g></g></g></g></g><g><clipPath id="clip0x608006aae520"><path d="M 1.5 1078.8 L 1.5 520.0 C 142.8 300.8 378.6 157.2 645.7 157.2 L 645.7 157.2 C 1078.0 157.2 1428.5 533.5 1428.5 997.6 L 1428.5 997.6 C 1428.5 1025.0 1427.2 1052.1 1424.9 1078.8 L 1424.9 1078.8 Z M 1.5 1078.8 "></path></clipPath><g clip-path="url(#clip0x608006aae520)"><g><clipPath id="clip0x608006aae6a0"><path d="M -594.0 -650.0 L 2608.0 -650.0 L 2608.0 1838.0 L -594.0 1838.0 Z M -594.0 -650.0 "></path></clipPath><g clip-path="url(#clip0x608006aae6a0)"><path d="M -594.0 -650.0 L 2608.0 -650.0 L 2608.0 1838.0 L -594.0 1838.0 Z M -594.0 -650.0 " fill="url(#gradSh1.90)"></path></g></g></g></g><g><clipPath id="clip0x608006caed60"><path d="M 1.5 1078.8 L 1.5 486.2 C 1.6 486.2 1.7 486.2 1.7 486.2 L 1.7 486.2 C 329.7 486.2 595.8 751.2 597.4 1078.8 L 597.4 1078.8 Z M 1.5 1078.8 "></path></clipPath><g clip-path="url(#clip0x608006caed60)"><g><clipPath id="clip0x608006caeee0"><path d="M -594.0 -650.0 L 2608.0 -650.0 L 2608.0 1838.0 L -594.0 1838.0 Z M -594.0 -650.0 "></path></clipPath><g clip-path="url(#clip0x608006caeee0)"><path d="M -594.0 -650.0 L 2608.0 -650.0 L 2608.0 1838.0 L -594.0 1838.0 Z M -594.0 -650.0 " fill="url(#gradSh5.91)"></path></g></g></g></g><text xml:space="preserve" font-family="BentonSans-ExtraLight,BentonSans" font-size="116.0" fill="#F0EAF7" transform="matrix(1.00, 0.00, -0.00, -1.00, 147.6, 567.4)">E</text><text xml:space="preserve" font-family="BentonSans-ExtraLight,BentonSans" font-size="116.0" fill="#F0EAF7" transform="matrix(1.00, 0.00, -0.00, -1.00, 215.9, 567.4)">f</text><text xml:space="preserve" font-family="BentonSans-ExtraLight,BentonSans" font-size="116.0" fill="#F0EAF7" transform="matrix(1.00, 0.00, -0.00, -1.00, 251.8, 567.4)"> </text><text xml:space="preserve" font-family="BentonSans-ExtraLight,BentonSans" font-size="116.0" fill="#F0EAF7" transform="matrix(1.00, 0.00, -0.00, -1.00, 276.6, 567.4)">þ</text><text xml:space="preserve" font-family="BentonSans-ExtraLight,BentonSans" font-size="116.0" fill="#F0EAF7" transform="matrix(1.00, 0.00, -0.00, -1.00, 344.1, 567.4)">ú</text><text xml:space="preserve" font-family="BentonSans-ExtraLight,BentonSans" font-size="116.0" fill="#F0EAF7" transform="matrix(1.00, 0.00, -0.00, -1.00, 410.1, 567.4)"> </text><text xml:space="preserve" font-family="BentonSans-ExtraLight,BentonSans" font-size="116.0" fill="#F0EAF7" transform="matrix(1.00, 0.00, -0.00, -1.00, 434.9, 567.4)">v</text><text xml:space="preserve" font-family="BentonSans-ExtraLight,BentonSans" font-size="116.0" fill="#F0EAF7" transform="matrix(1.00, 0.00, -0.00, -1.00, 493.2, 567.4)">i</text><text xml:space="preserve" font-family="BentonSans-ExtraLight,BentonSans" font-size="116.0" fill="#F0EAF7" transform="matrix(1.00, 0.00, -0.00, -1.00, 518.3, 567.4)">l</text><text xml:space="preserve" font-family="BentonSans-ExtraLight,BentonSans" font-size="116.0" fill="#F0EAF7" transform="matrix(1.00, 0.00, -0.00, -1.00, 543.5, 567.4)">t</text><text xml:space="preserve" font-family="BentonSans-ExtraLight,BentonSans" font-size="116.0" fill="#F0EAF7" transform="matrix(1.00, 0.00, -0.00, -1.00, 584.1, 567.4)"> </text><text xml:space="preserve" font-family="BentonSans-ExtraLight,BentonSans" font-size="116.0" fill="#F0EAF7" transform="matrix(1.00, 0.00, -0.00, -1.00, 608.9, 567.4)">r</text><text xml:space="preserve" font-family="BentonSans-ExtraLight,BentonSans" font-size="116.0" fill="#F0EAF7" transform="matrix(1.00, 0.00, -0.00, -1.00, 653.9, 567.4)">æ</text><text xml:space="preserve" font-family="BentonSans-ExtraLight,BentonSans" font-size="116.0" fill="#F0EAF7" transform="matrix(1.00, 0.00, -0.00, -1.00, 758.0, 567.4)">ð</text><text xml:space="preserve" font-family="BentonSans-ExtraLight,BentonSans" font-size="116.0" fill="#F0EAF7" transform="matrix(1.00, 0.00, -0.00, -1.00, 823.9, 567.4)">a</text><text xml:space="preserve" font-family="BentonSans-ExtraLight,BentonSans" font-size="116.0" fill="#F0EAF7" transform="matrix(1.00, 0.00, -0.00, -1.00, 885.9, 567.4)"> </text><text xml:space="preserve" font-family="BentonSans-ExtraLight,BentonSans" font-size="116.0" fill="#F0EAF7" transform="matrix(1.00, 0.00, -0.00, -1.00, 910.8, 567.4)">c</text><text xml:space="preserve" font-family="BentonSans-ExtraLight,BentonSans" font-size="116.0" fill="#F0EAF7" transform="matrix(1.00, 0.00, -0.00, -1.00, 971.8, 567.4)">o</text><text xml:space="preserve" font-family="BentonSans-ExtraLight,BentonSans" font-size="116.0" fill="#F0EAF7" transform="matrix(1.00, 0.00, -0.00, -1.00, 1037.8, 567.4)">n</text><text xml:space="preserve" font-family="BentonSans-ExtraLight,BentonSans" font-size="116.0" fill="#F0EAF7" transform="matrix(1.00, 0.00, -0.00, -1.00, 1103.8, 567.4)">s</text><text xml:space="preserve" font-family="BentonSans-ExtraLight,BentonSans" font-size="116.0" fill="#F0EAF7" transform="matrix(1.00, 0.00, -0.00, -1.00, 1161.8, 567.4)">e</text><text xml:space="preserve" font-family="BentonSans-ExtraLight,BentonSans" font-size="116.0" fill="#F0EAF7" transform="matrix(1.00, 0.00, -0.00, -1.00, 1224.1, 567.4)">n</text><text xml:space="preserve" font-family="BentonSans-ExtraLight,BentonSans" font-size="116.0" fill="#F0EAF7" transform="matrix(1.00, 0.00, -0.00, -1.00, 1290.1, 567.4)">s</text><text xml:space="preserve" font-family="BentonSans-ExtraLight,BentonSans" font-size="116.0" fill="#F0EAF7" transform="matrix(1.00, 0.00, -0.00, -1.00, 1348.1, 567.4)">u</text><text xml:space="preserve" font-family="BentonSans-ExtraLight,BentonSans" font-size="116.0" fill="#F0EAF7" transform="matrix(1.00, 0.00, -0.00, -1.00, 1414.1, 567.4)">s</text><text xml:space="preserve" font-family="BentonSans-ExtraLight,BentonSans" font-size="116.0" fill="#F0EAF7" transform="matrix(1.00, 0.00, -0.00, -1.00, 1472.1, 567.4)">,</text><text xml:space="preserve" font-family="BentonSans-ExtraLight,BentonSans" font-size="116.0" fill="#F0EAF7" transform="matrix(1.00, 0.00, -0.00, -1.00, 1502.4, 567.4)"> </text><text xml:space="preserve" font-family="BentonSans-ExtraLight,BentonSans" font-size="116.0" fill="#F0EAF7" transform="matrix(1.00, 0.00, -0.00, -1.00, 1527.2, 567.4)">R</text><text xml:space="preserve" font-family="BentonSans-ExtraLight,BentonSans" font-size="116.0" fill="#F0EAF7" transform="matrix(1.00, 0.00, -0.00, -1.00, 1603.6, 567.4)">a</text><text xml:space="preserve" font-family="BentonSans-ExtraLight,BentonSans" font-size="116.0" fill="#F0EAF7" transform="matrix(1.00, 0.00, -0.00, -1.00, 1665.7, 567.4)">f</text><text xml:space="preserve" font-family="BentonSans-ExtraLight,BentonSans" font-size="116.0" fill="#F0EAF7" transform="matrix(1.00, 0.00, -0.00, -1.00, 1701.5, 567.4)">t</text><text xml:space="preserve" font-family="BentonSans-ExtraLight,BentonSans" font-size="116.0" fill="#F0EAF7" transform="matrix(1.00, 0.00, -0.00, -1.00, 1742.1, 567.4)">,</text><text xml:space="preserve" font-family="BentonSans-ExtraLight,BentonSans" font-size="116.0" fill="#F0EAF7" transform="matrix(1.00, 0.00, -0.00, -1.00, 1772.4, 567.4)"> </text><text xml:space="preserve" font-family="BentonSans-ExtraLight,BentonSans" font-size="116.0" fill="#F0EAF7" transform="matrix(1.00, 0.00, -0.00, -1.00, 158.2, 450.4)">P</text><text xml:space="preserve" font-family="BentonSans-ExtraLight,BentonSans" font-size="116.0" fill="#F0EAF7" transform="matrix(1.00, 0.00, -0.00, -1.00, 230.9, 450.4)">a</text><text xml:space="preserve" font-family="BentonSans-ExtraLight,BentonSans" font-size="116.0" fill="#F0EAF7" transform="matrix(1.00, 0.00, -0.00, -1.00, 293.0, 450.4)">x</text><text xml:space="preserve" font-family="BentonSans-ExtraLight,BentonSans" font-size="116.0" fill="#F0EAF7" transform="matrix(1.00, 0.00, -0.00, -1.00, 351.1, 450.4)">o</text><text xml:space="preserve" font-family="BentonSans-ExtraLight,BentonSans" font-size="116.0" fill="#F0EAF7" transform="matrix(1.00, 0.00, -0.00, -1.00, 417.1, 450.4)">s</text><text xml:space="preserve" font-family="BentonSans-ExtraLight,BentonSans" font-size="116.0" fill="#F0EAF7" transform="matrix(1.00, 0.00, -0.00, -1.00, 475.1, 450.4)"> </text><text xml:space="preserve" font-family="BentonSans-ExtraLight,BentonSans" font-size="116.0" fill="#F0EAF7" transform="matrix(1.00, 0.00, -0.00, -1.00, 499.9, 450.4)">o</text><text xml:space="preserve" font-family="BentonSans-ExtraLight,BentonSans" font-size="116.0" fill="#F0EAF7" transform="matrix(1.00, 0.00, -0.00, -1.00, 565.9, 450.4)">.</text><text xml:space="preserve" font-family="BentonSans-ExtraLight,BentonSans" font-size="116.0" fill="#F0EAF7" transform="matrix(1.00, 0.00, -0.00, -1.00, 596.2, 450.4)">s</text><text xml:space="preserve" font-family="BentonSans-ExtraLight,BentonSans" font-size="116.0" fill="#F0EAF7" transform="matrix(1.00, 0.00, -0.00, -1.00, 654.2, 450.4)">.</text><text xml:space="preserve" font-family="BentonSans-ExtraLight,BentonSans" font-size="116.0" fill="#F0EAF7" transform="matrix(1.00, 0.00, -0.00, -1.00, 684.5, 450.4)">f</text><text xml:space="preserve" font-family="BentonSans-ExtraLight,BentonSans" font-size="116.0" fill="#F0EAF7" transform="matrix(1.00, 0.00, -0.00, -1.00, 720.3, 450.4)">r</text><text xml:space="preserve" font-family="BentonSans-ExtraLight,BentonSans" font-size="116.0" fill="#F0EAF7" transform="matrix(1.00, 0.00, -0.00, -1.00, 765.4, 450.4)">v</text><text xml:space="preserve" font-family="BentonSans-ExtraLight,BentonSans" font-size="116.0" fill="#F0EAF7" transform="matrix(1.00, 0.00, -0.00, -1.00, 823.6, 450.4)">.</text><text xml:space="preserve" font-family="BentonSans-ExtraLight,BentonSans" font-size="116.0" fill="#F0EAF7" transform="matrix(1.00, 0.00, -0.00, -1.00, 853.9, 450.4)">,</text><text xml:space="preserve" font-family="BentonSans-ExtraLight,BentonSans" font-size="116.0" fill="#F0EAF7" transform="matrix(1.00, 0.00, -0.00, -1.00, 884.1, 450.4)"> </text><text xml:space="preserve" font-family="BentonSans-ExtraLight,BentonSans" font-size="116.0" fill="#F0EAF7" transform="matrix(1.00, 0.00, -0.00, -1.00, 909.0, 450.4)">n</text><text xml:space="preserve" font-family="BentonSans-ExtraLight,BentonSans" font-size="116.0" fill="#F0EAF7" transform="matrix(1.00, 0.00, -0.00, -1.00, 975.0, 450.4)">á</text><text xml:space="preserve" font-family="BentonSans-ExtraLight,BentonSans" font-size="116.0" fill="#F0EAF7" transform="matrix(1.00, 0.00, -0.00, -1.00, 1037.0, 450.4)">ð</text><text xml:space="preserve" font-family="BentonSans-ExtraLight,BentonSans" font-size="116.0" fill="#F0EAF7" transform="matrix(1.00, 0.00, -0.00, -1.00, 1102.9, 450.4)">u</text><text xml:space="preserve" font-family="BentonSans-ExtraLight,BentonSans" font-size="116.0" fill="#F0EAF7" transform="matrix(1.00, 0.00, -0.00, -1.00, 1168.9, 450.4)"> </text><text xml:space="preserve" font-family="BentonSans-ExtraLight,BentonSans" font-size="116.0" fill="#F0EAF7" transform="matrix(1.00, 0.00, -0.00, -1.00, 1193.7, 450.4)">m</text><text xml:space="preserve" font-family="BentonSans-ExtraLight,BentonSans" font-size="116.0" fill="#F0EAF7" transform="matrix(1.00, 0.00, -0.00, -1.00, 1299.2, 450.4)">é</text><text xml:space="preserve" font-family="BentonSans-ExtraLight,BentonSans" font-size="116.0" fill="#F0EAF7" transform="matrix(1.00, 0.00, -0.00, -1.00, 1361.5, 450.4)">r</text><text xml:space="preserve" font-family="BentonSans-ExtraLight,BentonSans" font-size="116.0" fill="#F0EAF7" transform="matrix(1.00, 0.00, -0.00, -1.00, 1406.5, 450.4)"> </text><text xml:space="preserve" font-family="BentonSans-ExtraLight,BentonSans" font-size="116.0" fill="#F0EAF7" transform="matrix(1.00, 0.00, -0.00, -1.00, 1431.3, 450.4)">á</text><text xml:space="preserve" font-family="BentonSans-ExtraLight,BentonSans" font-size="116.0" fill="#F0EAF7" transform="matrix(1.00, 0.00, -0.00, -1.00, 1493.4, 450.4)"> </text><text xml:space="preserve" font-family="BentonSans-ExtraLight,BentonSans" font-size="116.0" fill="#F0EAF7" transform="matrix(1.00, 0.00, -0.00, -1.00, 1518.2, 450.4)">e</text><text xml:space="preserve" font-family="BentonSans-ExtraLight,BentonSans" font-size="116.0" fill="#F0EAF7" transform="matrix(1.00, 0.00, -0.00, -1.00, 1580.5, 450.4)">f</text><text xml:space="preserve" font-family="BentonSans-ExtraLight,BentonSans" font-size="116.0" fill="#F0EAF7" transform="matrix(1.00, 0.00, -0.00, -1.00, 1616.3, 450.4)">t</text><text xml:space="preserve" font-family="BentonSans-ExtraLight,BentonSans" font-size="116.0" fill="#F0EAF7" transform="matrix(1.00, 0.00, -0.00, -1.00, 1656.9, 450.4)">i</text><text xml:space="preserve" font-family="BentonSans-ExtraLight,BentonSans" font-size="116.0" fill="#F0EAF7" transform="matrix(1.00, 0.00, -0.00, -1.00, 1682.1, 450.4)">r</text><text xml:space="preserve" font-family="BentonSans-ExtraLight,BentonSans" font-size="116.0" fill="#F0EAF7" transform="matrix(1.00, 0.00, -0.00, -1.00, 1727.1, 450.4)">!</text></g></svg>