<?xml version="1.0" encoding="UTF-8" standalone="no"?><svg xmlns="http://www.w3.org/2000/svg" xmlns:xlink="http://www.w3.org/1999/xlink" clip-rule="evenodd" stroke-miterlimit="10" viewBox="0 0 1920 1080"><desc>SVG generated by Keynote</desc><defs></defs><g transform="matrix(1.00, 0.00, -0.00, -1.00, 0.0, 1080.0)"><path d="M 0.0 1080.0 L 1920.0 1080.0 L 1920.0 0.0 L 0.0 0.0 Z M 0.0 1080.0 " fill="#35234F"></path><text xml:space="preserve" font-family="BentonSans-ExtraLight,BentonSans" font-size="116.0" fill="#ECEAEF" transform="matrix(1.00, 0.00, -0.00, -1.00, 406.3, 508.4)">V</text><text xml:space="preserve" font-family="BentonSans-ExtraLight,BentonSans" font-size="116.0" fill="#ECEAEF" transform="matrix(1.00, 0.00, -0.00, -1.00, 481.8, 508.4)">a</text><text xml:space="preserve" font-family="BentonSans-ExtraLight,BentonSans" font-size="116.0" fill="#ECEAEF" transform="matrix(1.00, 0.00, -0.00, -1.00, 543.9, 508.4)">n</text><text xml:space="preserve" font-family="BentonSans-ExtraLight,BentonSans" font-size="116.0" fill="#ECEAEF" transform="matrix(1.00, 0.00, -0.00, -1.00, 609.9, 508.4)">d</text><text xml:space="preserve" font-family="BentonSans-ExtraLight,BentonSans" font-size="116.0" fill="#ECEAEF" transform="matrix(1.00, 0.00, -0.00, -1.00, 677.4, 508.4)">a</text><text xml:space="preserve" font-family="BentonSans-ExtraLight,BentonSans" font-size="116.0" fill="#ECEAEF" transform="matrix(1.00, 0.00, -0.00, -1.00, 739.5, 508.4)">m</text><text xml:space="preserve" font-family="BentonSans-ExtraLight,BentonSans" font-size="116.0" fill="#ECEAEF" transform="matrix(1.00, 0.00, -0.00, -1.00, 844.9, 508.4)">รก</text><text xml:space="preserve" font-family="BentonSans-ExtraLight,BentonSans" font-size="116.0" fill="#ECEAEF" transform="matrix(1.00, 0.00, -0.00, -1.00, 907.0, 508.4)">l</text><text xml:space="preserve" font-family="BentonSans-ExtraLight,BentonSans" font-size="116.0" fill="#ECEAEF" transform="matrix(1.00, 0.00, -0.00, -1.00, 932.2, 508.4)"> </text><text xml:space="preserve" font-family="BentonSans-ExtraLight,BentonSans" font-size="116.0" fill="#ECEAEF" transform="matrix(1.00, 0.00, -0.00, -1.00, 957.0, 508.4)">e</text><text xml:space="preserve" font-family="BentonSans-ExtraLight,BentonSans" font-size="116.0" fill="#ECEAEF" transform="matrix(1.00, 0.00, -0.00, -1.00, 1019.3, 508.4)">r</text><text xml:space="preserve" font-family="BentonSans-ExtraLight,BentonSans" font-size="116.0" fill="#ECEAEF" transform="matrix(1.00, 0.00, -0.00, -1.00, 1064.3, 508.4)">u</text><text xml:space="preserve" font-family="BentonSans-ExtraLight,BentonSans" font-size="116.0" fill="#ECEAEF" transform="matrix(1.00, 0.00, -0.00, -1.00, 1130.3, 508.4)"> </text><text xml:space="preserve" font-family="BentonSans-ExtraLight,BentonSans" font-size="116.0" fill="#ECEAEF" transform="matrix(1.00, 0.00, -0.00, -1.00, 1155.1, 508.4)">h</text><text xml:space="preserve" font-family="BentonSans-ExtraLight,BentonSans" font-size="116.0" fill="#ECEAEF" transform="matrix(1.00, 0.00, -0.00, -1.00, 1221.1, 508.4)">v</text><text xml:space="preserve" font-family="BentonSans-ExtraLight,BentonSans" font-size="116.0" fill="#ECEAEF" transform="matrix(1.00, 0.00, -0.00, -1.00, 1279.3, 508.4)">e</text><text xml:space="preserve" font-family="BentonSans-ExtraLight,BentonSans" font-size="116.0" fill="#ECEAEF" transform="matrix(1.00, 0.00, -0.00, -1.00, 1341.6, 508.4)">r</text><text xml:space="preserve" font-family="BentonSans-ExtraLight,BentonSans" font-size="116.0" fill="#ECEAEF" transform="matrix(1.00, 0.00, -0.00, -1.00, 1386.6, 508.4)">f</text><text xml:space="preserve" font-family="BentonSans-ExtraLight,BentonSans" font-size="116.0" fill="#ECEAEF" transform="matrix(1.00, 0.00, -0.00, -1.00, 1422.5, 508.4)">u</text><text xml:space="preserve" font-family="BentonSans-ExtraLight,BentonSans" font-size="116.0" fill="#ECEAEF" transform="matrix(1.00, 0.00, -0.00, -1.00, 1488.5, 508.4)">l</text></g></svg>