<?xml version="1.0" encoding="UTF-8" standalone="no"?><svg xmlns="http://www.w3.org/2000/svg" xmlns:xlink="http://www.w3.org/1999/xlink" clip-rule="evenodd" stroke-miterlimit="10" viewBox="0 0 1920 1080"><desc>SVG generated by Keynote</desc><defs></defs><g transform="matrix(1.00, 0.00, -0.00, -1.00, 0.0, 1080.0)"><path d="M 0.0 1080.0 L 1920.0 1080.0 L 1920.0 0.0 L 0.0 0.0 Z M 0.0 1080.0 " fill="#35234F"></path><text xml:space="preserve" font-family="BentonSans-ExtraLight,BentonSans" font-size="116.0" fill="#F0EAF7" transform="matrix(1.00, 0.00, -0.00, -1.00, 167.8, 508.4)">A</text><text xml:space="preserve" font-family="BentonSans-ExtraLight,BentonSans" font-size="116.0" fill="#F0EAF7" transform="matrix(1.00, 0.00, -0.00, -1.00, 243.9, 508.4)">l</text><text xml:space="preserve" font-family="BentonSans-ExtraLight,BentonSans" font-size="116.0" fill="#F0EAF7" transform="matrix(1.00, 0.00, -0.00, -1.00, 269.1, 508.4)">m</text><text xml:space="preserve" font-family="BentonSans-ExtraLight,BentonSans" font-size="116.0" fill="#F0EAF7" transform="matrix(1.00, 0.00, -0.00, -1.00, 374.5, 508.4)">e</text><text xml:space="preserve" font-family="BentonSans-ExtraLight,BentonSans" font-size="116.0" fill="#F0EAF7" transform="matrix(1.00, 0.00, -0.00, -1.00, 436.8, 508.4)">n</text><text xml:space="preserve" font-family="BentonSans-ExtraLight,BentonSans" font-size="116.0" fill="#F0EAF7" transform="matrix(1.00, 0.00, -0.00, -1.00, 502.8, 508.4)">n</text><text xml:space="preserve" font-family="BentonSans-ExtraLight,BentonSans" font-size="116.0" fill="#F0EAF7" transform="matrix(1.00, 0.00, -0.00, -1.00, 568.8, 508.4)"> </text><text xml:space="preserve" font-family="BentonSans-ExtraLight,BentonSans" font-size="116.0" fill="#F0EAF7" transform="matrix(1.00, 0.00, -0.00, -1.00, 593.7, 508.4)">o</text><text xml:space="preserve" font-family="BentonSans-ExtraLight,BentonSans" font-size="116.0" fill="#F0EAF7" transform="matrix(1.00, 0.00, -0.00, -1.00, 659.7, 508.4)">g</text><text xml:space="preserve" font-family="BentonSans-ExtraLight,BentonSans" font-size="116.0" fill="#F0EAF7" transform="matrix(1.00, 0.00, -0.00, -1.00, 724.3, 508.4)"> </text><text xml:space="preserve" font-family="BentonSans-ExtraLight,BentonSans" font-size="116.0" fill="#F0EAF7" transform="matrix(1.00, 0.00, -0.00, -1.00, 749.1, 508.4)">s</text><text xml:space="preserve" font-family="BentonSans-ExtraLight,BentonSans" font-size="116.0" fill="#F0EAF7" transform="matrix(1.00, 0.00, -0.00, -1.00, 807.1, 508.4)">é</text><text xml:space="preserve" font-family="BentonSans-ExtraLight,BentonSans" font-size="116.0" fill="#F0EAF7" transform="matrix(1.00, 0.00, -0.00, -1.00, 869.4, 508.4)">r</text><text xml:space="preserve" font-family="BentonSans-ExtraLight,BentonSans" font-size="116.0" fill="#F0EAF7" transform="matrix(1.00, 0.00, -0.00, -1.00, 914.4, 508.4)">h</text><text xml:space="preserve" font-family="BentonSans-ExtraLight,BentonSans" font-size="116.0" fill="#F0EAF7" transform="matrix(1.00, 0.00, -0.00, -1.00, 980.4, 508.4)">æ</text><text xml:space="preserve" font-family="BentonSans-ExtraLight,BentonSans" font-size="116.0" fill="#F0EAF7" transform="matrix(1.00, 0.00, -0.00, -1.00, 1084.5, 508.4)">f</text><text xml:space="preserve" font-family="BentonSans-ExtraLight,BentonSans" font-size="116.0" fill="#F0EAF7" transform="matrix(1.00, 0.00, -0.00, -1.00, 1120.3, 508.4)">ð</text><text xml:space="preserve" font-family="BentonSans-ExtraLight,BentonSans" font-size="116.0" fill="#F0EAF7" transform="matrix(1.00, 0.00, -0.00, -1.00, 1186.2, 508.4)"> </text><text xml:space="preserve" font-family="BentonSans-ExtraLight,BentonSans" font-size="116.0" fill="#F0EAF7" transform="matrix(1.00, 0.00, -0.00, -1.00, 1211.0, 508.4)">m</text><text xml:space="preserve" font-family="BentonSans-ExtraLight,BentonSans" font-size="116.0" fill="#F0EAF7" transform="matrix(1.00, 0.00, -0.00, -1.00, 1316.5, 508.4)">æ</text><text xml:space="preserve" font-family="BentonSans-ExtraLight,BentonSans" font-size="116.0" fill="#F0EAF7" transform="matrix(1.00, 0.00, -0.00, -1.00, 1420.5, 508.4)">l</text><text xml:space="preserve" font-family="BentonSans-ExtraLight,BentonSans" font-size="116.0" fill="#F0EAF7" transform="matrix(1.00, 0.00, -0.00, -1.00, 1445.7, 508.4)">a</text><text xml:space="preserve" font-family="BentonSans-ExtraLight,BentonSans" font-size="116.0" fill="#F0EAF7" transform="matrix(1.00, 0.00, -0.00, -1.00, 1507.8, 508.4)">b</text><text xml:space="preserve" font-family="BentonSans-ExtraLight,BentonSans" font-size="116.0" fill="#F0EAF7" transform="matrix(1.00, 0.00, -0.00, -1.00, 1575.3, 508.4)">o</text><text xml:space="preserve" font-family="BentonSans-ExtraLight,BentonSans" font-size="116.0" fill="#F0EAF7" transform="matrix(1.00, 0.00, -0.00, -1.00, 1641.3, 508.4)">r</text><text xml:space="preserve" font-family="BentonSans-ExtraLight,BentonSans" font-size="116.0" fill="#F0EAF7" transform="matrix(1.00, 0.00, -0.00, -1.00, 1686.3, 508.4)">ð</text></g></svg>