<?xml version="1.0" encoding="UTF-8" standalone="no"?><svg xmlns="http://www.w3.org/2000/svg" xmlns:xlink="http://www.w3.org/1999/xlink" clip-rule="evenodd" stroke-miterlimit="10" viewBox="0 0 1920 1080"><desc>SVG generated by Keynote</desc><defs></defs><g transform="matrix(1.00, 0.00, -0.00, -1.00, 0.0, 1080.0)"><path d="M 0.0 1080.0 L 1920.0 1080.0 L 1920.0 0.0 L 0.0 0.0 Z M 0.0 1080.0 " fill="#35234F"></path><text xml:space="preserve" font-family="BentonSans-ExtraLight,BentonSans" font-size="116.0" fill="#F0EAF7" transform="matrix(1.00, 0.00, -0.00, -1.00, 227.1, 508.4)">L</text><text xml:space="preserve" font-family="BentonSans-ExtraLight,BentonSans" font-size="116.0" fill="#F0EAF7" transform="matrix(1.00, 0.00, -0.00, -1.00, 292.1, 508.4)">o</text><text xml:space="preserve" font-family="BentonSans-ExtraLight,BentonSans" font-size="116.0" fill="#F0EAF7" transform="matrix(1.00, 0.00, -0.00, -1.00, 358.1, 508.4)">g</text><text xml:space="preserve" font-family="BentonSans-ExtraLight,BentonSans" font-size="116.0" fill="#F0EAF7" transform="matrix(1.00, 0.00, -0.00, -1.00, 422.7, 508.4)">g</text><text xml:space="preserve" font-family="BentonSans-ExtraLight,BentonSans" font-size="116.0" fill="#F0EAF7" transform="matrix(1.00, 0.00, -0.00, -1.00, 487.3, 508.4)">a</text><text xml:space="preserve" font-family="BentonSans-ExtraLight,BentonSans" font-size="116.0" fill="#F0EAF7" transform="matrix(1.00, 0.00, -0.00, -1.00, 549.4, 508.4)">r</text><text xml:space="preserve" font-family="BentonSans-ExtraLight,BentonSans" font-size="116.0" fill="#F0EAF7" transform="matrix(1.00, 0.00, -0.00, -1.00, 594.4, 508.4)"> </text><text xml:space="preserve" font-family="BentonSans-ExtraLight,BentonSans" font-size="116.0" fill="#F0EAF7" transform="matrix(1.00, 0.00, -0.00, -1.00, 619.2, 508.4)">e</text><text xml:space="preserve" font-family="BentonSans-ExtraLight,BentonSans" font-size="116.0" fill="#F0EAF7" transform="matrix(1.00, 0.00, -0.00, -1.00, 681.5, 508.4)">r</text><text xml:space="preserve" font-family="BentonSans-ExtraLight,BentonSans" font-size="116.0" fill="#F0EAF7" transform="matrix(1.00, 0.00, -0.00, -1.00, 726.5, 508.4)">u</text><text xml:space="preserve" font-family="BentonSans-ExtraLight,BentonSans" font-size="116.0" fill="#F0EAF7" transform="matrix(1.00, 0.00, -0.00, -1.00, 792.5, 508.4)"> </text><text xml:space="preserve" font-family="BentonSans-ExtraLight,BentonSans" font-size="116.0" fill="#F0EAF7" transform="matrix(1.00, 0.00, -0.00, -1.00, 817.3, 508.4)">e</text><text xml:space="preserve" font-family="BentonSans-ExtraLight,BentonSans" font-size="116.0" fill="#F0EAF7" transform="matrix(1.00, 0.00, -0.00, -1.00, 879.6, 508.4)">k</text><text xml:space="preserve" font-family="BentonSans-ExtraLight,BentonSans" font-size="116.0" fill="#F0EAF7" transform="matrix(1.00, 0.00, -0.00, -1.00, 939.4, 508.4)">k</text><text xml:space="preserve" font-family="BentonSans-ExtraLight,BentonSans" font-size="116.0" fill="#F0EAF7" transform="matrix(1.00, 0.00, -0.00, -1.00, 999.1, 508.4)">i</text><text xml:space="preserve" font-family="BentonSans-ExtraLight,BentonSans" font-size="116.0" fill="#F0EAF7" transform="matrix(1.00, 0.00, -0.00, -1.00, 1024.3, 508.4)"> </text><text xml:space="preserve" font-family="BentonSans-ExtraLight,BentonSans" font-size="116.0" fill="#F0EAF7" transform="matrix(1.00, 0.00, -0.00, -1.00, 1049.1, 508.4)">r</text><text xml:space="preserve" font-family="BentonSans-ExtraLight,BentonSans" font-size="116.0" fill="#F0EAF7" transform="matrix(1.00, 0.00, -0.00, -1.00, 1094.1, 508.4)">é</text><text xml:space="preserve" font-family="BentonSans-ExtraLight,BentonSans" font-size="116.0" fill="#F0EAF7" transform="matrix(1.00, 0.00, -0.00, -1.00, 1156.4, 508.4)">t</text><text xml:space="preserve" font-family="BentonSans-ExtraLight,BentonSans" font-size="116.0" fill="#F0EAF7" transform="matrix(1.00, 0.00, -0.00, -1.00, 1197.0, 508.4)">t</text><text xml:space="preserve" font-family="BentonSans-ExtraLight,BentonSans" font-size="116.0" fill="#F0EAF7" transform="matrix(1.00, 0.00, -0.00, -1.00, 1237.6, 508.4)">a</text><text xml:space="preserve" font-family="BentonSans-ExtraLight,BentonSans" font-size="116.0" fill="#F0EAF7" transform="matrix(1.00, 0.00, -0.00, -1.00, 1299.6, 508.4)"> </text><text xml:space="preserve" font-family="BentonSans-ExtraLight,BentonSans" font-size="116.0" fill="#F0EAF7" transform="matrix(1.00, 0.00, -0.00, -1.00, 1324.5, 508.4)">l</text><text xml:space="preserve" font-family="BentonSans-ExtraLight,BentonSans" font-size="116.0" fill="#F0EAF7" transform="matrix(1.00, 0.00, -0.00, -1.00, 1349.6, 508.4)">a</text><text xml:space="preserve" font-family="BentonSans-ExtraLight,BentonSans" font-size="116.0" fill="#F0EAF7" transform="matrix(1.00, 0.00, -0.00, -1.00, 1411.7, 508.4)">u</text><text xml:space="preserve" font-family="BentonSans-ExtraLight,BentonSans" font-size="116.0" fill="#F0EAF7" transform="matrix(1.00, 0.00, -0.00, -1.00, 1477.7, 508.4)">s</text><text xml:space="preserve" font-family="BentonSans-ExtraLight,BentonSans" font-size="116.0" fill="#F0EAF7" transform="matrix(1.00, 0.00, -0.00, -1.00, 1535.7, 508.4)">n</text><text xml:space="preserve" font-family="BentonSans-ExtraLight,BentonSans" font-size="116.0" fill="#F0EAF7" transform="matrix(1.00, 0.00, -0.00, -1.00, 1601.7, 508.4)">i</text><text xml:space="preserve" font-family="BentonSans-ExtraLight,BentonSans" font-size="116.0" fill="#F0EAF7" transform="matrix(1.00, 0.00, -0.00, -1.00, 1626.9, 508.4)">n</text></g></svg>