<?xml version="1.0" encoding="UTF-8" standalone="no"?><svg xmlns="http://www.w3.org/2000/svg" xmlns:xlink="http://www.w3.org/1999/xlink" clip-rule="evenodd" stroke-miterlimit="10" viewBox="0 0 1920 1080"><desc>SVG generated by Keynote</desc><defs></defs><g transform="matrix(1.00, 0.00, -0.00, -1.00, 0.0, 1080.0)"><path d="M 0.0 1080.0 L 1920.0 1080.0 L 1920.0 0.0 L 0.0 0.0 Z M 0.0 1080.0 " fill="#35234F"></path><text xml:space="preserve" font-family="BentonSans-ExtraLight,BentonSans" font-size="116.0" fill="#ECEAEF" transform="matrix(1.00, 0.00, -0.00, -1.00, 221.1, 561.4)">A</text><text xml:space="preserve" font-family="BentonSans-ExtraLight,BentonSans" font-size="116.0" fill="#ECEAEF" transform="matrix(1.00, 0.00, -0.00, -1.00, 297.2, 561.4)">รฐ</text><text xml:space="preserve" font-family="BentonSans-ExtraLight,BentonSans" font-size="116.0" fill="#ECEAEF" transform="matrix(1.00, 0.00, -0.00, -1.00, 363.1, 561.4)"> </text><text xml:space="preserve" font-family="BentonSans-ExtraLight,BentonSans" font-size="116.0" fill="#ECEAEF" transform="matrix(1.00, 0.00, -0.00, -1.00, 387.9, 561.4)">h</text><text xml:space="preserve" font-family="BentonSans-ExtraLight,BentonSans" font-size="116.0" fill="#ECEAEF" transform="matrix(1.00, 0.00, -0.00, -1.00, 453.9, 561.4)">a</text><text xml:space="preserve" font-family="BentonSans-ExtraLight,BentonSans" font-size="116.0" fill="#ECEAEF" transform="matrix(1.00, 0.00, -0.00, -1.00, 516.0, 561.4)">n</text><text xml:space="preserve" font-family="BentonSans-ExtraLight,BentonSans" font-size="116.0" fill="#ECEAEF" transform="matrix(1.00, 0.00, -0.00, -1.00, 582.0, 561.4)">n</text><text xml:space="preserve" font-family="BentonSans-ExtraLight,BentonSans" font-size="116.0" fill="#ECEAEF" transform="matrix(1.00, 0.00, -0.00, -1.00, 648.0, 561.4)">a</text><text xml:space="preserve" font-family="BentonSans-ExtraLight,BentonSans" font-size="116.0" fill="#ECEAEF" transform="matrix(1.00, 0.00, -0.00, -1.00, 710.1, 561.4)"> </text><text xml:space="preserve" font-family="BentonSans-ExtraLight,BentonSans" font-size="116.0" fill="#ECEAEF" transform="matrix(1.00, 0.00, -0.00, -1.00, 734.9, 561.4)">o</text><text xml:space="preserve" font-family="BentonSans-ExtraLight,BentonSans" font-size="116.0" fill="#ECEAEF" transform="matrix(1.00, 0.00, -0.00, -1.00, 800.9, 561.4)">g</text><text xml:space="preserve" font-family="BentonSans-ExtraLight,BentonSans" font-size="116.0" fill="#ECEAEF" transform="matrix(1.00, 0.00, -0.00, -1.00, 865.5, 561.4)"> </text><text xml:space="preserve" font-family="BentonSans-ExtraLight,BentonSans" font-size="116.0" fill="#ECEAEF" transform="matrix(1.00, 0.00, -0.00, -1.00, 890.3, 561.4)">r</text><text xml:space="preserve" font-family="BentonSans-ExtraLight,BentonSans" font-size="116.0" fill="#ECEAEF" transform="matrix(1.00, 0.00, -0.00, -1.00, 935.4, 561.4)">e</text><text xml:space="preserve" font-family="BentonSans-ExtraLight,BentonSans" font-size="116.0" fill="#ECEAEF" transform="matrix(1.00, 0.00, -0.00, -1.00, 997.6, 561.4)">k</text><text xml:space="preserve" font-family="BentonSans-ExtraLight,BentonSans" font-size="116.0" fill="#ECEAEF" transform="matrix(1.00, 0.00, -0.00, -1.00, 1057.4, 561.4)">a</text><text xml:space="preserve" font-family="BentonSans-ExtraLight,BentonSans" font-size="116.0" fill="#ECEAEF" transform="matrix(1.00, 0.00, -0.00, -1.00, 1119.4, 561.4)"> </text><text xml:space="preserve" font-family="BentonSans-ExtraLight,BentonSans" font-size="116.0" fill="#ECEAEF" transform="matrix(1.00, 0.00, -0.00, -1.00, 1144.3, 561.4)">d</text><text xml:space="preserve" font-family="BentonSans-ExtraLight,BentonSans" font-size="116.0" fill="#ECEAEF" transform="matrix(1.00, 0.00, -0.00, -1.00, 1211.8, 561.4)">r</text><text xml:space="preserve" font-family="BentonSans-ExtraLight,BentonSans" font-size="116.0" fill="#ECEAEF" transform="matrix(1.00, 0.00, -0.00, -1.00, 1256.8, 561.4)">e</text><text xml:space="preserve" font-family="BentonSans-ExtraLight,BentonSans" font-size="116.0" fill="#ECEAEF" transform="matrix(1.00, 0.00, -0.00, -1.00, 1319.1, 561.4)">i</text><text xml:space="preserve" font-family="BentonSans-ExtraLight,BentonSans" font-size="116.0" fill="#ECEAEF" transform="matrix(1.00, 0.00, -0.00, -1.00, 1344.2, 561.4)">f</text><text xml:space="preserve" font-family="BentonSans-ExtraLight,BentonSans" font-size="116.0" fill="#ECEAEF" transform="matrix(1.00, 0.00, -0.00, -1.00, 1380.1, 561.4)">รฐ</text><text xml:space="preserve" font-family="BentonSans-ExtraLight,BentonSans" font-size="116.0" fill="#ECEAEF" transform="matrix(1.00, 0.00, -0.00, -1.00, 1446.0, 561.4)"> </text><text xml:space="preserve" font-family="BentonSans-ExtraLight,BentonSans" font-size="116.0" fill="#ECEAEF" transform="matrix(1.00, 0.00, -0.00, -1.00, 1470.8, 561.4)">k</text><text xml:space="preserve" font-family="BentonSans-ExtraLight,BentonSans" font-size="116.0" fill="#ECEAEF" transform="matrix(1.00, 0.00, -0.00, -1.00, 1530.5, 561.4)">e</text><text xml:space="preserve" font-family="BentonSans-ExtraLight,BentonSans" font-size="116.0" fill="#ECEAEF" transform="matrix(1.00, 0.00, -0.00, -1.00, 1592.8, 561.4)">r</text><text xml:space="preserve" font-family="BentonSans-ExtraLight,BentonSans" font-size="116.0" fill="#ECEAEF" transform="matrix(1.00, 0.00, -0.00, -1.00, 1637.8, 561.4)">f</text><text xml:space="preserve" font-family="BentonSans-ExtraLight,BentonSans" font-size="116.0" fill="#ECEAEF" transform="matrix(1.00, 0.00, -0.00, -1.00, 1673.7, 561.4)">i</text><text xml:space="preserve" font-family="BentonSans-Book,BentonSans" font-size="48.0" fill="#B7AADE" transform="matrix(1.00, 0.00, -0.00, -1.00, 746.8, 450.0)">ร</text><text xml:space="preserve" font-family="BentonSans-Book,BentonSans" font-size="48.0" fill="#B7AADE" transform="matrix(1.00, 0.00, -0.00, -1.00, 782.4, 450.0)">m</text><text xml:space="preserve" font-family="BentonSans-Book,BentonSans" font-size="48.0" fill="#B7AADE" transform="matrix(1.00, 0.00, -0.00, -1.00, 826.2, 450.0)">a</text><text xml:space="preserve" font-family="BentonSans-Book,BentonSans" font-size="48.0" fill="#B7AADE" transform="matrix(1.00, 0.00, -0.00, -1.00, 852.5, 450.0)">r</text><text xml:space="preserve" font-family="BentonSans-Book,BentonSans" font-size="48.0" fill="#B7AADE" transform="matrix(1.00, 0.00, -0.00, -1.00, 871.4, 450.0)"> </text><text xml:space="preserve" font-family="BentonSans-Book,BentonSans" font-size="48.0" fill="#B7AADE" transform="matrix(1.00, 0.00, -0.00, -1.00, 882.3, 450.0)">K</text><text xml:space="preserve" font-family="BentonSans-Book,BentonSans" font-size="48.0" fill="#B7AADE" transform="matrix(1.00, 0.00, -0.00, -1.00, 914.4, 450.0)">j</text><text xml:space="preserve" font-family="BentonSans-Book,BentonSans" font-size="48.0" fill="#B7AADE" transform="matrix(1.00, 0.00, -0.00, -1.00, 925.9, 450.0)">a</text><text xml:space="preserve" font-family="BentonSans-Book,BentonSans" font-size="48.0" fill="#B7AADE" transform="matrix(1.00, 0.00, -0.00, -1.00, 952.1, 450.0)">r</text><text xml:space="preserve" font-family="BentonSans-Book,BentonSans" font-size="48.0" fill="#B7AADE" transform="matrix(1.00, 0.00, -0.00, -1.00, 971.1, 450.0)">t</text><text xml:space="preserve" font-family="BentonSans-Book,BentonSans" font-size="48.0" fill="#B7AADE" transform="matrix(1.00, 0.00, -0.00, -1.00, 988.6, 450.0)">a</text><text xml:space="preserve" font-family="BentonSans-Book,BentonSans" font-size="48.0" fill="#B7AADE" transform="matrix(1.00, 0.00, -0.00, -1.00, 1014.9, 450.0)">n</text><text xml:space="preserve" font-family="BentonSans-Book,BentonSans" font-size="48.0" fill="#B7AADE" transform="matrix(1.00, 0.00, -0.00, -1.00, 1042.8, 450.0)"> </text><text xml:space="preserve" font-family="BentonSans-Book,BentonSans" font-size="48.0" fill="#B7AADE" transform="matrix(1.00, 0.00, -0.00, -1.00, 1053.6, 450.0)">Y</text><text xml:space="preserve" font-family="BentonSans-Book,BentonSans" font-size="48.0" fill="#B7AADE" transform="matrix(1.00, 0.00, -0.00, -1.00, 1083.3, 450.0)">a</text><text xml:space="preserve" font-family="BentonSans-Book,BentonSans" font-size="48.0" fill="#B7AADE" transform="matrix(1.00, 0.00, -0.00, -1.00, 1109.5, 450.0)">s</text><text xml:space="preserve" font-family="BentonSans-Book,BentonSans" font-size="48.0" fill="#B7AADE" transform="matrix(1.00, 0.00, -0.00, -1.00, 1133.8, 450.0)">i</text><text xml:space="preserve" font-family="BentonSans-Book,BentonSans" font-size="48.0" fill="#B7AADE" transform="matrix(1.00, 0.00, -0.00, -1.00, 1145.3, 450.0)">n</text><text xml:space="preserve" font-family="BentonSans-Book,BentonSans" font-size="48.0" fill="#B7AADE" transform="matrix(1.00, 0.00, -0.00, -1.00, 1173.2, 450.0)"> </text><text xml:space="preserve" font-family="BentonSans-Book,BentonSans" font-size="48.0" fill="#B7AADE" transform="matrix(1.00, 0.00, -0.00, -1.00, 678.8, 391.8)">R</text><text xml:space="preserve" font-family="BentonSans-Book,BentonSans" font-size="48.0" fill="#B7AADE" transform="matrix(1.00, 0.00, -0.00, -1.00, 711.0, 391.8)">o</text><text xml:space="preserve" font-family="BentonSans-Book,BentonSans" font-size="48.0" fill="#B7AADE" transform="matrix(1.00, 0.00, -0.00, -1.00, 738.7, 391.8)">u</text><text xml:space="preserve" font-family="BentonSans-Book,BentonSans" font-size="48.0" fill="#B7AADE" transform="matrix(1.00, 0.00, -0.00, -1.00, 766.6, 391.8)">t</text><text xml:space="preserve" font-family="BentonSans-Book,BentonSans" font-size="48.0" fill="#B7AADE" transform="matrix(1.00, 0.00, -0.00, -1.00, 784.1, 391.8)">i</text><text xml:space="preserve" font-family="BentonSans-Book,BentonSans" font-size="48.0" fill="#B7AADE" transform="matrix(1.00, 0.00, -0.00, -1.00, 795.6, 391.8)">n</text><text xml:space="preserve" font-family="BentonSans-Book,BentonSans" font-size="48.0" fill="#B7AADE" transform="matrix(1.00, 0.00, -0.00, -1.00, 823.5, 391.8)">g</text><text xml:space="preserve" font-family="BentonSans-Book,BentonSans" font-size="48.0" fill="#B7AADE" transform="matrix(1.00, 0.00, -0.00, -1.00, 850.6, 391.8)"> </text><text xml:space="preserve" font-family="BentonSans-Book,BentonSans" font-size="48.0" fill="#B7AADE" transform="matrix(1.00, 0.00, -0.00, -1.00, 861.4, 391.8)">E</text><text xml:space="preserve" font-family="BentonSans-Book,BentonSans" font-size="48.0" fill="#B7AADE" transform="matrix(1.00, 0.00, -0.00, -1.00, 890.4, 391.8)">n</text><text xml:space="preserve" font-family="BentonSans-Book,BentonSans" font-size="48.0" fill="#B7AADE" transform="matrix(1.00, 0.00, -0.00, -1.00, 918.3, 391.8)">g</text><text xml:space="preserve" font-family="BentonSans-Book,BentonSans" font-size="48.0" fill="#B7AADE" transform="matrix(1.00, 0.00, -0.00, -1.00, 945.4, 391.8)">i</text><text xml:space="preserve" font-family="BentonSans-Book,BentonSans" font-size="48.0" fill="#B7AADE" transform="matrix(1.00, 0.00, -0.00, -1.00, 956.9, 391.8)">n</text><text xml:space="preserve" font-family="BentonSans-Book,BentonSans" font-size="48.0" fill="#B7AADE" transform="matrix(1.00, 0.00, -0.00, -1.00, 984.8, 391.8)">e</text><text xml:space="preserve" font-family="BentonSans-Book,BentonSans" font-size="48.0" fill="#B7AADE" transform="matrix(1.00, 0.00, -0.00, -1.00, 1011.0, 391.8)">e</text><text xml:space="preserve" font-family="BentonSans-Book,BentonSans" font-size="48.0" fill="#B7AADE" transform="matrix(1.00, 0.00, -0.00, -1.00, 1037.2, 391.8)">r</text><text xml:space="preserve" font-family="BentonSans-Book,BentonSans" font-size="48.0" fill="#B7AADE" transform="matrix(1.00, 0.00, -0.00, -1.00, 1056.2, 391.8)">,</text><text xml:space="preserve" font-family="BentonSans-Book,BentonSans" font-size="48.0" fill="#B7AADE" transform="matrix(1.00, 0.00, -0.00, -1.00, 1069.0, 391.8)"> </text><text xml:space="preserve" font-family="BentonSans-Book,BentonSans" font-size="48.0" fill="#B7AADE" transform="matrix(1.00, 0.00, -0.00, -1.00, 1079.9, 391.8)">H</text><text xml:space="preserve" font-family="BentonSans-Book,BentonSans" font-size="48.0" fill="#B7AADE" transform="matrix(1.00, 0.00, -0.00, -1.00, 1115.0, 391.8)">e</text><text xml:space="preserve" font-family="BentonSans-Book,BentonSans" font-size="48.0" fill="#B7AADE" transform="matrix(1.00, 0.00, -0.00, -1.00, 1141.2, 391.8)">r</text><text xml:space="preserve" font-family="BentonSans-Book,BentonSans" font-size="48.0" fill="#B7AADE" transform="matrix(1.00, 0.00, -0.00, -1.00, 1160.2, 391.8)">o</text><text xml:space="preserve" font-family="BentonSans-Book,BentonSans" font-size="48.0" fill="#B7AADE" transform="matrix(1.00, 0.00, -0.00, -1.00, 1187.9, 391.8)">k</text><text xml:space="preserve" font-family="BentonSans-Book,BentonSans" font-size="48.0" fill="#B7AADE" transform="matrix(1.00, 0.00, -0.00, -1.00, 1213.3, 391.8)">u</text></g></svg>