<?xml version="1.0" encoding="UTF-8" standalone="no"?><svg xmlns="http://www.w3.org/2000/svg" xmlns:xlink="http://www.w3.org/1999/xlink" clip-rule="evenodd" stroke-miterlimit="10" viewBox="0 0 1920 1080"><desc>SVG generated by Keynote</desc><defs></defs><g transform="matrix(1.00, 0.00, -0.00, -1.00, 0.0, 1080.0)"><g><clipPath id="clip0x608001cb2ba0"><path d="M 0.0 1080.0 L 1920.0 1080.0 L 1920.0 0.0 L 0.0 0.0 Z M 0.0 1080.0 "></path></clipPath><g clip-path="url(#clip0x608001cb2ba0)"><image xlink:href="5659AA324C119DEC24BF5F12FF9BE02A.jpeg" width="2592.00" height="1944.00" transform="matrix(0.85, 0.00, -0.00, -0.85, 0.0, 1080.0)"></image></g></g><g opacity="0.95"><g><clipPath id="clip0x608001cb2780"><path d="M 0.0 897.0 L 764.0 897.0 L 764.0 1080.0 L 0.0 1080.0 Z M 0.0 897.0 "></path></clipPath><g clip-path="url(#clip0x608001cb2780)"><path d="M 34.0 1037.0 L 763.0 1037.0 L 763.0 898.0 L 34.0 898.0 Z M 34.5 1036.7 " fill="#FEFFFF"></path></g></g><g><clipPath id="clip0x608001cb2540"><path d="M 11.2 897.0 L 764.0 897.0 L 764.0 1038.0 L 11.2 1038.0 Z M 11.2 897.0 "></path></clipPath><g clip-path="url(#clip0x608001cb2540)"><text xml:space="preserve" font-family="BentonSans-Bold,BentonSans" font-weight="bold" font-size="116.0" fill="#7055BE" transform="matrix(1.00, 0.00, -0.00, -1.00, 57.7, 925.2)">S</text><text xml:space="preserve" font-family="BentonSans-Bold,BentonSans" font-weight="bold" font-size="116.0" fill="#7055BE" transform="matrix(1.00, 0.00, -0.00, -1.00, 137.9, 925.2)">a</text><text xml:space="preserve" font-family="BentonSans-Bold,BentonSans" font-weight="bold" font-size="116.0" fill="#7055BE" transform="matrix(1.00, 0.00, -0.00, -1.00, 204.9, 925.2)">m</text><text xml:space="preserve" font-family="BentonSans-Bold,BentonSans" font-weight="bold" font-size="116.0" fill="#7055BE" transform="matrix(1.00, 0.00, -0.00, -1.00, 313.0, 925.2)">s</text><text xml:space="preserve" font-family="BentonSans-Bold,BentonSans" font-weight="bold" font-size="116.0" fill="#7055BE" transform="matrix(1.00, 0.00, -0.00, -1.00, 374.9, 925.2)">e</text><text xml:space="preserve" font-family="BentonSans-Bold,BentonSans" font-weight="bold" font-size="116.0" fill="#7055BE" transform="matrix(1.00, 0.00, -0.00, -1.00, 441.9, 925.2)">t</text><text xml:space="preserve" font-family="BentonSans-Bold,BentonSans" font-weight="bold" font-size="116.0" fill="#7055BE" transform="matrix(1.00, 0.00, -0.00, -1.00, 491.4, 925.2)">n</text><text xml:space="preserve" font-family="BentonSans-Bold,BentonSans" font-weight="bold" font-size="116.0" fill="#7055BE" transform="matrix(1.00, 0.00, -0.00, -1.00, 563.1, 925.2)">i</text><text xml:space="preserve" font-family="BentonSans-Bold,BentonSans" font-weight="bold" font-size="116.0" fill="#7055BE" transform="matrix(1.00, 0.00, -0.00, -1.00, 597.2, 925.2)">n</text><text xml:space="preserve" font-family="BentonSans-Bold,BentonSans" font-weight="bold" font-size="116.0" fill="#7055BE" transform="matrix(1.00, 0.00, -0.00, -1.00, 668.9, 925.2)">g</text></g></g></g><g opacity="0.50"><g><clipPath id="clip0x608001cb1f40"><path d="M 0.0 0.0 L 1920.0 0.0 L 1920.0 1080.0 L 0.0 1080.0 Z M 0.0 0.0 "></path></clipPath><g clip-path="url(#clip0x608001cb1f40)"><path d="M -91.0 72.0 L 2011.0 72.0 L 2011.0 0.0 L -91.0 0.0 Z M -90.7 71.6 " fill="#FEFFFF"></path></g></g><g><clipPath id="clip0x608001cb1d00"><path d="M 0.0 0.0 L 1920.0 0.0 L 1920.0 83.7 L 0.0 83.7 Z M 0.0 0.0 "></path></clipPath><g clip-path="url(#clip0x608001cb1d00)"><text xml:space="preserve" font-family="GillSans,Gill Sans" font-size="56.0" fill="#000000" transform="matrix(1.00, 0.00, -0.00, -1.00, 222.6, 16.5)">(</text><text xml:space="preserve" font-family="GillSans,Gill Sans" font-size="56.0" fill="#000000" transform="matrix(1.00, 0.00, -0.00, -1.00, 240.7, 16.5)">C</text><text xml:space="preserve" font-family="GillSans,Gill Sans" font-size="56.0" fill="#000000" transform="matrix(1.00, 0.00, -0.00, -1.00, 280.4, 16.5)">C</text><text xml:space="preserve" font-family="GillSans,Gill Sans" font-size="56.0" fill="#000000" transform="matrix(1.00, 0.00, -0.00, -1.00, 320.0, 16.5)">)</text><text xml:space="preserve" font-family="GillSans,Gill Sans" font-size="56.0" fill="#000000" transform="matrix(1.00, 0.00, -0.00, -1.00, 338.2, 16.5)"> </text><text xml:space="preserve" font-family="GillSans,Gill Sans" font-size="56.0" fill="#000000" transform="matrix(1.00, 0.00, -0.00, -1.00, 353.7, 16.5)">2</text><text xml:space="preserve" font-family="GillSans,Gill Sans" font-size="56.0" fill="#000000" transform="matrix(1.00, 0.00, -0.00, -1.00, 381.7, 16.5)">.</text><text xml:space="preserve" font-family="GillSans,Gill Sans" font-size="56.0" fill="#000000" transform="matrix(1.00, 0.00, -0.00, -1.00, 394.0, 16.5)">0</text><text xml:space="preserve" font-family="GillSans,Gill Sans" font-size="56.0" fill="#000000" transform="matrix(1.00, 0.00, -0.00, -1.00, 422.0, 16.5)"> </text><text xml:space="preserve" font-family="GillSans,Gill Sans" font-size="56.0" fill="#000000" transform="matrix(1.00, 0.00, -0.00, -1.00, 437.5, 16.5)">L</text><text xml:space="preserve" font-family="GillSans,Gill Sans" font-size="56.0" fill="#000000" transform="matrix(1.00, 0.00, -0.00, -1.00, 465.0, 16.5)">e</text><text xml:space="preserve" font-family="GillSans,Gill Sans" font-size="56.0" fill="#000000" transform="matrix(1.00, 0.00, -0.00, -1.00, 491.8, 16.5)">g</text><text xml:space="preserve" font-family="GillSans,Gill Sans" font-size="56.0" fill="#000000" transform="matrix(1.00, 0.00, -0.00, -1.00, 515.2, 16.5)">o</text><text xml:space="preserve" font-family="GillSans,Gill Sans" font-size="56.0" fill="#000000" transform="matrix(1.00, 0.00, -0.00, -1.00, 546.1, 16.5)"> </text><text xml:space="preserve" font-family="GillSans,Gill Sans" font-size="56.0" fill="#000000" transform="matrix(1.00, 0.00, -0.00, -1.00, 561.6, 16.5)">B</text><text xml:space="preserve" font-family="GillSans,Gill Sans" font-size="56.0" fill="#000000" transform="matrix(1.00, 0.00, -0.00, -1.00, 593.1, 16.5)">l</text><text xml:space="preserve" font-family="GillSans,Gill Sans" font-size="56.0" fill="#000000" transform="matrix(1.00, 0.00, -0.00, -1.00, 605.4, 16.5)">o</text><text xml:space="preserve" font-family="GillSans,Gill Sans" font-size="56.0" fill="#000000" transform="matrix(1.00, 0.00, -0.00, -1.00, 636.3, 16.5)">e</text><text xml:space="preserve" font-family="GillSans,Gill Sans" font-size="56.0" fill="#000000" transform="matrix(1.00, 0.00, -0.00, -1.00, 663.1, 16.5)">m</text><text xml:space="preserve" font-family="GillSans,Gill Sans" font-size="56.0" fill="#000000" transform="matrix(1.00, 0.00, -0.00, -1.00, 706.3, 16.5)">e</text><text xml:space="preserve" font-family="GillSans,Gill Sans" font-size="56.0" fill="#000000" transform="matrix(1.00, 0.00, -0.00, -1.00, 733.1, 16.5)">n</text><text xml:space="preserve" font-family="GillSans,Gill Sans" font-size="56.0" fill="#000000" transform="matrix(1.00, 0.00, -0.00, -1.00, 761.1, 16.5)"> </text><text xml:space="preserve" font-family="GillSans,Gill Sans" font-size="56.0" fill="#000000" transform="matrix(1.00, 0.00, -0.00, -1.00, 776.7, 16.5)">b</text><text xml:space="preserve" font-family="GillSans,Gill Sans" font-size="56.0" fill="#000000" transform="matrix(1.00, 0.00, -0.00, -1.00, 804.1, 16.5)">y</text><text xml:space="preserve" font-family="GillSans,Gill Sans" font-size="56.0" fill="#000000" transform="matrix(1.00, 0.00, -0.00, -1.00, 828.7, 16.5)"> </text><text xml:space="preserve" font-family="GillSans,Gill Sans" font-size="56.0" fill="#000000" transform="matrix(1.00, 0.00, -0.00, -1.00, 844.2, 16.5)">j</text><text xml:space="preserve" font-family="GillSans,Gill Sans" font-size="56.0" fill="#000000" transform="matrix(1.00, 0.00, -0.00, -1.00, 856.5, 16.5)">a</text><text xml:space="preserve" font-family="GillSans,Gill Sans" font-size="56.0" fill="#000000" transform="matrix(1.00, 0.00, -0.00, -1.00, 880.4, 16.5)">n</text><text xml:space="preserve" font-family="GillSans,Gill Sans" font-size="56.0" fill="#000000" transform="matrix(1.00, 0.00, -0.00, -1.00, 907.8, 16.5)">u</text><text xml:space="preserve" font-family="GillSans,Gill Sans" font-size="56.0" fill="#000000" transform="matrix(1.00, 0.00, -0.00, -1.00, 935.8, 16.5)">s</text><text xml:space="preserve" font-family="GillSans,Gill Sans" font-size="56.0" fill="#000000" transform="matrix(1.00, 0.00, -0.00, -1.00, 957.4, 16.5)"> </text><text xml:space="preserve" font-family="GillSans,Gill Sans" font-size="56.0" fill="#000000" transform="matrix(1.00, 0.00, -0.00, -1.00, 972.9, 16.5)">a</text><text xml:space="preserve" font-family="GillSans,Gill Sans" font-size="56.0" fill="#000000" transform="matrix(1.00, 0.00, -0.00, -1.00, 994.8, 16.5)">v</text><text xml:space="preserve" font-family="GillSans,Gill Sans" font-size="56.0" fill="#000000" transform="matrix(1.00, 0.00, -0.00, -1.00, 1019.4, 16.5)">a</text><text xml:space="preserve" font-family="GillSans,Gill Sans" font-size="56.0" fill="#000000" transform="matrix(1.00, 0.00, -0.00, -1.00, 1043.2, 16.5)">i</text><text xml:space="preserve" font-family="GillSans,Gill Sans" font-size="56.0" fill="#000000" transform="matrix(1.00, 0.00, -0.00, -1.00, 1055.5, 16.5)">l</text><text xml:space="preserve" font-family="GillSans,Gill Sans" font-size="56.0" fill="#000000" transform="matrix(1.00, 0.00, -0.00, -1.00, 1067.8, 16.5)">a</text><text xml:space="preserve" font-family="GillSans,Gill Sans" font-size="56.0" fill="#000000" transform="matrix(1.00, 0.00, -0.00, -1.00, 1091.7, 16.5)">b</text><text xml:space="preserve" font-family="GillSans,Gill Sans" font-size="56.0" fill="#000000" transform="matrix(1.00, 0.00, -0.00, -1.00, 1119.7, 16.5)">l</text><text xml:space="preserve" font-family="GillSans,Gill Sans" font-size="56.0" fill="#000000" transform="matrix(1.00, 0.00, -0.00, -1.00, 1132.0, 16.5)">e</text><text xml:space="preserve" font-family="GillSans,Gill Sans" font-size="56.0" fill="#000000" transform="matrix(1.00, 0.00, -0.00, -1.00, 1158.8, 16.5)"> </text><text xml:space="preserve" font-family="GillSans,Gill Sans" font-size="56.0" fill="#000000" transform="matrix(1.00, 0.00, -0.00, -1.00, 1174.4, 16.5)">a</text><text xml:space="preserve" font-family="GillSans,Gill Sans" font-size="56.0" fill="#000000" transform="matrix(1.00, 0.00, -0.00, -1.00, 1198.3, 16.5)">t</text><text xml:space="preserve" font-family="GillSans,Gill Sans" font-size="56.0" fill="#000000" transform="matrix(1.00, 0.00, -0.00, -1.00, 1216.9, 16.5)"> </text><text xml:space="preserve" font-family="GillSans,Gill Sans" font-size="56.0" fill="#000000" transform="matrix(1.00, 0.00, -0.00, -1.00, 1232.5, 16.5)">h</text><text xml:space="preserve" font-family="GillSans,Gill Sans" font-size="56.0" fill="#000000" transform="matrix(1.00, 0.00, -0.00, -1.00, 1260.5, 16.5)">t</text><text xml:space="preserve" font-family="GillSans,Gill Sans" font-size="56.0" fill="#000000" transform="matrix(1.00, 0.00, -0.00, -1.00, 1279.2, 16.5)">t</text><text xml:space="preserve" font-family="GillSans,Gill Sans" font-size="56.0" fill="#000000" transform="matrix(1.00, 0.00, -0.00, -1.00, 1297.8, 16.5)">p</text><text xml:space="preserve" font-family="GillSans,Gill Sans" font-size="56.0" fill="#000000" transform="matrix(1.00, 0.00, -0.00, -1.00, 1325.8, 16.5)">:</text><text xml:space="preserve" font-family="GillSans,Gill Sans" font-size="56.0" fill="#000000" transform="matrix(1.00, 0.00, -0.00, -1.00, 1338.1, 16.5)">/</text><text xml:space="preserve" font-family="GillSans,Gill Sans" font-size="56.0" fill="#000000" transform="matrix(1.00, 0.00, -0.00, -1.00, 1353.8, 16.5)">/</text><text xml:space="preserve" font-family="GillSans,Gill Sans" font-size="56.0" fill="#000000" transform="matrix(1.00, 0.00, -0.00, -1.00, 1369.6, 16.5)">ﬂ</text><text xml:space="preserve" font-family="GillSans,Gill Sans" font-size="56.0" fill="#000000" transform="matrix(1.00, 0.00, -0.00, -1.00, 1397.6, 16.5)">i</text><text xml:space="preserve" font-family="GillSans,Gill Sans" font-size="56.0" fill="#000000" transform="matrix(1.00, 0.00, -0.00, -1.00, 1409.8, 16.5)">c</text><text xml:space="preserve" font-family="GillSans,Gill Sans" font-size="56.0" fill="#000000" transform="matrix(1.00, 0.00, -0.00, -1.00, 1435.5, 16.5)">.</text><text xml:space="preserve" font-family="GillSans,Gill Sans" font-size="56.0" fill="#000000" transform="matrix(1.00, 0.00, -0.00, -1.00, 1447.8, 16.5)">k</text><text xml:space="preserve" font-family="GillSans,Gill Sans" font-size="56.0" fill="#000000" transform="matrix(1.00, 0.00, -0.00, -1.00, 1474.6, 16.5)">r</text><text xml:space="preserve" font-family="GillSans,Gill Sans" font-size="56.0" fill="#000000" transform="matrix(1.00, 0.00, -0.00, -1.00, 1496.8, 16.5)">/</text><text xml:space="preserve" font-family="GillSans,Gill Sans" font-size="56.0" fill="#000000" transform="matrix(1.00, 0.00, -0.00, -1.00, 1512.5, 16.5)">p</text><text xml:space="preserve" font-family="GillSans,Gill Sans" font-size="56.0" fill="#000000" transform="matrix(1.00, 0.00, -0.00, -1.00, 1540.5, 16.5)">/</text><text xml:space="preserve" font-family="GillSans,Gill Sans" font-size="56.0" fill="#000000" transform="matrix(1.00, 0.00, -0.00, -1.00, 1556.2, 16.5)">d</text><text xml:space="preserve" font-family="GillSans,Gill Sans" font-size="56.0" fill="#000000" transform="matrix(1.00, 0.00, -0.00, -1.00, 1584.7, 16.5)">y</text><text xml:space="preserve" font-family="GillSans,Gill Sans" font-size="56.0" fill="#000000" transform="matrix(1.00, 0.00, -0.00, -1.00, 1609.3, 16.5)">Z</text><text xml:space="preserve" font-family="GillSans,Gill Sans" font-size="56.0" fill="#000000" transform="matrix(1.00, 0.00, -0.00, -1.00, 1645.4, 16.5)">a</text><text xml:space="preserve" font-family="GillSans,Gill Sans" font-size="56.0" fill="#000000" transform="matrix(1.00, 0.00, -0.00, -1.00, 1669.3, 16.5)">b</text><path d="M 1323.3 59.3 L 1788.1 59.3 " fill="none" stroke="#000000" stroke-width="2.79" transform="matrix(1.00, 0.00, 0.00, -1.00, -90.7, 71.6)"></path></g></g></g></g></svg>