<?xml version="1.0" encoding="UTF-8" standalone="no"?><svg xmlns="http://www.w3.org/2000/svg" xmlns:xlink="http://www.w3.org/1999/xlink" clip-rule="evenodd" stroke-miterlimit="10" viewBox="0 0 1920 1080"><desc>SVG generated by Keynote</desc><defs></defs><g transform="matrix(1.00, 0.00, -0.00, -1.00, 0.0, 1080.0)"><path d="M 0.0 1080.0 L 1920.0 1080.0 L 1920.0 0.0 L 0.0 0.0 Z M 0.0 1080.0 " fill="#35234F"></path><text xml:space="preserve" font-family="BentonSans-ExtraLight,BentonSans" font-size="116.0" fill="#ECEAEF" transform="matrix(1.00, 0.00, -0.00, -1.00, 835.9, 560.9)">M</text><text xml:space="preserve" font-family="BentonSans-ExtraLight,BentonSans" font-size="116.0" fill="#ECEAEF" transform="matrix(1.00, 0.00, -0.00, -1.00, 935.8, 560.9)">V</text><text xml:space="preserve" font-family="BentonSans-ExtraLight,BentonSans" font-size="116.0" fill="#ECEAEF" transform="matrix(1.00, 0.00, -0.00, -1.00, 1011.3, 560.9)">P</text><text xml:space="preserve" font-family="BentonSans-Book,BentonSans" font-size="48.0" fill="#B7AADE" transform="matrix(1.00, 0.00, -0.00, -1.00, 825.0, 484.0)">M</text><text xml:space="preserve" font-family="BentonSans-Book,BentonSans" font-size="48.0" fill="#B7AADE" transform="matrix(1.00, 0.00, -0.00, -1.00, 866.8, 484.0)">u</text><text xml:space="preserve" font-family="BentonSans-Book,BentonSans" font-size="48.0" fill="#B7AADE" transform="matrix(1.00, 0.00, -0.00, -1.00, 894.6, 484.0)">n</text><text xml:space="preserve" font-family="BentonSans-Book,BentonSans" font-size="48.0" fill="#B7AADE" transform="matrix(1.00, 0.00, -0.00, -1.00, 922.5, 484.0)"> </text><text xml:space="preserve" font-family="BentonSans-Book,BentonSans" font-size="48.0" fill="#B7AADE" transform="matrix(1.00, 0.00, -0.00, -1.00, 933.4, 484.0)">b</text><text xml:space="preserve" font-family="BentonSans-Book,BentonSans" font-size="48.0" fill="#B7AADE" transform="matrix(1.00, 0.00, -0.00, -1.00, 961.8, 484.0)">í</text><text xml:space="preserve" font-family="BentonSans-Book,BentonSans" font-size="48.0" fill="#B7AADE" transform="matrix(1.00, 0.00, -0.00, -1.00, 973.4, 484.0)">t</text><text xml:space="preserve" font-family="BentonSans-Book,BentonSans" font-size="48.0" fill="#B7AADE" transform="matrix(1.00, 0.00, -0.00, -1.00, 990.9, 484.0)">a</text><text xml:space="preserve" font-family="BentonSans-Book,BentonSans" font-size="48.0" fill="#B7AADE" transform="matrix(1.00, 0.00, -0.00, -1.00, 1017.1, 484.0)"> </text><text xml:space="preserve" font-family="BentonSans-Book,BentonSans" font-size="48.0" fill="#B7AADE" transform="matrix(1.00, 0.00, -0.00, -1.00, 1028.0, 484.0)">þ</text><text xml:space="preserve" font-family="BentonSans-Book,BentonSans" font-size="48.0" fill="#B7AADE" transform="matrix(1.00, 0.00, -0.00, -1.00, 1056.5, 484.0)">i</text><text xml:space="preserve" font-family="BentonSans-Book,BentonSans" font-size="48.0" fill="#B7AADE" transform="matrix(1.00, 0.00, -0.00, -1.00, 1068.0, 484.0)">g</text></g></svg>