<?xml version="1.0" encoding="UTF-8" standalone="no"?><svg xmlns="http://www.w3.org/2000/svg" xmlns:xlink="http://www.w3.org/1999/xlink" clip-rule="evenodd" stroke-miterlimit="10" viewBox="0 0 1920 1080"><desc>SVG generated by Keynote</desc><defs></defs><g transform="matrix(1.00, 0.00, -0.00, -1.00, 0.0, 1080.0)"><path d="M 0.0 1080.0 L 1920.0 1080.0 L 1920.0 0.0 L 0.0 0.0 Z M 0.0 1080.0 " fill="#35234F"></path><text xml:space="preserve" font-family="BentonSans-ExtraLight,BentonSans" font-size="116.0" fill="#ECEAEF" transform="matrix(1.00, 0.00, -0.00, -1.00, 795.2, 561.4)">S</text><text xml:space="preserve" font-family="BentonSans-ExtraLight,BentonSans" font-size="116.0" fill="#ECEAEF" transform="matrix(1.00, 0.00, -0.00, -1.00, 869.0, 561.4)">t</text><text xml:space="preserve" font-family="BentonSans-ExtraLight,BentonSans" font-size="116.0" fill="#ECEAEF" transform="matrix(1.00, 0.00, -0.00, -1.00, 909.6, 561.4)">a</text><text xml:space="preserve" font-family="BentonSans-ExtraLight,BentonSans" font-size="116.0" fill="#ECEAEF" transform="matrix(1.00, 0.00, -0.00, -1.00, 971.7, 561.4)">ð</text><text xml:space="preserve" font-family="BentonSans-ExtraLight,BentonSans" font-size="116.0" fill="#ECEAEF" transform="matrix(1.00, 0.00, -0.00, -1.00, 1037.5, 561.4)">l</text><text xml:space="preserve" font-family="BentonSans-ExtraLight,BentonSans" font-size="116.0" fill="#ECEAEF" transform="matrix(1.00, 0.00, -0.00, -1.00, 1062.7, 561.4)">a</text><text xml:space="preserve" font-family="BentonSans-Book,BentonSans" font-size="48.0" fill="#B7AADE" transform="matrix(1.00, 0.00, -0.00, -1.00, 610.9, 484.0)">E</text><text xml:space="preserve" font-family="BentonSans-Book,BentonSans" font-size="48.0" fill="#B7AADE" transform="matrix(1.00, 0.00, -0.00, -1.00, 639.9, 484.0)">n</text><text xml:space="preserve" font-family="BentonSans-Book,BentonSans" font-size="48.0" fill="#B7AADE" transform="matrix(1.00, 0.00, -0.00, -1.00, 667.8, 484.0)"> </text><text xml:space="preserve" font-family="BentonSans-Book,BentonSans" font-size="48.0" fill="#B7AADE" transform="matrix(1.00, 0.00, -0.00, -1.00, 678.6, 484.0)">v</text><text xml:space="preserve" font-family="BentonSans-Book,BentonSans" font-size="48.0" fill="#B7AADE" transform="matrix(1.00, 0.00, -0.00, -1.00, 703.0, 484.0)">e</text><text xml:space="preserve" font-family="BentonSans-Book,BentonSans" font-size="48.0" fill="#B7AADE" transform="matrix(1.00, 0.00, -0.00, -1.00, 729.2, 484.0)">l</text><text xml:space="preserve" font-family="BentonSans-Book,BentonSans" font-size="48.0" fill="#B7AADE" transform="matrix(1.00, 0.00, -0.00, -1.00, 740.8, 484.0)">j</text><text xml:space="preserve" font-family="BentonSans-Book,BentonSans" font-size="48.0" fill="#B7AADE" transform="matrix(1.00, 0.00, -0.00, -1.00, 752.3, 484.0)">a</text><text xml:space="preserve" font-family="BentonSans-Book,BentonSans" font-size="48.0" fill="#B7AADE" transform="matrix(1.00, 0.00, -0.00, -1.00, 778.5, 484.0)"> </text><text xml:space="preserve" font-family="BentonSans-Book,BentonSans" font-size="48.0" fill="#B7AADE" transform="matrix(1.00, 0.00, -0.00, -1.00, 789.4, 484.0)">s</text><text xml:space="preserve" font-family="BentonSans-Book,BentonSans" font-size="48.0" fill="#B7AADE" transform="matrix(1.00, 0.00, -0.00, -1.00, 813.7, 484.0)">a</text><text xml:space="preserve" font-family="BentonSans-Book,BentonSans" font-size="48.0" fill="#B7AADE" transform="matrix(1.00, 0.00, -0.00, -1.00, 839.9, 484.0)">m</text><text xml:space="preserve" font-family="BentonSans-Book,BentonSans" font-size="48.0" fill="#B7AADE" transform="matrix(1.00, 0.00, -0.00, -1.00, 883.8, 484.0)">t</text><text xml:space="preserve" font-family="BentonSans-Book,BentonSans" font-size="48.0" fill="#B7AADE" transform="matrix(1.00, 0.00, -0.00, -1.00, 901.3, 484.0)"> </text><text xml:space="preserve" font-family="BentonSans-Book,BentonSans" font-size="48.0" fill="#B7AADE" transform="matrix(1.00, 0.00, -0.00, -1.00, 912.1, 484.0)">b</text><text xml:space="preserve" font-family="BentonSans-Book,BentonSans" font-size="48.0" fill="#B7AADE" transform="matrix(1.00, 0.00, -0.00, -1.00, 940.6, 484.0)">e</text><text xml:space="preserve" font-family="BentonSans-Book,BentonSans" font-size="48.0" fill="#B7AADE" transform="matrix(1.00, 0.00, -0.00, -1.00, 966.8, 484.0)">s</text><text xml:space="preserve" font-family="BentonSans-Book,BentonSans" font-size="48.0" fill="#B7AADE" transform="matrix(1.00, 0.00, -0.00, -1.00, 991.1, 484.0)">t</text><text xml:space="preserve" font-family="BentonSans-Book,BentonSans" font-size="48.0" fill="#B7AADE" transform="matrix(1.00, 0.00, -0.00, -1.00, 1008.6, 484.0)">a</text><text xml:space="preserve" font-family="BentonSans-Book,BentonSans" font-size="48.0" fill="#B7AADE" transform="matrix(1.00, 0.00, -0.00, -1.00, 1034.9, 484.0)"> </text><text xml:space="preserve" font-family="BentonSans-Book,BentonSans" font-size="48.0" fill="#B7AADE" transform="matrix(1.00, 0.00, -0.00, -1.00, 1045.7, 484.0)">t</text><text xml:space="preserve" font-family="BentonSans-Book,BentonSans" font-size="48.0" fill="#B7AADE" transform="matrix(1.00, 0.00, -0.00, -1.00, 1063.2, 484.0)">ó</text><text xml:space="preserve" font-family="BentonSans-Book,BentonSans" font-size="48.0" fill="#B7AADE" transform="matrix(1.00, 0.00, -0.00, -1.00, 1090.9, 484.0)">l</text><text xml:space="preserve" font-family="BentonSans-Book,BentonSans" font-size="48.0" fill="#B7AADE" transform="matrix(1.00, 0.00, -0.00, -1.00, 1102.4, 484.0)">i</text><text xml:space="preserve" font-family="BentonSans-Book,BentonSans" font-size="48.0" fill="#B7AADE" transform="matrix(1.00, 0.00, -0.00, -1.00, 1114.0, 484.0)">ð</text><text xml:space="preserve" font-family="BentonSans-Book,BentonSans" font-size="48.0" fill="#B7AADE" transform="matrix(1.00, 0.00, -0.00, -1.00, 1141.7, 484.0)"> </text><text xml:space="preserve" font-family="BentonSans-Book,BentonSans" font-size="48.0" fill="#B7AADE" transform="matrix(1.00, 0.00, -0.00, -1.00, 1152.5, 484.0)">í</text><text xml:space="preserve" font-family="BentonSans-Book,BentonSans" font-size="48.0" fill="#B7AADE" transform="matrix(1.00, 0.00, -0.00, -1.00, 1164.0, 484.0)"> </text><text xml:space="preserve" font-family="BentonSans-Book,BentonSans" font-size="48.0" fill="#B7AADE" transform="matrix(1.00, 0.00, -0.00, -1.00, 1174.9, 484.0)">v</text><text xml:space="preserve" font-family="BentonSans-Book,BentonSans" font-size="48.0" fill="#B7AADE" transform="matrix(1.00, 0.00, -0.00, -1.00, 1199.3, 484.0)">e</text><text xml:space="preserve" font-family="BentonSans-Book,BentonSans" font-size="48.0" fill="#B7AADE" transform="matrix(1.00, 0.00, -0.00, -1.00, 1225.5, 484.0)">r</text><text xml:space="preserve" font-family="BentonSans-Book,BentonSans" font-size="48.0" fill="#B7AADE" transform="matrix(1.00, 0.00, -0.00, -1.00, 1244.5, 484.0)">k</text><text xml:space="preserve" font-family="BentonSans-Book,BentonSans" font-size="48.0" fill="#B7AADE" transform="matrix(1.00, 0.00, -0.00, -1.00, 1269.9, 484.0)">i</text><text xml:space="preserve" font-family="BentonSans-Book,BentonSans" font-size="48.0" fill="#B7AADE" transform="matrix(1.00, 0.00, -0.00, -1.00, 1281.4, 484.0)">ð</text></g></svg>