<?xml version="1.0" encoding="UTF-8" standalone="no"?><svg xmlns="http://www.w3.org/2000/svg" xmlns:xlink="http://www.w3.org/1999/xlink" clip-rule="evenodd" stroke-miterlimit="10" viewBox="0 0 1920 1080"><desc>SVG generated by Keynote</desc><defs><radialGradient id="gradSh1.0" cx="0.0" cy="0.0" r="1.0" fx="0.0" fy="0.0" gradientUnits="userSpaceOnUse" gradientTransform="matrix(791.03, 0.00, 0.00, -791.14, 399.4, 703.2)"><stop offset="0.00000" stop-color="#000000"></stop><stop offset="0.00220" stop-color="#010101"></stop><stop offset="0.00733" stop-color="#020202"></stop><stop offset="0.01393" stop-color="#040404"></stop><stop offset="0.01906" stop-color="#050505"></stop><stop offset="0.03006" stop-color="#080808"></stop><stop offset="0.03446" stop-color="#090909"></stop><stop offset="0.06085" stop-color="#101010"></stop><stop offset="0.06598" stop-color="#111111"></stop><stop offset="0.12390" stop-color="#202020"></stop><stop offset="0.12830" stop-color="#212121"></stop><stop offset="0.24927" stop-color="#404040"></stop><stop offset="0.25440" stop-color="#414141"></stop><stop offset="0.50000" stop-color="#808080"></stop><stop offset="0.50513" stop-color="#818181"></stop><stop offset="1.00000" stop-color="#FFFFFF"></stop></radialGradient><radialGradient id="gradSh2.1" cx="0.0" cy="0.0" r="1.0" fx="0.0" fy="0.0" gradientUnits="userSpaceOnUse" gradientTransform="matrix(947.94, 0.00, 0.00, -948.07, 835.5, 221.1)"><stop offset="0.00000" stop-color="#000000"></stop><stop offset="1.00000" stop-color="#000000"></stop></radialGradient><radialGradient id="gradSh3.2" cx="0.0" cy="0.0" r="1.0" fx="0.0" fy="0.0" gradientUnits="userSpaceOnUse" gradientTransform="matrix(604.94, 0.00, 0.00, -605.03, 1895.1, 1051.9)"><stop offset="0.00000" stop-color="#000000"></stop><stop offset="1.00000" stop-color="#000000"></stop></radialGradient><radialGradient id="gradSh4.3" cx="0.0" cy="0.0" r="1.0" fx="0.0" fy="0.0" gradientUnits="userSpaceOnUse" gradientTransform="matrix(667.79, 0.00, 0.00, -667.88, 1744.4, 177.2)"><stop offset="0.00000" stop-color="#000000"></stop><stop offset="1.00000" stop-color="#000000"></stop></radialGradient><radialGradient id="gradSh2.4" cx="0.0" cy="0.0" r="1.0" fx="0.0" fy="0.0" gradientUnits="userSpaceOnUse" gradientTransform="matrix(0.00, -514.65, -660.55, 0.00, 959.7, 733.7)"><stop offset="0.00000" stop-color="#000000"></stop><stop offset="1.00000" stop-color="#000000"></stop></radialGradient><radialGradient id="gradSh5.5" cx="0.0" cy="0.0" r="1.0" fx="0.0" fy="0.0" gradientUnits="userSpaceOnUse" gradientTransform="matrix(782.80, 0.00, 0.00, -840.48, 642.5, 995.5)"><stop offset="0.00000" stop-color="#000000"></stop><stop offset="1.00000" stop-color="#000000"></stop></radialGradient><radialGradient id="gradSh6.6" cx="0.0" cy="0.0" r="1.0" fx="0.0" fy="0.0" gradientUnits="userSpaceOnUse" gradientTransform="matrix(595.75, 0.00, 0.00, -595.83, -0.3, 1083.5)"><stop offset="0.00000" stop-color="#000000"></stop><stop offset="1.00000" stop-color="#000000"></stop></radialGradient></defs><g transform="matrix(1.00, 0.00, -0.00, -1.00, 0.0, 1080.0)"><path d="M 0.0 1080.0 L 1920.0 1080.0 L 1920.0 0.0 L 0.0 0.0 Z M 0.0 1080.0 " fill="#35234F"></path><g><clipPath id="clip0x6080016aa560"><path d="M -596.0 -727.0 L 2500.0 -727.0 L 2500.0 1836.0 L -596.0 1836.0 Z M -596.0 -727.0 "></path></clipPath><g clip-path="url(#clip0x6080016aa560)"><path d="M 1919.9 0.0 L -0.5 0.0 L -0.5 1080.3 L 1919.9 1080.3 Z M 1919.9 0.0 " fill="#36234F"></path><path d="M 1919.9 0.0 L -0.5 0.0 L -0.5 1080.3 L 1919.9 1080.3 Z M 1919.9 0.0 " fill="#36234F"></path></g></g><g><clipPath id="clip0x6080016aa3e0"><path d="M -0.5 1080.3 L -0.5 20.4 C 11.7 13.3 24.0 6.5 36.6 0.0 L 36.6 0.0 L 762.2 0.0 C 1016.6 131.5 1190.4 397.1 1190.4 703.2 L 1190.4 703.2 C 1190.4 839.8 1155.9 968.2 1095.0 1080.3 L 1095.0 1080.3 Z M -0.5 1080.3 "></path></clipPath><g clip-path="url(#clip0x6080016aa3e0)"><g><clipPath id="clip0x6080014a9de0"><path d="M -596.0 -727.0 L 2500.0 -727.0 L 2500.0 1836.0 L -596.0 1836.0 Z M -596.0 -727.0 "></path></clipPath><g clip-path="url(#clip0x6080014a9de0)"><path d="M -596.0 -727.0 L 2500.0 -727.0 L 2500.0 1836.0 L -596.0 1836.0 Z M -596.0 -727.0 " fill="url(#gradSh1.0)"></path></g></g></g></g><g><clipPath id="clip0x6080010a9180"><path d="M 434.4 1080.3 C 248.8 993.5 96.0 848.4 -0.5 668.5 L -0.5 668.5 L -0.5 0.0 L 1757.5 0.0 C 1774.5 70.9 1783.4 144.9 1783.4 221.1 L 1783.4 221.1 C 1783.4 601.3 1559.6 929.2 1236.6 1080.3 L 1236.6 1080.3 Z M 434.4 1080.3 "></path></clipPath><g clip-path="url(#clip0x6080010a9180)"><g><clipPath id="clip0x6080010a9300"><path d="M -596.0 -727.0 L 2500.0 -727.0 L 2500.0 1836.0 L -596.0 1836.0 Z M -596.0 -727.0 "></path></clipPath><g clip-path="url(#clip0x6080010a9300)"><path d="M -596.0 -727.0 L 2500.0 -727.0 L 2500.0 1836.0 L -596.0 1836.0 Z M -596.0 -727.0 " fill="url(#gradSh2.1)"></path></g></g></g></g><g><clipPath id="clip0x6080012aa080"><path d="M 1290.8 1080.3 C 1290.3 1070.9 1290.1 1061.4 1290.1 1051.9 L 1290.1 1051.9 C 1290.1 717.7 1561.0 446.8 1895.1 446.8 L 1895.1 446.8 C 1903.4 446.8 1911.6 447.0 1919.9 447.3 L 1919.9 447.3 L 1919.9 1080.3 Z M 1290.8 1080.3 "></path></clipPath><g clip-path="url(#clip0x6080012aa080)"><g><clipPath id="clip0x6080012aa200"><path d="M -596.0 -727.0 L 2500.0 -727.0 L 2500.0 1836.0 L -596.0 1836.0 Z M -596.0 -727.0 "></path></clipPath><g clip-path="url(#clip0x6080012aa200)"><path d="M -596.0 -727.0 L 2500.0 -727.0 L 2500.0 1836.0 L -596.0 1836.0 Z M -596.0 -727.0 " fill="url(#gradSh3.2)"></path></g></g></g></g><g><clipPath id="clip0x6080014aaa40"><path d="M 1076.7 177.2 C 1076.7 115.9 1084.9 56.5 1100.4 0.0 L 1100.4 0.0 L 1919.9 0.0 L 1919.9 821.8 C 1863.9 837.0 1805.1 845.1 1744.4 845.1 L 1744.4 845.1 C 1375.6 845.1 1076.7 546.1 1076.7 177.2 "></path></clipPath><g clip-path="url(#clip0x6080014aaa40)"><g><clipPath id="clip0x6080014aabc0"><path d="M -596.0 -727.0 L 2500.0 -727.0 L 2500.0 1836.0 L -596.0 1836.0 Z M -596.0 -727.0 "></path></clipPath><g clip-path="url(#clip0x6080014aabc0)"><path d="M -596.0 -727.0 L 2500.0 -727.0 L 2500.0 1836.0 L -596.0 1836.0 Z M -596.0 -727.0 " fill="url(#gradSh4.3)"></path></g></g></g></g><g><clipPath id="clip0x6080016ab520"><path d="M -0.5 0.0 L 1919.9 0.0 L 1919.9 1080.3 L -0.5 1080.3 Z M -0.5 0.0 "></path></clipPath><g clip-path="url(#clip0x6080016ab520)"><g opacity="0.90"><g><clipPath id="clip0x6080016ab700"><path d="M 959.7 219.0 C 594.9 219.0 299.1 449.4 299.1 733.7 C 299.1 1017.9 594.9 1248.3 959.7 1248.3 C 1324.5 1248.3 1620.2 1017.9 1620.2 733.7 C 1620.2 449.4 1324.5 219.0 959.7 219.0 "></path></clipPath><g clip-path="url(#clip0x6080016ab700)"><g><clipPath id="clip0x6080016ab880"><path d="M 299.1 219.0 L 1620.3 219.0 L 1620.3 1080.0 L 299.1 1080.0 Z M 299.1 219.0 "></path></clipPath><g clip-path="url(#clip0x6080016ab880)"><path d="M 299.1 219.0 L 1620.3 219.0 L 1620.3 1080.0 L 299.1 1080.0 Z M 299.1 219.0 " fill="url(#gradSh2.4)"></path></g></g></g></g></g></g></g><g><clipPath id="clip0x6080018ac000"><path d="M -0.5 1080.3 L -0.5 516.0 C 140.9 297.8 376.2 155.0 642.5 155.0 L 642.5 155.0 C 1074.9 155.0 1425.3 531.3 1425.3 995.5 L 1425.3 995.5 C 1425.3 1024.1 1424.0 1052.4 1421.4 1080.3 L 1421.4 1080.3 Z M -0.5 1080.3 "></path></clipPath><g clip-path="url(#clip0x6080018ac000)"><g><clipPath id="clip0x6080018ac180"><path d="M -596.0 -727.0 L 2500.0 -727.0 L 2500.0 1836.0 L -596.0 1836.0 Z M -596.0 -727.0 "></path></clipPath><g clip-path="url(#clip0x6080018ac180)"><path d="M -596.0 -727.0 L 2500.0 -727.0 L 2500.0 1836.0 L -596.0 1836.0 Z M -596.0 -727.0 " fill="url(#gradSh5.5)"></path></g></g></g></g><g><clipPath id="clip0x608001aac9c0"><path d="M -0.5 1080.3 L -0.5 487.6 C -0.4 487.6 -0.3 487.6 -0.3 487.6 L -0.3 487.6 C 327.7 487.6 593.8 752.7 595.5 1080.3 L 595.5 1080.3 Z M -0.5 1080.3 "></path></clipPath><g clip-path="url(#clip0x608001aac9c0)"><g><clipPath id="clip0x608001aacb40"><path d="M -596.0 -727.0 L 2500.0 -727.0 L 2500.0 1836.0 L -596.0 1836.0 Z M -596.0 -727.0 "></path></clipPath><g clip-path="url(#clip0x608001aacb40)"><path d="M -596.0 -727.0 L 2500.0 -727.0 L 2500.0 1836.0 L -596.0 1836.0 Z M -596.0 -727.0 " fill="url(#gradSh6.6)"></path></g></g></g></g><text xml:space="preserve" font-family="BentonSans-ExtraLight,BentonSans" font-size="116.0" fill="#F0EAF7" transform="matrix(1.00, 0.00, -0.00, -1.00, 280.5, 567.4)">M</text><text xml:space="preserve" font-family="BentonSans-ExtraLight,BentonSans" font-size="116.0" fill="#F0EAF7" transform="matrix(1.00, 0.00, -0.00, -1.00, 380.3, 567.4)">æ</text><text xml:space="preserve" font-family="BentonSans-ExtraLight,BentonSans" font-size="116.0" fill="#F0EAF7" transform="matrix(1.00, 0.00, -0.00, -1.00, 484.4, 567.4)">l</text><text xml:space="preserve" font-family="BentonSans-ExtraLight,BentonSans" font-size="116.0" fill="#F0EAF7" transform="matrix(1.00, 0.00, -0.00, -1.00, 509.6, 567.4)">i</text><text xml:space="preserve" font-family="BentonSans-ExtraLight,BentonSans" font-size="116.0" fill="#F0EAF7" transform="matrix(1.00, 0.00, -0.00, -1.00, 534.7, 567.4)">n</text><text xml:space="preserve" font-family="BentonSans-ExtraLight,BentonSans" font-size="116.0" fill="#F0EAF7" transform="matrix(1.00, 0.00, -0.00, -1.00, 600.7, 567.4)">g</text><text xml:space="preserve" font-family="BentonSans-ExtraLight,BentonSans" font-size="116.0" fill="#F0EAF7" transform="matrix(1.00, 0.00, -0.00, -1.00, 665.4, 567.4)">a</text><text xml:space="preserve" font-family="BentonSans-ExtraLight,BentonSans" font-size="116.0" fill="#F0EAF7" transform="matrix(1.00, 0.00, -0.00, -1.00, 727.4, 567.4)">r</text><text xml:space="preserve" font-family="BentonSans-ExtraLight,BentonSans" font-size="116.0" fill="#F0EAF7" transform="matrix(1.00, 0.00, -0.00, -1.00, 772.4, 567.4)"> </text><text xml:space="preserve" font-family="BentonSans-ExtraLight,BentonSans" font-size="116.0" fill="#F0EAF7" transform="matrix(1.00, 0.00, -0.00, -1.00, 797.3, 567.4)">a</text><text xml:space="preserve" font-family="BentonSans-ExtraLight,BentonSans" font-size="116.0" fill="#F0EAF7" transform="matrix(1.00, 0.00, -0.00, -1.00, 859.3, 567.4)">u</text><text xml:space="preserve" font-family="BentonSans-ExtraLight,BentonSans" font-size="116.0" fill="#F0EAF7" transform="matrix(1.00, 0.00, -0.00, -1.00, 925.3, 567.4)">ð</text><text xml:space="preserve" font-family="BentonSans-ExtraLight,BentonSans" font-size="116.0" fill="#F0EAF7" transform="matrix(1.00, 0.00, -0.00, -1.00, 991.2, 567.4)">v</text><text xml:space="preserve" font-family="BentonSans-ExtraLight,BentonSans" font-size="116.0" fill="#F0EAF7" transform="matrix(1.00, 0.00, -0.00, -1.00, 1049.4, 567.4)">e</text><text xml:space="preserve" font-family="BentonSans-ExtraLight,BentonSans" font-size="116.0" fill="#F0EAF7" transform="matrix(1.00, 0.00, -0.00, -1.00, 1111.7, 567.4)">l</text><text xml:space="preserve" font-family="BentonSans-ExtraLight,BentonSans" font-size="116.0" fill="#F0EAF7" transform="matrix(1.00, 0.00, -0.00, -1.00, 1136.9, 567.4)">d</text><text xml:space="preserve" font-family="BentonSans-ExtraLight,BentonSans" font-size="116.0" fill="#F0EAF7" transform="matrix(1.00, 0.00, -0.00, -1.00, 1204.4, 567.4)">a</text><text xml:space="preserve" font-family="BentonSans-ExtraLight,BentonSans" font-size="116.0" fill="#F0EAF7" transform="matrix(1.00, 0.00, -0.00, -1.00, 1266.5, 567.4)"> </text><text xml:space="preserve" font-family="BentonSans-ExtraLight,BentonSans" font-size="116.0" fill="#F0EAF7" transform="matrix(1.00, 0.00, -0.00, -1.00, 1291.3, 567.4)">þ</text><text xml:space="preserve" font-family="BentonSans-ExtraLight,BentonSans" font-size="116.0" fill="#F0EAF7" transform="matrix(1.00, 0.00, -0.00, -1.00, 1358.8, 567.4)">a</text><text xml:space="preserve" font-family="BentonSans-ExtraLight,BentonSans" font-size="116.0" fill="#F0EAF7" transform="matrix(1.00, 0.00, -0.00, -1.00, 1420.9, 567.4)">ð</text><text xml:space="preserve" font-family="BentonSans-ExtraLight,BentonSans" font-size="116.0" fill="#F0EAF7" transform="matrix(1.00, 0.00, -0.00, -1.00, 1486.8, 567.4)"> </text><text xml:space="preserve" font-family="BentonSans-ExtraLight,BentonSans" font-size="116.0" fill="#F0EAF7" transform="matrix(1.00, 0.00, -0.00, -1.00, 1511.6, 567.4)">a</text><text xml:space="preserve" font-family="BentonSans-ExtraLight,BentonSans" font-size="116.0" fill="#F0EAF7" transform="matrix(1.00, 0.00, -0.00, -1.00, 1573.6, 567.4)">ð</text><text xml:space="preserve" font-family="BentonSans-ExtraLight,BentonSans" font-size="116.0" fill="#F0EAF7" transform="matrix(1.00, 0.00, -0.00, -1.00, 1639.5, 567.4)"> </text><text xml:space="preserve" font-family="BentonSans-ExtraLight,BentonSans" font-size="116.0" fill="#F0EAF7" transform="matrix(1.00, 0.00, -0.00, -1.00, 559.9, 450.4)">l</text><text xml:space="preserve" font-family="BentonSans-ExtraLight,BentonSans" font-size="116.0" fill="#F0EAF7" transform="matrix(1.00, 0.00, -0.00, -1.00, 585.1, 450.4)">e</text><text xml:space="preserve" font-family="BentonSans-ExtraLight,BentonSans" font-size="116.0" fill="#F0EAF7" transform="matrix(1.00, 0.00, -0.00, -1.00, 647.4, 450.4)">y</text><text xml:space="preserve" font-family="BentonSans-ExtraLight,BentonSans" font-size="116.0" fill="#F0EAF7" transform="matrix(1.00, 0.00, -0.00, -1.00, 706.7, 450.4)">s</text><text xml:space="preserve" font-family="BentonSans-ExtraLight,BentonSans" font-size="116.0" fill="#F0EAF7" transform="matrix(1.00, 0.00, -0.00, -1.00, 764.7, 450.4)">a</text><text xml:space="preserve" font-family="BentonSans-ExtraLight,BentonSans" font-size="116.0" fill="#F0EAF7" transform="matrix(1.00, 0.00, -0.00, -1.00, 826.7, 450.4)"> </text><text xml:space="preserve" font-family="BentonSans-ExtraLight,BentonSans" font-size="116.0" fill="#F0EAF7" transform="matrix(1.00, 0.00, -0.00, -1.00, 851.5, 450.4)">v</text><text xml:space="preserve" font-family="BentonSans-ExtraLight,BentonSans" font-size="116.0" fill="#F0EAF7" transform="matrix(1.00, 0.00, -0.00, -1.00, 909.8, 450.4)">a</text><text xml:space="preserve" font-family="BentonSans-ExtraLight,BentonSans" font-size="116.0" fill="#F0EAF7" transform="matrix(1.00, 0.00, -0.00, -1.00, 971.8, 450.4)">n</text><text xml:space="preserve" font-family="BentonSans-ExtraLight,BentonSans" font-size="116.0" fill="#F0EAF7" transform="matrix(1.00, 0.00, -0.00, -1.00, 1037.8, 450.4)">d</text><text xml:space="preserve" font-family="BentonSans-ExtraLight,BentonSans" font-size="116.0" fill="#F0EAF7" transform="matrix(1.00, 0.00, -0.00, -1.00, 1105.3, 450.4)">a</text><text xml:space="preserve" font-family="BentonSans-ExtraLight,BentonSans" font-size="116.0" fill="#F0EAF7" transform="matrix(1.00, 0.00, -0.00, -1.00, 1167.4, 450.4)">m</text><text xml:space="preserve" font-family="BentonSans-ExtraLight,BentonSans" font-size="116.0" fill="#F0EAF7" transform="matrix(1.00, 0.00, -0.00, -1.00, 1272.9, 450.4)">á</text><text xml:space="preserve" font-family="BentonSans-ExtraLight,BentonSans" font-size="116.0" fill="#F0EAF7" transform="matrix(1.00, 0.00, -0.00, -1.00, 1334.9, 450.4)">l</text></g></svg>