<?xml version="1.0" encoding="UTF-8" standalone="no"?><svg xmlns="http://www.w3.org/2000/svg" xmlns:xlink="http://www.w3.org/1999/xlink" clip-rule="evenodd" stroke-miterlimit="10" viewBox="0 0 1920 1080"><desc>SVG generated by Keynote</desc><defs></defs><g transform="matrix(1.00, 0.00, -0.00, -1.00, 0.0, 1080.0)"><path d="M 0.0 1080.0 L 1920.0 1080.0 L 1920.0 0.0 L 0.0 0.0 Z M 0.0 1080.0 " fill="#35234F"></path><text xml:space="preserve" font-family="BentonSans-ExtraLight,BentonSans" font-size="116.0" fill="#F0EAF7" transform="matrix(1.00, 0.00, -0.00, -1.00, 241.4, 567.4)">F</text><text xml:space="preserve" font-family="BentonSans-ExtraLight,BentonSans" font-size="116.0" fill="#F0EAF7" transform="matrix(1.00, 0.00, -0.00, -1.00, 306.3, 567.4)">l</text><text xml:space="preserve" font-family="BentonSans-ExtraLight,BentonSans" font-size="116.0" fill="#F0EAF7" transform="matrix(1.00, 0.00, -0.00, -1.00, 331.5, 567.4)">e</text><text xml:space="preserve" font-family="BentonSans-ExtraLight,BentonSans" font-size="116.0" fill="#F0EAF7" transform="matrix(1.00, 0.00, -0.00, -1.00, 393.8, 567.4)">s</text><text xml:space="preserve" font-family="BentonSans-ExtraLight,BentonSans" font-size="116.0" fill="#F0EAF7" transform="matrix(1.00, 0.00, -0.00, -1.00, 451.8, 567.4)">t</text><text xml:space="preserve" font-family="BentonSans-ExtraLight,BentonSans" font-size="116.0" fill="#F0EAF7" transform="matrix(1.00, 0.00, -0.00, -1.00, 492.4, 567.4)"> </text><text xml:space="preserve" font-family="BentonSans-ExtraLight,BentonSans" font-size="116.0" fill="#F0EAF7" transform="matrix(1.00, 0.00, -0.00, -1.00, 517.2, 567.4)">s</text><text xml:space="preserve" font-family="BentonSans-ExtraLight,BentonSans" font-size="116.0" fill="#F0EAF7" transform="matrix(1.00, 0.00, -0.00, -1.00, 575.2, 567.4)">t</text><text xml:space="preserve" font-family="BentonSans-ExtraLight,BentonSans" font-size="116.0" fill="#F0EAF7" transform="matrix(1.00, 0.00, -0.00, -1.00, 615.8, 567.4)">ó</text><text xml:space="preserve" font-family="BentonSans-ExtraLight,BentonSans" font-size="116.0" fill="#F0EAF7" transform="matrix(1.00, 0.00, -0.00, -1.00, 681.8, 567.4)">r</text><text xml:space="preserve" font-family="BentonSans-ExtraLight,BentonSans" font-size="116.0" fill="#F0EAF7" transform="matrix(1.00, 0.00, -0.00, -1.00, 726.8, 567.4)"> </text><text xml:space="preserve" font-family="BentonSans-ExtraLight,BentonSans" font-size="116.0" fill="#F0EAF7" transform="matrix(1.00, 0.00, -0.00, -1.00, 751.7, 567.4)">v</text><text xml:space="preserve" font-family="BentonSans-ExtraLight,BentonSans" font-size="116.0" fill="#F0EAF7" transform="matrix(1.00, 0.00, -0.00, -1.00, 809.9, 567.4)">a</text><text xml:space="preserve" font-family="BentonSans-ExtraLight,BentonSans" font-size="116.0" fill="#F0EAF7" transform="matrix(1.00, 0.00, -0.00, -1.00, 872.0, 567.4)">n</text><text xml:space="preserve" font-family="BentonSans-ExtraLight,BentonSans" font-size="116.0" fill="#F0EAF7" transform="matrix(1.00, 0.00, -0.00, -1.00, 938.0, 567.4)">d</text><text xml:space="preserve" font-family="BentonSans-ExtraLight,BentonSans" font-size="116.0" fill="#F0EAF7" transform="matrix(1.00, 0.00, -0.00, -1.00, 1005.5, 567.4)">a</text><text xml:space="preserve" font-family="BentonSans-ExtraLight,BentonSans" font-size="116.0" fill="#F0EAF7" transform="matrix(1.00, 0.00, -0.00, -1.00, 1067.5, 567.4)">m</text><text xml:space="preserve" font-family="BentonSans-ExtraLight,BentonSans" font-size="116.0" fill="#F0EAF7" transform="matrix(1.00, 0.00, -0.00, -1.00, 1173.0, 567.4)">á</text><text xml:space="preserve" font-family="BentonSans-ExtraLight,BentonSans" font-size="116.0" fill="#F0EAF7" transform="matrix(1.00, 0.00, -0.00, -1.00, 1235.0, 567.4)">l</text><text xml:space="preserve" font-family="BentonSans-ExtraLight,BentonSans" font-size="116.0" fill="#F0EAF7" transform="matrix(1.00, 0.00, -0.00, -1.00, 1260.2, 567.4)"> </text><text xml:space="preserve" font-family="BentonSans-ExtraLight,BentonSans" font-size="116.0" fill="#F0EAF7" transform="matrix(1.00, 0.00, -0.00, -1.00, 1285.0, 567.4)">e</text><text xml:space="preserve" font-family="BentonSans-ExtraLight,BentonSans" font-size="116.0" fill="#F0EAF7" transform="matrix(1.00, 0.00, -0.00, -1.00, 1347.3, 567.4)">r</text><text xml:space="preserve" font-family="BentonSans-ExtraLight,BentonSans" font-size="116.0" fill="#F0EAF7" transform="matrix(1.00, 0.00, -0.00, -1.00, 1392.3, 567.4)">u</text><text xml:space="preserve" font-family="BentonSans-ExtraLight,BentonSans" font-size="116.0" fill="#F0EAF7" transform="matrix(1.00, 0.00, -0.00, -1.00, 1458.3, 567.4)"> </text><text xml:space="preserve" font-family="BentonSans-ExtraLight,BentonSans" font-size="116.0" fill="#F0EAF7" transform="matrix(1.00, 0.00, -0.00, -1.00, 1483.2, 567.4)">þ</text><text xml:space="preserve" font-family="BentonSans-ExtraLight,BentonSans" font-size="116.0" fill="#F0EAF7" transform="matrix(1.00, 0.00, -0.00, -1.00, 1550.7, 567.4)">a</text><text xml:space="preserve" font-family="BentonSans-ExtraLight,BentonSans" font-size="116.0" fill="#F0EAF7" transform="matrix(1.00, 0.00, -0.00, -1.00, 1612.7, 567.4)">ð</text><text xml:space="preserve" font-family="BentonSans-ExtraLight,BentonSans" font-size="116.0" fill="#F0EAF7" transform="matrix(1.00, 0.00, -0.00, -1.00, 1678.6, 567.4)"> </text><text xml:space="preserve" font-family="BentonSans-ExtraLight,BentonSans" font-size="116.0" fill="#F0EAF7" transform="matrix(1.00, 0.00, -0.00, -1.00, 856.5, 450.4)">e</text><text xml:space="preserve" font-family="BentonSans-ExtraLight,BentonSans" font-size="116.0" fill="#F0EAF7" transform="matrix(1.00, 0.00, -0.00, -1.00, 918.8, 450.4)">k</text><text xml:space="preserve" font-family="BentonSans-ExtraLight,BentonSans" font-size="116.0" fill="#F0EAF7" transform="matrix(1.00, 0.00, -0.00, -1.00, 978.6, 450.4)">k</text><text xml:space="preserve" font-family="BentonSans-ExtraLight,BentonSans" font-size="116.0" fill="#F0EAF7" transform="matrix(1.00, 0.00, -0.00, -1.00, 1038.3, 450.4)">i</text></g></svg>