<?xml version="1.0" encoding="UTF-8" standalone="no"?><svg xmlns="http://www.w3.org/2000/svg" xmlns:xlink="http://www.w3.org/1999/xlink" clip-rule="evenodd" stroke-miterlimit="10" viewBox="0 0 1920 1080"><desc>SVG generated by Keynote</desc><defs><radialGradient id="gradSh1.23" cx="0.0" cy="0.0" r="1.0" fx="0.0" fy="0.0" gradientUnits="userSpaceOnUse" gradientTransform="matrix(230.63, 0.00, 0.00, -181.91, 876.8, 709.7)"><stop offset="0.00000" stop-color="#FFFFFF"></stop><stop offset="0.00220" stop-color="#FEFEFE"></stop><stop offset="1.00000" stop-color="#000000"></stop></radialGradient></defs><g transform="matrix(1.00, 0.00, -0.00, -1.00, 0.0, 1080.0)"><path d="M 0.0 1080.0 L 1920.0 1080.0 L 1920.0 0.0 L 0.0 0.0 Z M 0.0 1080.0 " fill="#35234F"></path><g><clipPath id="clip0x6080022b9440"><path d="M 640.0 1014.0 L 1280.0 1014.0 L 1280.0 484.0 L 640.0 484.0 Z M 640.0 1014.0 "></path></clipPath><g clip-path="url(#clip0x6080022b9440)"><g><clipPath id="clip0x608002aa5460"><path d="M 640.0 1010.0 L 1280.0 1010.0 L 1280.0 478.0 L 640.0 478.0 Z M 640.0 1010.0 "></path></clipPath><g clip-path="url(#clip0x608002aa5460)"><g><clipPath id="clip0x608002aa5640"><path d="M 640.0 478.0 L 1280.0 478.0 L 1280.0 1010.0 L 640.0 1010.0 Z M 640.0 478.0 "></path></clipPath><g clip-path="url(#clip0x608002aa5640)"><path d="M 1221.3 506.1 C 1221.3 494.0 1211.4 484.0 1199.2 484.0 L 718.9 484.0 C 706.7 484.0 696.7 494.0 696.7 506.1 L 696.7 856.1 C 696.7 868.3 706.7 878.3 718.9 878.3 L 1199.2 878.3 C 1211.4 878.3 1221.3 868.3 1221.3 856.1 Z M 1221.3 506.1 " fill="#9E97AF"></path><path d="M 0.0 0.0 L -406.9 107.3 " fill="none" stroke="#9E97AF" stroke-width="9.09" transform="matrix(1.03, 0.00, 0.00, 1.03, 1213.4, 889.0)"></path><path d="M 797.5 1009.6 C 791.9 1011.1 786.1 1007.8 784.6 1002.1 C 783.1 996.5 786.5 990.7 792.2 989.2 C 797.8 987.7 803.6 991.1 805.1 996.7 C 806.5 1002.4 803.2 1008.2 797.5 1009.6 " fill="#9E97AF"></path><path d="M 0.0 0.0 L -215.8 56.9 " fill="none" stroke="#9E97AF" stroke-width="13.64" transform="matrix(1.03, 0.00, 0.00, 1.03, 1213.4, 889.0)"></path><path d="M 1115.3 548.6 C 1115.3 533.3 1102.8 520.7 1087.4 520.7 L 667.9 520.7 C 652.6 520.7 640.0 533.3 640.0 548.6 L 640.0 871.1 C 640.0 886.5 652.6 899.1 667.9 899.1 L 1087.4 899.1 C 1102.8 899.1 1115.3 886.5 1115.3 871.1 Z M 1115.3 548.6 " fill="#EBEBEF"></path><path d="M 1093.2 551.5 C 1093.2 546.4 1089.0 542.1 1083.8 542.1 L 671.1 542.1 C 666.0 542.1 661.8 546.4 661.8 551.5 L 661.8 868.9 C 661.8 874.1 666.0 878.3 671.1 878.3 L 1083.8 878.3 C 1089.0 878.3 1093.2 874.1 1093.2 868.9 Z M 1093.2 551.5 " fill="#C4C0CF"></path></g></g></g></g></g></g><g><clipPath id="clip0x608002aa5b80"><path d="M 640.0 1014.0 L 1280.0 1014.0 L 1280.0 484.0 L 640.0 484.0 Z M 640.0 1014.0 "></path></clipPath><g clip-path="url(#clip0x608002aa5b80)"><g><clipPath id="clip0x608002aa5d00"><path d="M 705.1 831.5 C 685.3 811.7 685.3 607.7 705.1 588.0 L 705.1 588.0 C 724.8 568.2 827.6 558.6 880.4 558.6 L 880.4 558.6 C 933.2 558.6 1028.7 568.2 1048.5 588.0 L 1048.5 588.0 C 1068.3 607.7 1068.3 811.7 1048.5 831.5 L 1048.5 831.5 C 1028.7 851.3 931.1 860.9 878.3 860.9 L 878.3 860.9 C 825.5 860.9 724.8 851.3 705.1 831.5 "></path></clipPath><g clip-path="url(#clip0x608002aa5d00)"><g><clipPath id="clip0x608002aa5e80"><path d="M 640.0 478.0 L 1280.0 478.0 L 1280.0 1010.0 L 640.0 1010.0 Z M 640.0 478.0 "></path></clipPath><g clip-path="url(#clip0x608002aa5e80)"><image xlink:href="../../91019104-AAAB-487C-A157-1D6628A10945/assets/F45F5A0166B33A05B95AC943B7F05020.png" width="447.00" height="480.00" transform="matrix(0.87, 0.00, -0.00, -0.87, 688.1, 897.4)"></image></g></g></g></g></g></g><g><clipPath id="clip0x6000022bb5a0"><path d="M 640.0 1014.0 L 1280.0 1014.0 L 1280.0 484.0 L 640.0 484.0 Z M 640.0 1014.0 "></path></clipPath><g clip-path="url(#clip0x6000022bb5a0)"><g><clipPath id="clip0x6000022bb720"><path d="M 705.1 831.5 C 685.3 811.7 685.3 607.7 705.1 588.0 L 705.1 588.0 C 724.8 568.2 827.6 558.6 880.4 558.6 L 880.4 558.6 C 933.2 558.6 1028.7 568.2 1048.5 588.0 L 1048.5 588.0 C 1068.3 607.7 1068.3 811.7 1048.5 831.5 L 1048.5 831.5 C 1028.7 851.3 931.1 860.9 878.3 860.9 L 878.3 860.9 C 825.5 860.9 724.8 851.3 705.1 831.5 "></path></clipPath><g clip-path="url(#clip0x6000022bb720)"><g><clipPath id="clip0x6000022bb8a0"><path d="M 640.0 478.0 L 1280.0 478.0 L 1280.0 1010.0 L 640.0 1010.0 Z M 640.0 478.0 "></path></clipPath><g clip-path="url(#clip0x6000022bb8a0)"><path d="M 640.0 478.0 L 1280.0 478.0 L 1280.0 1010.0 L 640.0 1010.0 Z M 640.0 478.0 " fill="url(#gradSh1.23)"></path></g></g></g></g></g></g><g><clipPath id="clip0x6000024bc260"><path d="M 640.0 1014.0 L 1280.0 1014.0 L 1280.0 484.0 L 640.0 484.0 Z M 640.0 1014.0 "></path></clipPath><g clip-path="url(#clip0x6000024bc260)"><g><clipPath id="clip0x6000024bc3e0"><path d="M 640.0 1010.0 L 1280.0 1010.0 L 1280.0 478.0 L 640.0 478.0 Z M 640.0 1010.0 "></path></clipPath><g clip-path="url(#clip0x6000024bc3e0)"><g><clipPath id="clip0x6000024bc560"><path d="M 640.0 478.0 L 1280.0 478.0 L 1280.0 1010.0 L 640.0 1010.0 Z M 640.0 478.0 "></path></clipPath><g clip-path="url(#clip0x6000024bc560)"><g opacity="0.10"><g><clipPath id="clip0x6000024bc740"><path d="M 690.2 558.6 L 1063.3 558.6 L 1063.3 860.9 L 690.2 860.9 Z M 690.2 558.6 "></path></clipPath><g clip-path="url(#clip0x6000024bc740)"><path d="M 880.4 558.6 C 933.2 558.6 1028.7 568.2 1048.5 588.0 C 1068.3 607.7 1068.3 811.7 1048.5 831.5 C 1028.7 851.3 931.1 860.9 878.3 860.9 C 825.5 860.9 724.8 851.3 705.1 831.5 C 685.3 811.7 685.3 607.7 705.1 588.0 C 724.8 568.2 827.6 558.6 880.4 558.6 " fill="#1B1B23"></path></g></g></g><path d="M 1280.0 548.6 C 1280.0 533.3 1267.4 520.7 1252.1 520.7 L 1158.0 520.7 C 1142.7 520.7 1130.1 533.3 1130.1 548.6 L 1130.1 871.1 C 1130.1 886.5 1142.7 899.1 1158.0 899.1 L 1252.1 899.1 C 1267.4 899.1 1280.0 886.5 1280.0 871.1 Z M 1280.0 548.6 " fill="#EBEBEF"></path><path d="M 1259.1 553.7 C 1259.1 548.5 1254.9 544.3 1249.7 544.3 L 1160.5 544.3 C 1155.3 544.3 1151.1 548.5 1151.1 553.7 L 1151.1 871.1 C 1151.1 876.2 1155.3 880.4 1160.5 880.4 L 1249.7 880.4 C 1254.9 880.4 1259.1 876.2 1259.1 871.1 Z M 1259.1 553.7 " fill="#B0ACBE"></path><path d="M 1214.5 797.7 C 1214.5 783.3 1202.8 771.6 1188.4 771.6 C 1174.0 771.6 1162.3 783.3 1162.3 797.7 C 1162.3 812.2 1174.0 823.9 1188.4 823.9 C 1202.8 823.9 1214.5 812.2 1214.5 797.7 " fill="#9E97AF"></path><path d="M 1214.5 701.7 C 1214.5 687.3 1202.8 675.6 1188.4 675.6 C 1174.0 675.6 1162.3 687.3 1162.3 701.7 C 1162.3 716.2 1174.0 727.9 1188.4 727.9 C 1202.8 727.9 1214.5 716.2 1214.5 701.7 " fill="#9E97AF"></path><path d="M 1248.0 805.2 C 1248.0 799.0 1243.0 794.0 1236.8 794.0 C 1230.6 794.0 1225.6 799.0 1225.6 805.2 C 1225.6 811.4 1230.6 816.4 1236.8 816.4 C 1243.0 816.4 1248.0 811.4 1248.0 805.2 " fill="#9E97AF"></path><path d="M 1248.0 749.7 C 1248.0 743.5 1243.0 738.5 1236.8 738.5 C 1230.6 738.5 1225.6 743.5 1225.6 749.7 C 1225.6 755.9 1230.6 760.9 1236.8 760.9 C 1243.0 760.9 1248.0 755.9 1248.0 749.7 " fill="#9E97AF"></path><path d="M 1248.0 694.2 C 1248.0 688.1 1243.0 683.0 1236.8 683.0 C 1230.6 683.0 1225.6 688.1 1225.6 694.2 C 1225.6 700.4 1230.6 705.4 1236.8 705.4 C 1243.0 705.4 1248.0 700.4 1248.0 694.2 " fill="#9E97AF"></path><path d="M 1159.9 871.8 C 1159.9 870.8 1159.1 870.0 1158.1 870.0 C 1157.1 870.0 1156.3 870.8 1156.3 871.8 C 1156.3 872.8 1157.1 873.6 1158.1 873.6 C 1159.1 873.6 1159.9 872.8 1159.9 871.8 " fill="#776E90"></path><path d="M 1171.6 871.8 C 1171.6 870.8 1170.8 870.0 1169.8 870.0 C 1168.8 870.0 1168.0 870.8 1168.0 871.8 C 1168.0 872.8 1168.8 873.6 1169.8 873.6 C 1170.8 873.6 1171.6 872.8 1171.6 871.8 " fill="#776E90"></path><path d="M 1183.3 871.8 C 1183.3 870.8 1182.5 870.0 1181.5 870.0 C 1180.5 870.0 1179.7 870.8 1179.7 871.8 C 1179.7 872.8 1180.5 873.6 1181.5 873.6 C 1182.5 873.6 1183.3 872.8 1183.3 871.8 " fill="#776E90"></path><path d="M 1195.0 871.8 C 1195.0 870.8 1194.2 870.0 1193.2 870.0 C 1192.2 870.0 1191.4 870.8 1191.4 871.8 C 1191.4 872.8 1192.2 873.6 1193.2 873.6 C 1194.2 873.6 1195.0 872.8 1195.0 871.8 " fill="#776E90"></path><path d="M 1206.7 871.8 C 1206.7 870.8 1205.9 870.0 1204.9 870.0 C 1203.9 870.0 1203.1 870.8 1203.1 871.8 C 1203.1 872.8 1203.9 873.6 1204.9 873.6 C 1205.9 873.6 1206.7 872.8 1206.7 871.8 " fill="#776E90"></path><path d="M 1218.4 871.8 C 1218.4 870.8 1217.6 870.0 1216.6 870.0 C 1215.6 870.0 1214.8 870.8 1214.8 871.8 C 1214.8 872.8 1215.6 873.6 1216.6 873.6 C 1217.6 873.6 1218.4 872.8 1218.4 871.8 " fill="#776E90"></path><path d="M 1230.1 871.8 C 1230.1 870.8 1229.3 870.0 1228.3 870.0 C 1227.4 870.0 1226.6 870.8 1226.6 871.8 C 1226.6 872.8 1227.4 873.6 1228.3 873.6 C 1229.3 873.6 1230.1 872.8 1230.1 871.8 " fill="#776E90"></path><path d="M 1241.9 871.8 C 1241.9 870.8 1241.0 870.0 1240.1 870.0 C 1239.1 870.0 1238.3 870.8 1238.3 871.8 C 1238.3 872.8 1239.1 873.6 1240.1 873.6 C 1241.0 873.6 1241.9 872.8 1241.9 871.8 " fill="#776E90"></path><path d="M 1253.6 871.8 C 1253.6 870.8 1252.8 870.0 1251.8 870.0 C 1250.8 870.0 1250.0 870.8 1250.0 871.8 C 1250.0 872.8 1250.8 873.6 1251.8 873.6 C 1252.8 873.6 1253.6 872.8 1253.6 871.8 " fill="#776E90"></path><path d="M 1159.9 860.8 C 1159.9 859.8 1159.1 859.0 1158.1 859.0 C 1157.1 859.0 1156.3 859.8 1156.3 860.8 C 1156.3 861.8 1157.1 862.6 1158.1 862.6 C 1159.1 862.6 1159.9 861.8 1159.9 860.8 " fill="#776E90"></path><path d="M 1171.6 860.8 C 1171.6 859.8 1170.8 859.0 1169.8 859.0 C 1168.8 859.0 1168.0 859.8 1168.0 860.8 C 1168.0 861.8 1168.8 862.6 1169.8 862.6 C 1170.8 862.6 1171.6 861.8 1171.6 860.8 " fill="#776E90"></path><path d="M 1183.3 860.8 C 1183.3 859.8 1182.5 859.0 1181.5 859.0 C 1180.5 859.0 1179.7 859.8 1179.7 860.8 C 1179.7 861.8 1180.5 862.6 1181.5 862.6 C 1182.5 862.6 1183.3 861.8 1183.3 860.8 " fill="#776E90"></path><path d="M 1195.0 860.8 C 1195.0 859.8 1194.2 859.0 1193.2 859.0 C 1192.2 859.0 1191.4 859.8 1191.4 860.8 C 1191.4 861.8 1192.2 862.6 1193.2 862.6 C 1194.2 862.6 1195.0 861.8 1195.0 860.8 " fill="#776E90"></path><path d="M 1206.7 860.8 C 1206.7 859.8 1205.9 859.0 1204.9 859.0 C 1203.9 859.0 1203.1 859.8 1203.1 860.8 C 1203.1 861.8 1203.9 862.6 1204.9 862.6 C 1205.9 862.6 1206.7 861.8 1206.7 860.8 " fill="#776E90"></path><path d="M 1218.4 860.8 C 1218.4 859.8 1217.6 859.0 1216.6 859.0 C 1215.6 859.0 1214.8 859.8 1214.8 860.8 C 1214.8 861.8 1215.6 862.6 1216.6 862.6 C 1217.6 862.6 1218.4 861.8 1218.4 860.8 " fill="#776E90"></path><path d="M 1230.1 860.8 C 1230.1 859.8 1229.3 859.0 1228.3 859.0 C 1227.4 859.0 1226.6 859.8 1226.6 860.8 C 1226.6 861.8 1227.4 862.6 1228.3 862.6 C 1229.3 862.6 1230.1 861.8 1230.1 860.8 " fill="#776E90"></path><path d="M 1241.9 860.8 C 1241.9 859.8 1241.0 859.0 1240.1 859.0 C 1239.1 859.0 1238.3 859.8 1238.3 860.8 C 1238.3 861.8 1239.1 862.6 1240.1 862.6 C 1241.0 862.6 1241.9 861.8 1241.9 860.8 " fill="#776E90"></path><path d="M 1253.6 860.8 C 1253.6 859.8 1252.8 859.0 1251.8 859.0 C 1250.8 859.0 1250.0 859.8 1250.0 860.8 C 1250.0 861.8 1250.8 862.6 1251.8 862.6 C 1252.8 862.6 1253.6 861.8 1253.6 860.8 " fill="#776E90"></path><path d="M 1159.9 849.8 C 1159.9 848.8 1159.1 848.0 1158.1 848.0 C 1157.1 848.0 1156.3 848.8 1156.3 849.8 C 1156.3 850.8 1157.1 851.6 1158.1 851.6 C 1159.1 851.6 1159.9 850.8 1159.9 849.8 " fill="#776E90"></path><path d="M 1171.6 849.8 C 1171.6 848.8 1170.8 848.0 1169.8 848.0 C 1168.8 848.0 1168.0 848.8 1168.0 849.8 C 1168.0 850.8 1168.8 851.6 1169.8 851.6 C 1170.8 851.6 1171.6 850.8 1171.6 849.8 " fill="#776E90"></path><path d="M 1183.3 849.8 C 1183.3 848.8 1182.5 848.0 1181.5 848.0 C 1180.5 848.0 1179.7 848.8 1179.7 849.8 C 1179.7 850.8 1180.5 851.6 1181.5 851.6 C 1182.5 851.6 1183.3 850.8 1183.3 849.8 " fill="#776E90"></path><path d="M 1195.0 849.8 C 1195.0 848.8 1194.2 848.0 1193.2 848.0 C 1192.2 848.0 1191.4 848.8 1191.4 849.8 C 1191.4 850.8 1192.2 851.6 1193.2 851.6 C 1194.2 851.6 1195.0 850.8 1195.0 849.8 " fill="#776E90"></path><path d="M 1206.7 849.8 C 1206.7 848.8 1205.9 848.0 1204.9 848.0 C 1203.9 848.0 1203.1 848.8 1203.1 849.8 C 1203.1 850.8 1203.9 851.6 1204.9 851.6 C 1205.9 851.6 1206.7 850.8 1206.7 849.8 " fill="#776E90"></path><path d="M 1218.4 849.8 C 1218.4 848.8 1217.6 848.0 1216.6 848.0 C 1215.6 848.0 1214.8 848.8 1214.8 849.8 C 1214.8 850.8 1215.6 851.6 1216.6 851.6 C 1217.6 851.6 1218.4 850.8 1218.4 849.8 " fill="#776E90"></path><path d="M 1230.1 849.8 C 1230.1 848.8 1229.3 848.0 1228.3 848.0 C 1227.4 848.0 1226.6 848.8 1226.6 849.8 C 1226.6 850.8 1227.4 851.6 1228.3 851.6 C 1229.3 851.6 1230.1 850.8 1230.1 849.8 " fill="#776E90"></path><path d="M 1241.9 849.8 C 1241.9 848.8 1241.0 848.0 1240.1 848.0 C 1239.1 848.0 1238.3 848.8 1238.3 849.8 C 1238.3 850.8 1239.1 851.6 1240.1 851.6 C 1241.0 851.6 1241.9 850.8 1241.9 849.8 " fill="#776E90"></path><path d="M 1253.6 849.8 C 1253.6 848.8 1252.8 848.0 1251.8 848.0 C 1250.8 848.0 1250.0 848.8 1250.0 849.8 C 1250.0 850.8 1250.8 851.6 1251.8 851.6 C 1252.8 851.6 1253.6 850.8 1253.6 849.8 " fill="#776E90"></path><path d="M 1165.9 866.3 C 1165.9 865.3 1165.1 864.5 1164.1 864.5 C 1163.1 864.5 1162.3 865.3 1162.3 866.3 C 1162.3 867.3 1163.1 868.1 1164.1 868.1 C 1165.1 868.1 1165.9 867.3 1165.9 866.3 " fill="#776E90"></path><path d="M 1177.6 866.3 C 1177.6 865.3 1176.8 864.5 1175.8 864.5 C 1174.8 864.5 1174.0 865.3 1174.0 866.3 C 1174.0 867.3 1174.8 868.1 1175.8 868.1 C 1176.8 868.1 1177.6 867.3 1177.6 866.3 " fill="#776E90"></path><path d="M 1189.3 866.3 C 1189.3 865.3 1188.5 864.5 1187.5 864.5 C 1186.5 864.5 1185.7 865.3 1185.7 866.3 C 1185.7 867.3 1186.5 868.1 1187.5 868.1 C 1188.5 868.1 1189.3 867.3 1189.3 866.3 " fill="#776E90"></path><path d="M 1201.0 866.3 C 1201.0 865.3 1200.2 864.5 1199.2 864.5 C 1198.2 864.5 1197.4 865.3 1197.4 866.3 C 1197.4 867.3 1198.2 868.1 1199.2 868.1 C 1200.2 868.1 1201.0 867.3 1201.0 866.3 " fill="#776E90"></path><path d="M 1212.7 866.3 C 1212.7 865.3 1211.9 864.5 1210.9 864.5 C 1209.9 864.5 1209.1 865.3 1209.1 866.3 C 1209.1 867.3 1209.9 868.1 1210.9 868.1 C 1211.9 868.1 1212.7 867.3 1212.7 866.3 " fill="#776E90"></path><path d="M 1224.4 866.3 C 1224.4 865.3 1223.6 864.5 1222.6 864.5 C 1221.6 864.5 1220.8 865.3 1220.8 866.3 C 1220.8 867.3 1221.6 868.1 1222.6 868.1 C 1223.6 868.1 1224.4 867.3 1224.4 866.3 " fill="#776E90"></path><path d="M 1236.1 866.3 C 1236.1 865.3 1235.3 864.5 1234.3 864.5 C 1233.3 864.5 1232.5 865.3 1232.5 866.3 C 1232.5 867.3 1233.3 868.1 1234.3 868.1 C 1235.3 868.1 1236.1 867.3 1236.1 866.3 " fill="#776E90"></path><path d="M 1247.8 866.3 C 1247.8 865.3 1247.0 864.5 1246.0 864.5 C 1245.1 864.5 1244.3 865.3 1244.3 866.3 C 1244.3 867.3 1245.1 868.1 1246.0 868.1 C 1247.0 868.1 1247.8 867.3 1247.8 866.3 " fill="#776E90"></path><path d="M 1165.9 855.3 C 1165.9 854.3 1165.1 853.5 1164.1 853.5 C 1163.1 853.5 1162.3 854.3 1162.3 855.3 C 1162.3 856.3 1163.1 857.1 1164.1 857.1 C 1165.1 857.1 1165.9 856.3 1165.9 855.3 " fill="#776E90"></path><path d="M 1177.6 855.3 C 1177.6 854.3 1176.8 853.5 1175.8 853.5 C 1174.8 853.5 1174.0 854.3 1174.0 855.3 C 1174.0 856.3 1174.8 857.1 1175.8 857.1 C 1176.8 857.1 1177.6 856.3 1177.6 855.3 " fill="#776E90"></path><path d="M 1189.3 855.3 C 1189.3 854.3 1188.5 853.5 1187.5 853.5 C 1186.5 853.5 1185.7 854.3 1185.7 855.3 C 1185.7 856.3 1186.5 857.1 1187.5 857.1 C 1188.5 857.1 1189.3 856.3 1189.3 855.3 " fill="#776E90"></path><path d="M 1201.0 855.3 C 1201.0 854.3 1200.2 853.5 1199.2 853.5 C 1198.2 853.5 1197.4 854.3 1197.4 855.3 C 1197.4 856.3 1198.2 857.1 1199.2 857.1 C 1200.2 857.1 1201.0 856.3 1201.0 855.3 " fill="#776E90"></path><path d="M 1212.7 855.3 C 1212.7 854.3 1211.9 853.5 1210.9 853.5 C 1209.9 853.5 1209.1 854.3 1209.1 855.3 C 1209.1 856.3 1209.9 857.1 1210.9 857.1 C 1211.9 857.1 1212.7 856.3 1212.7 855.3 " fill="#776E90"></path><path d="M 1224.4 855.3 C 1224.4 854.3 1223.6 853.5 1222.6 853.5 C 1221.6 853.5 1220.8 854.3 1220.8 855.3 C 1220.8 856.3 1221.6 857.1 1222.6 857.1 C 1223.6 857.1 1224.4 856.3 1224.4 855.3 " fill="#776E90"></path><path d="M 1236.1 855.3 C 1236.1 854.3 1235.3 853.5 1234.3 853.5 C 1233.3 853.5 1232.5 854.3 1232.5 855.3 C 1232.5 856.3 1233.3 857.1 1234.3 857.1 C 1235.3 857.1 1236.1 856.3 1236.1 855.3 " fill="#776E90"></path><path d="M 1247.8 855.3 C 1247.8 854.3 1247.0 853.5 1246.0 853.5 C 1245.1 853.5 1244.3 854.3 1244.3 855.3 C 1244.3 856.3 1245.1 857.1 1246.0 857.1 C 1247.0 857.1 1247.8 856.3 1247.8 855.3 " fill="#776E90"></path><path d="M 1159.9 838.9 C 1159.9 837.9 1159.1 837.1 1158.1 837.1 C 1157.1 837.1 1156.3 837.9 1156.3 838.9 C 1156.3 839.8 1157.1 840.7 1158.1 840.7 C 1159.1 840.7 1159.9 839.8 1159.9 838.9 " fill="#776E90"></path><path d="M 1171.6 838.9 C 1171.6 837.9 1170.8 837.1 1169.8 837.1 C 1168.8 837.1 1168.0 837.9 1168.0 838.9 C 1168.0 839.8 1168.8 840.7 1169.8 840.7 C 1170.8 840.7 1171.6 839.8 1171.6 838.9 " fill="#776E90"></path><path d="M 1183.3 838.9 C 1183.3 837.9 1182.5 837.1 1181.5 837.1 C 1180.5 837.1 1179.7 837.9 1179.7 838.9 C 1179.7 839.8 1180.5 840.7 1181.5 840.7 C 1182.5 840.7 1183.3 839.8 1183.3 838.9 " fill="#776E90"></path><path d="M 1195.0 838.9 C 1195.0 837.9 1194.2 837.1 1193.2 837.1 C 1192.2 837.1 1191.4 837.9 1191.4 838.9 C 1191.4 839.8 1192.2 840.7 1193.2 840.7 C 1194.2 840.7 1195.0 839.8 1195.0 838.9 " fill="#776E90"></path><path d="M 1206.7 838.9 C 1206.7 837.9 1205.9 837.1 1204.9 837.1 C 1203.9 837.1 1203.1 837.9 1203.1 838.9 C 1203.1 839.8 1203.9 840.7 1204.9 840.7 C 1205.9 840.7 1206.7 839.8 1206.7 838.9 " fill="#776E90"></path><path d="M 1218.4 838.9 C 1218.4 837.9 1217.6 837.1 1216.6 837.1 C 1215.6 837.1 1214.8 837.9 1214.8 838.9 C 1214.8 839.8 1215.6 840.7 1216.6 840.7 C 1217.6 840.7 1218.4 839.8 1218.4 838.9 " fill="#776E90"></path><path d="M 1230.1 838.9 C 1230.1 837.9 1229.3 837.1 1228.3 837.1 C 1227.4 837.1 1226.6 837.9 1226.6 838.9 C 1226.6 839.8 1227.4 840.7 1228.3 840.7 C 1229.3 840.7 1230.1 839.8 1230.1 838.9 " fill="#776E90"></path><path d="M 1241.9 838.9 C 1241.9 837.9 1241.0 837.1 1240.1 837.1 C 1239.1 837.1 1238.3 837.9 1238.3 838.9 C 1238.3 839.8 1239.1 840.7 1240.1 840.7 C 1241.0 840.7 1241.9 839.8 1241.9 838.9 " fill="#776E90"></path><path d="M 1253.6 838.9 C 1253.6 837.9 1252.8 837.1 1251.8 837.1 C 1250.8 837.1 1250.0 837.9 1250.0 838.9 C 1250.0 839.8 1250.8 840.7 1251.8 840.7 C 1252.8 840.7 1253.6 839.8 1253.6 838.9 " fill="#776E90"></path><path d="M 1165.9 844.3 C 1165.9 843.4 1165.1 842.6 1164.1 842.6 C 1163.1 842.6 1162.3 843.4 1162.3 844.3 C 1162.3 845.3 1163.1 846.1 1164.1 846.1 C 1165.1 846.1 1165.9 845.3 1165.9 844.3 " fill="#776E90"></path><path d="M 1177.6 844.3 C 1177.6 843.4 1176.8 842.6 1175.8 842.6 C 1174.8 842.6 1174.0 843.4 1174.0 844.3 C 1174.0 845.3 1174.8 846.1 1175.8 846.1 C 1176.8 846.1 1177.6 845.3 1177.6 844.3 " fill="#776E90"></path><path d="M 1189.3 844.3 C 1189.3 843.4 1188.5 842.6 1187.5 842.6 C 1186.5 842.6 1185.7 843.4 1185.7 844.3 C 1185.7 845.3 1186.5 846.1 1187.5 846.1 C 1188.5 846.1 1189.3 845.3 1189.3 844.3 " fill="#776E90"></path><path d="M 1201.0 844.3 C 1201.0 843.4 1200.2 842.6 1199.2 842.6 C 1198.2 842.6 1197.4 843.4 1197.4 844.3 C 1197.4 845.3 1198.2 846.1 1199.2 846.1 C 1200.2 846.1 1201.0 845.3 1201.0 844.3 " fill="#776E90"></path><path d="M 1212.7 844.3 C 1212.7 843.4 1211.9 842.6 1210.9 842.6 C 1209.9 842.6 1209.1 843.4 1209.1 844.3 C 1209.1 845.3 1209.9 846.1 1210.9 846.1 C 1211.9 846.1 1212.7 845.3 1212.7 844.3 " fill="#776E90"></path><path d="M 1224.4 844.3 C 1224.4 843.4 1223.6 842.6 1222.6 842.6 C 1221.6 842.6 1220.8 843.4 1220.8 844.3 C 1220.8 845.3 1221.6 846.1 1222.6 846.1 C 1223.6 846.1 1224.4 845.3 1224.4 844.3 " fill="#776E90"></path><path d="M 1236.1 844.3 C 1236.1 843.4 1235.3 842.6 1234.3 842.6 C 1233.3 842.6 1232.5 843.4 1232.5 844.3 C 1232.5 845.3 1233.3 846.1 1234.3 846.1 C 1235.3 846.1 1236.1 845.3 1236.1 844.3 " fill="#776E90"></path><path d="M 1247.8 844.3 C 1247.8 843.4 1247.0 842.6 1246.0 842.6 C 1245.1 842.6 1244.3 843.4 1244.3 844.3 C 1244.3 845.3 1245.1 846.1 1246.0 846.1 C 1247.0 846.1 1247.8 845.3 1247.8 844.3 " fill="#776E90"></path><path d="M 1159.9 580.9 C 1159.9 579.9 1159.1 579.1 1158.1 579.1 C 1157.1 579.1 1156.3 579.9 1156.3 580.9 C 1156.3 581.9 1157.1 582.7 1158.1 582.7 C 1159.1 582.7 1159.9 581.9 1159.9 580.9 " fill="#776E90"></path><path d="M 1171.6 580.9 C 1171.6 579.9 1170.8 579.1 1169.8 579.1 C 1168.8 579.1 1168.0 579.9 1168.0 580.9 C 1168.0 581.9 1168.8 582.7 1169.8 582.7 C 1170.8 582.7 1171.6 581.9 1171.6 580.9 " fill="#776E90"></path><path d="M 1183.3 580.9 C 1183.3 579.9 1182.5 579.1 1181.5 579.1 C 1180.5 579.1 1179.7 579.9 1179.7 580.9 C 1179.7 581.9 1180.5 582.7 1181.5 582.7 C 1182.5 582.7 1183.3 581.9 1183.3 580.9 " fill="#776E90"></path><path d="M 1195.0 580.9 C 1195.0 579.9 1194.2 579.1 1193.2 579.1 C 1192.2 579.1 1191.4 579.9 1191.4 580.9 C 1191.4 581.9 1192.2 582.7 1193.2 582.7 C 1194.2 582.7 1195.0 581.9 1195.0 580.9 " fill="#776E90"></path><path d="M 1206.7 580.9 C 1206.7 579.9 1205.9 579.1 1204.9 579.1 C 1203.9 579.1 1203.1 579.9 1203.1 580.9 C 1203.1 581.9 1203.9 582.7 1204.9 582.7 C 1205.9 582.7 1206.7 581.9 1206.7 580.9 " fill="#776E90"></path><path d="M 1218.4 580.9 C 1218.4 579.9 1217.6 579.1 1216.6 579.1 C 1215.6 579.1 1214.8 579.9 1214.8 580.9 C 1214.8 581.9 1215.6 582.7 1216.6 582.7 C 1217.6 582.7 1218.4 581.9 1218.4 580.9 " fill="#776E90"></path><path d="M 1230.1 580.9 C 1230.1 579.9 1229.3 579.1 1228.3 579.1 C 1227.4 579.1 1226.6 579.9 1226.6 580.9 C 1226.6 581.9 1227.4 582.7 1228.3 582.7 C 1229.3 582.7 1230.1 581.9 1230.1 580.9 " fill="#776E90"></path><path d="M 1241.9 580.9 C 1241.9 579.9 1241.0 579.1 1240.1 579.1 C 1239.1 579.1 1238.3 579.9 1238.3 580.9 C 1238.3 581.9 1239.1 582.7 1240.1 582.7 C 1241.0 582.7 1241.9 581.9 1241.9 580.9 " fill="#776E90"></path><path d="M 1253.6 580.9 C 1253.6 579.9 1252.8 579.1 1251.8 579.1 C 1250.8 579.1 1250.0 579.9 1250.0 580.9 C 1250.0 581.9 1250.8 582.7 1251.8 582.7 C 1252.8 582.7 1253.6 581.9 1253.6 580.9 " fill="#776E90"></path><path d="M 1159.9 569.9 C 1159.9 568.9 1159.1 568.1 1158.1 568.1 C 1157.1 568.1 1156.3 568.9 1156.3 569.9 C 1156.3 570.9 1157.1 571.7 1158.1 571.7 C 1159.1 571.7 1159.9 570.9 1159.9 569.9 " fill="#776E90"></path><path d="M 1171.6 569.9 C 1171.6 568.9 1170.8 568.1 1169.8 568.1 C 1168.8 568.1 1168.0 568.9 1168.0 569.9 C 1168.0 570.9 1168.8 571.7 1169.8 571.7 C 1170.8 571.7 1171.6 570.9 1171.6 569.9 " fill="#776E90"></path><path d="M 1183.3 569.9 C 1183.3 568.9 1182.5 568.1 1181.5 568.1 C 1180.5 568.1 1179.7 568.9 1179.7 569.9 C 1179.7 570.9 1180.5 571.7 1181.5 571.7 C 1182.5 571.7 1183.3 570.9 1183.3 569.9 " fill="#776E90"></path><path d="M 1195.0 569.9 C 1195.0 568.9 1194.2 568.1 1193.2 568.1 C 1192.2 568.1 1191.4 568.9 1191.4 569.9 C 1191.4 570.9 1192.2 571.7 1193.2 571.7 C 1194.2 571.7 1195.0 570.9 1195.0 569.9 " fill="#776E90"></path><path d="M 1206.7 569.9 C 1206.7 568.9 1205.9 568.1 1204.9 568.1 C 1203.9 568.1 1203.1 568.9 1203.1 569.9 C 1203.1 570.9 1203.9 571.7 1204.9 571.7 C 1205.9 571.7 1206.7 570.9 1206.7 569.9 " fill="#776E90"></path><path d="M 1218.4 569.9 C 1218.4 568.9 1217.6 568.1 1216.6 568.1 C 1215.6 568.1 1214.8 568.9 1214.8 569.9 C 1214.8 570.9 1215.6 571.7 1216.6 571.7 C 1217.6 571.7 1218.4 570.9 1218.4 569.9 " fill="#776E90"></path><path d="M 1230.1 569.9 C 1230.1 568.9 1229.3 568.1 1228.3 568.1 C 1227.4 568.1 1226.6 568.9 1226.6 569.9 C 1226.6 570.9 1227.4 571.7 1228.3 571.7 C 1229.3 571.7 1230.1 570.9 1230.1 569.9 " fill="#776E90"></path><path d="M 1241.9 569.9 C 1241.9 568.9 1241.0 568.1 1240.1 568.1 C 1239.1 568.1 1238.3 568.9 1238.3 569.9 C 1238.3 570.9 1239.1 571.7 1240.1 571.7 C 1241.0 571.7 1241.9 570.9 1241.9 569.9 " fill="#776E90"></path><path d="M 1253.6 569.9 C 1253.6 568.9 1252.8 568.1 1251.8 568.1 C 1250.8 568.1 1250.0 568.9 1250.0 569.9 C 1250.0 570.9 1250.8 571.7 1251.8 571.7 C 1252.8 571.7 1253.6 570.9 1253.6 569.9 " fill="#776E90"></path><path d="M 1159.9 558.9 C 1159.9 557.9 1159.1 557.1 1158.1 557.1 C 1157.1 557.1 1156.3 557.9 1156.3 558.9 C 1156.3 559.9 1157.1 560.7 1158.1 560.7 C 1159.1 560.7 1159.9 559.9 1159.9 558.9 " fill="#776E90"></path><path d="M 1171.6 558.9 C 1171.6 557.9 1170.8 557.1 1169.8 557.1 C 1168.8 557.1 1168.0 557.9 1168.0 558.9 C 1168.0 559.9 1168.8 560.7 1169.8 560.7 C 1170.8 560.7 1171.6 559.9 1171.6 558.9 " fill="#776E90"></path><path d="M 1183.3 558.9 C 1183.3 557.9 1182.5 557.1 1181.5 557.1 C 1180.5 557.1 1179.7 557.9 1179.7 558.9 C 1179.7 559.9 1180.5 560.7 1181.5 560.7 C 1182.5 560.7 1183.3 559.9 1183.3 558.9 " fill="#776E90"></path><path d="M 1195.0 558.9 C 1195.0 557.9 1194.2 557.1 1193.2 557.1 C 1192.2 557.1 1191.4 557.9 1191.4 558.9 C 1191.4 559.9 1192.2 560.7 1193.2 560.7 C 1194.2 560.7 1195.0 559.9 1195.0 558.9 " fill="#776E90"></path><path d="M 1206.7 558.9 C 1206.7 557.9 1205.9 557.1 1204.9 557.1 C 1203.9 557.1 1203.1 557.9 1203.1 558.9 C 1203.1 559.9 1203.9 560.7 1204.9 560.7 C 1205.9 560.7 1206.7 559.9 1206.7 558.9 " fill="#776E90"></path><path d="M 1218.4 558.9 C 1218.4 557.9 1217.6 557.1 1216.6 557.1 C 1215.6 557.1 1214.8 557.9 1214.8 558.9 C 1214.8 559.9 1215.6 560.7 1216.6 560.7 C 1217.6 560.7 1218.4 559.9 1218.4 558.9 " fill="#776E90"></path><path d="M 1230.1 558.9 C 1230.1 557.9 1229.3 557.1 1228.3 557.1 C 1227.4 557.1 1226.6 557.9 1226.6 558.9 C 1226.6 559.9 1227.4 560.7 1228.3 560.7 C 1229.3 560.7 1230.1 559.9 1230.1 558.9 " fill="#776E90"></path><path d="M 1241.9 558.9 C 1241.9 557.9 1241.0 557.1 1240.1 557.1 C 1239.1 557.1 1238.3 557.9 1238.3 558.9 C 1238.3 559.9 1239.1 560.7 1240.1 560.7 C 1241.0 560.7 1241.9 559.9 1241.9 558.9 " fill="#776E90"></path><path d="M 1253.6 558.9 C 1253.6 557.9 1252.8 557.1 1251.8 557.1 C 1250.8 557.1 1250.0 557.9 1250.0 558.9 C 1250.0 559.9 1250.8 560.7 1251.8 560.7 C 1252.8 560.7 1253.6 559.9 1253.6 558.9 " fill="#776E90"></path><path d="M 1165.9 575.4 C 1165.9 574.4 1165.1 573.6 1164.1 573.6 C 1163.1 573.6 1162.3 574.4 1162.3 575.4 C 1162.3 576.4 1163.1 577.2 1164.1 577.2 C 1165.1 577.2 1165.9 576.4 1165.9 575.4 " fill="#776E90"></path><path d="M 1177.6 575.4 C 1177.6 574.4 1176.8 573.6 1175.8 573.6 C 1174.8 573.6 1174.0 574.4 1174.0 575.4 C 1174.0 576.4 1174.8 577.2 1175.8 577.2 C 1176.8 577.2 1177.6 576.4 1177.6 575.4 " fill="#776E90"></path><path d="M 1189.3 575.4 C 1189.3 574.4 1188.5 573.6 1187.5 573.6 C 1186.5 573.6 1185.7 574.4 1185.7 575.4 C 1185.7 576.4 1186.5 577.2 1187.5 577.2 C 1188.5 577.2 1189.3 576.4 1189.3 575.4 " fill="#776E90"></path><path d="M 1201.0 575.4 C 1201.0 574.4 1200.2 573.6 1199.2 573.6 C 1198.2 573.6 1197.4 574.4 1197.4 575.4 C 1197.4 576.4 1198.2 577.2 1199.2 577.2 C 1200.2 577.2 1201.0 576.4 1201.0 575.4 " fill="#776E90"></path><path d="M 1212.7 575.4 C 1212.7 574.4 1211.9 573.6 1210.9 573.6 C 1209.9 573.6 1209.1 574.4 1209.1 575.4 C 1209.1 576.4 1209.9 577.2 1210.9 577.2 C 1211.9 577.2 1212.7 576.4 1212.7 575.4 " fill="#776E90"></path><path d="M 1224.4 575.4 C 1224.4 574.4 1223.6 573.6 1222.6 573.6 C 1221.6 573.6 1220.8 574.4 1220.8 575.4 C 1220.8 576.4 1221.6 577.2 1222.6 577.2 C 1223.6 577.2 1224.4 576.4 1224.4 575.4 " fill="#776E90"></path><path d="M 1236.1 575.4 C 1236.1 574.4 1235.3 573.6 1234.3 573.6 C 1233.3 573.6 1232.5 574.4 1232.5 575.4 C 1232.5 576.4 1233.3 577.2 1234.3 577.2 C 1235.3 577.2 1236.1 576.4 1236.1 575.4 " fill="#776E90"></path><path d="M 1247.8 575.4 C 1247.8 574.4 1247.0 573.6 1246.0 573.6 C 1245.1 573.6 1244.3 574.4 1244.3 575.4 C 1244.3 576.4 1245.1 577.2 1246.0 577.2 C 1247.0 577.2 1247.8 576.4 1247.8 575.4 " fill="#776E90"></path><path d="M 1165.9 564.4 C 1165.9 563.4 1165.1 562.6 1164.1 562.6 C 1163.1 562.6 1162.3 563.4 1162.3 564.4 C 1162.3 565.4 1163.1 566.2 1164.1 566.2 C 1165.1 566.2 1165.9 565.4 1165.9 564.4 " fill="#776E90"></path><path d="M 1177.6 564.4 C 1177.6 563.4 1176.8 562.6 1175.8 562.6 C 1174.8 562.6 1174.0 563.4 1174.0 564.4 C 1174.0 565.4 1174.8 566.2 1175.8 566.2 C 1176.8 566.2 1177.6 565.4 1177.6 564.4 " fill="#776E90"></path><path d="M 1189.3 564.4 C 1189.3 563.4 1188.5 562.6 1187.5 562.6 C 1186.5 562.6 1185.7 563.4 1185.7 564.4 C 1185.7 565.4 1186.5 566.2 1187.5 566.2 C 1188.5 566.2 1189.3 565.4 1189.3 564.4 " fill="#776E90"></path><path d="M 1201.0 564.4 C 1201.0 563.4 1200.2 562.6 1199.2 562.6 C 1198.2 562.6 1197.4 563.4 1197.4 564.4 C 1197.4 565.4 1198.2 566.2 1199.2 566.2 C 1200.2 566.2 1201.0 565.4 1201.0 564.4 " fill="#776E90"></path><path d="M 1212.7 564.4 C 1212.7 563.4 1211.9 562.6 1210.9 562.6 C 1209.9 562.6 1209.1 563.4 1209.1 564.4 C 1209.1 565.4 1209.9 566.2 1210.9 566.2 C 1211.9 566.2 1212.7 565.4 1212.7 564.4 " fill="#776E90"></path><path d="M 1224.4 564.4 C 1224.4 563.4 1223.6 562.6 1222.6 562.6 C 1221.6 562.6 1220.8 563.4 1220.8 564.4 C 1220.8 565.4 1221.6 566.2 1222.6 566.2 C 1223.6 566.2 1224.4 565.4 1224.4 564.4 " fill="#776E90"></path><path d="M 1236.1 564.4 C 1236.1 563.4 1235.3 562.6 1234.3 562.6 C 1233.3 562.6 1232.5 563.4 1232.5 564.4 C 1232.5 565.4 1233.3 566.2 1234.3 566.2 C 1235.3 566.2 1236.1 565.4 1236.1 564.4 " fill="#776E90"></path><path d="M 1247.8 564.4 C 1247.8 563.4 1247.0 562.6 1246.0 562.6 C 1245.1 562.6 1244.3 563.4 1244.3 564.4 C 1244.3 565.4 1245.1 566.2 1246.0 566.2 C 1247.0 566.2 1247.8 565.4 1247.8 564.4 " fill="#776E90"></path><path d="M 1159.9 548.0 C 1159.9 547.0 1159.1 546.2 1158.1 546.2 C 1157.1 546.2 1156.3 547.0 1156.3 548.0 C 1156.3 548.9 1157.1 549.8 1158.1 549.8 C 1159.1 549.8 1159.9 548.9 1159.9 548.0 " fill="#776E90"></path><path d="M 1171.6 548.0 C 1171.6 547.0 1170.8 546.2 1169.8 546.2 C 1168.8 546.2 1168.0 547.0 1168.0 548.0 C 1168.0 548.9 1168.8 549.8 1169.8 549.8 C 1170.8 549.8 1171.6 548.9 1171.6 548.0 " fill="#776E90"></path><path d="M 1183.3 548.0 C 1183.3 547.0 1182.5 546.2 1181.5 546.2 C 1180.5 546.2 1179.7 547.0 1179.7 548.0 C 1179.7 548.9 1180.5 549.8 1181.5 549.8 C 1182.5 549.8 1183.3 548.9 1183.3 548.0 " fill="#776E90"></path><path d="M 1195.0 548.0 C 1195.0 547.0 1194.2 546.2 1193.2 546.2 C 1192.2 546.2 1191.4 547.0 1191.4 548.0 C 1191.4 548.9 1192.2 549.8 1193.2 549.8 C 1194.2 549.8 1195.0 548.9 1195.0 548.0 " fill="#776E90"></path><path d="M 1206.7 548.0 C 1206.7 547.0 1205.9 546.2 1204.9 546.2 C 1203.9 546.2 1203.1 547.0 1203.1 548.0 C 1203.1 548.9 1203.9 549.8 1204.9 549.8 C 1205.9 549.8 1206.7 548.9 1206.7 548.0 " fill="#776E90"></path><path d="M 1218.4 548.0 C 1218.4 547.0 1217.6 546.2 1216.6 546.2 C 1215.6 546.2 1214.8 547.0 1214.8 548.0 C 1214.8 548.9 1215.6 549.8 1216.6 549.8 C 1217.6 549.8 1218.4 548.9 1218.4 548.0 " fill="#776E90"></path><path d="M 1230.1 548.0 C 1230.1 547.0 1229.3 546.2 1228.3 546.2 C 1227.4 546.2 1226.6 547.0 1226.6 548.0 C 1226.6 548.9 1227.4 549.8 1228.3 549.8 C 1229.3 549.8 1230.1 548.9 1230.1 548.0 " fill="#776E90"></path><path d="M 1241.9 548.0 C 1241.9 547.0 1241.0 546.2 1240.1 546.2 C 1239.1 546.2 1238.3 547.0 1238.3 548.0 C 1238.3 548.9 1239.1 549.8 1240.1 549.8 C 1241.0 549.8 1241.9 548.9 1241.9 548.0 " fill="#776E90"></path><path d="M 1253.6 548.0 C 1253.6 547.0 1252.8 546.2 1251.8 546.2 C 1250.8 546.2 1250.0 547.0 1250.0 548.0 C 1250.0 548.9 1250.8 549.8 1251.8 549.8 C 1252.8 549.8 1253.6 548.9 1253.6 548.0 " fill="#776E90"></path><path d="M 1165.9 553.4 C 1165.9 552.5 1165.1 551.6 1164.1 551.6 C 1163.1 551.6 1162.3 552.5 1162.3 553.4 C 1162.3 554.4 1163.1 555.2 1164.1 555.2 C 1165.1 555.2 1165.9 554.4 1165.9 553.4 " fill="#776E90"></path><path d="M 1177.6 553.4 C 1177.6 552.5 1176.8 551.6 1175.8 551.6 C 1174.8 551.6 1174.0 552.5 1174.0 553.4 C 1174.0 554.4 1174.8 555.2 1175.8 555.2 C 1176.8 555.2 1177.6 554.4 1177.6 553.4 " fill="#776E90"></path><path d="M 1189.3 553.4 C 1189.3 552.5 1188.5 551.6 1187.5 551.6 C 1186.5 551.6 1185.7 552.5 1185.7 553.4 C 1185.7 554.4 1186.5 555.2 1187.5 555.2 C 1188.5 555.2 1189.3 554.4 1189.3 553.4 " fill="#776E90"></path><path d="M 1201.0 553.4 C 1201.0 552.5 1200.2 551.6 1199.2 551.6 C 1198.2 551.6 1197.4 552.5 1197.4 553.4 C 1197.4 554.4 1198.2 555.2 1199.2 555.2 C 1200.2 555.2 1201.0 554.4 1201.0 553.4 " fill="#776E90"></path><path d="M 1212.7 553.4 C 1212.7 552.5 1211.9 551.6 1210.9 551.6 C 1209.9 551.6 1209.1 552.5 1209.1 553.4 C 1209.1 554.4 1209.9 555.2 1210.9 555.2 C 1211.9 555.2 1212.7 554.4 1212.7 553.4 " fill="#776E90"></path><path d="M 1224.4 553.4 C 1224.4 552.5 1223.6 551.6 1222.6 551.6 C 1221.6 551.6 1220.8 552.5 1220.8 553.4 C 1220.8 554.4 1221.6 555.2 1222.6 555.2 C 1223.6 555.2 1224.4 554.4 1224.4 553.4 " fill="#776E90"></path><path d="M 1236.1 553.4 C 1236.1 552.5 1235.3 551.6 1234.3 551.6 C 1233.3 551.6 1232.5 552.5 1232.5 553.4 C 1232.5 554.4 1233.3 555.2 1234.3 555.2 C 1235.3 555.2 1236.1 554.4 1236.1 553.4 " fill="#776E90"></path><path d="M 1247.8 553.4 C 1247.8 552.5 1247.0 551.6 1246.0 551.6 C 1245.1 551.6 1244.3 552.5 1244.3 553.4 C 1244.3 554.4 1245.1 555.2 1246.0 555.2 C 1247.0 555.2 1247.8 554.4 1247.8 553.4 " fill="#776E90"></path><path d="M 1159.9 613.8 C 1159.9 612.8 1159.1 612.0 1158.1 612.0 C 1157.1 612.0 1156.3 612.8 1156.3 613.8 C 1156.3 614.8 1157.1 615.6 1158.1 615.6 C 1159.1 615.6 1159.9 614.8 1159.9 613.8 " fill="#776E90"></path><path d="M 1171.6 613.8 C 1171.6 612.8 1170.8 612.0 1169.8 612.0 C 1168.8 612.0 1168.0 612.8 1168.0 613.8 C 1168.0 614.8 1168.8 615.6 1169.8 615.6 C 1170.8 615.6 1171.6 614.8 1171.6 613.8 " fill="#776E90"></path><path d="M 1183.3 613.8 C 1183.3 612.8 1182.5 612.0 1181.5 612.0 C 1180.5 612.0 1179.7 612.8 1179.7 613.8 C 1179.7 614.8 1180.5 615.6 1181.5 615.6 C 1182.5 615.6 1183.3 614.8 1183.3 613.8 " fill="#776E90"></path><path d="M 1195.0 613.8 C 1195.0 612.8 1194.2 612.0 1193.2 612.0 C 1192.2 612.0 1191.4 612.8 1191.4 613.8 C 1191.4 614.8 1192.2 615.6 1193.2 615.6 C 1194.2 615.6 1195.0 614.8 1195.0 613.8 " fill="#776E90"></path><path d="M 1206.7 613.8 C 1206.7 612.8 1205.9 612.0 1204.9 612.0 C 1203.9 612.0 1203.1 612.8 1203.1 613.8 C 1203.1 614.8 1203.9 615.6 1204.9 615.6 C 1205.9 615.6 1206.7 614.8 1206.7 613.8 " fill="#776E90"></path><path d="M 1218.4 613.8 C 1218.4 612.8 1217.6 612.0 1216.6 612.0 C 1215.6 612.0 1214.8 612.8 1214.8 613.8 C 1214.8 614.8 1215.6 615.6 1216.6 615.6 C 1217.6 615.6 1218.4 614.8 1218.4 613.8 " fill="#776E90"></path><path d="M 1230.1 613.8 C 1230.1 612.8 1229.3 612.0 1228.3 612.0 C 1227.4 612.0 1226.6 612.8 1226.6 613.8 C 1226.6 614.8 1227.4 615.6 1228.3 615.6 C 1229.3 615.6 1230.1 614.8 1230.1 613.8 " fill="#776E90"></path><path d="M 1241.9 613.8 C 1241.9 612.8 1241.0 612.0 1240.1 612.0 C 1239.1 612.0 1238.3 612.8 1238.3 613.8 C 1238.3 614.8 1239.1 615.6 1240.1 615.6 C 1241.0 615.6 1241.9 614.8 1241.9 613.8 " fill="#776E90"></path><path d="M 1253.6 613.8 C 1253.6 612.8 1252.8 612.0 1251.8 612.0 C 1250.8 612.0 1250.0 612.8 1250.0 613.8 C 1250.0 614.8 1250.8 615.6 1251.8 615.6 C 1252.8 615.6 1253.6 614.8 1253.6 613.8 " fill="#776E90"></path><path d="M 1159.9 602.9 C 1159.9 601.9 1159.1 601.1 1158.1 601.1 C 1157.1 601.1 1156.3 601.9 1156.3 602.9 C 1156.3 603.8 1157.1 604.6 1158.1 604.6 C 1159.1 604.6 1159.9 603.8 1159.9 602.9 " fill="#776E90"></path><path d="M 1171.6 602.9 C 1171.6 601.9 1170.8 601.1 1169.8 601.1 C 1168.8 601.1 1168.0 601.9 1168.0 602.9 C 1168.0 603.8 1168.8 604.6 1169.8 604.6 C 1170.8 604.6 1171.6 603.8 1171.6 602.9 " fill="#776E90"></path><path d="M 1183.3 602.9 C 1183.3 601.9 1182.5 601.1 1181.5 601.1 C 1180.5 601.1 1179.7 601.9 1179.7 602.9 C 1179.7 603.8 1180.5 604.6 1181.5 604.6 C 1182.5 604.6 1183.3 603.8 1183.3 602.9 " fill="#776E90"></path><path d="M 1195.0 602.9 C 1195.0 601.9 1194.2 601.1 1193.2 601.1 C 1192.2 601.1 1191.4 601.9 1191.4 602.9 C 1191.4 603.8 1192.2 604.6 1193.2 604.6 C 1194.2 604.6 1195.0 603.8 1195.0 602.9 " fill="#776E90"></path><path d="M 1206.7 602.9 C 1206.7 601.9 1205.9 601.1 1204.9 601.1 C 1203.9 601.1 1203.1 601.9 1203.1 602.9 C 1203.1 603.8 1203.9 604.6 1204.9 604.6 C 1205.9 604.6 1206.7 603.8 1206.7 602.9 " fill="#776E90"></path><path d="M 1218.4 602.9 C 1218.4 601.9 1217.6 601.1 1216.6 601.1 C 1215.6 601.1 1214.8 601.9 1214.8 602.9 C 1214.8 603.8 1215.6 604.6 1216.6 604.6 C 1217.6 604.6 1218.4 603.8 1218.4 602.9 " fill="#776E90"></path><path d="M 1230.1 602.9 C 1230.1 601.9 1229.3 601.1 1228.3 601.1 C 1227.4 601.1 1226.6 601.9 1226.6 602.9 C 1226.6 603.8 1227.4 604.6 1228.3 604.6 C 1229.3 604.6 1230.1 603.8 1230.1 602.9 " fill="#776E90"></path><path d="M 1241.9 602.9 C 1241.9 601.9 1241.0 601.1 1240.1 601.1 C 1239.1 601.1 1238.3 601.9 1238.3 602.9 C 1238.3 603.8 1239.1 604.6 1240.1 604.6 C 1241.0 604.6 1241.9 603.8 1241.9 602.9 " fill="#776E90"></path><path d="M 1253.6 602.9 C 1253.6 601.9 1252.8 601.1 1251.8 601.1 C 1250.8 601.1 1250.0 601.9 1250.0 602.9 C 1250.0 603.8 1250.8 604.6 1251.8 604.6 C 1252.8 604.6 1253.6 603.8 1253.6 602.9 " fill="#776E90"></path><path d="M 1159.9 591.9 C 1159.9 590.9 1159.1 590.1 1158.1 590.1 C 1157.1 590.1 1156.3 590.9 1156.3 591.9 C 1156.3 592.9 1157.1 593.7 1158.1 593.7 C 1159.1 593.7 1159.9 592.9 1159.9 591.9 " fill="#776E90"></path><path d="M 1171.6 591.9 C 1171.6 590.9 1170.8 590.1 1169.8 590.1 C 1168.8 590.1 1168.0 590.9 1168.0 591.9 C 1168.0 592.9 1168.8 593.7 1169.8 593.7 C 1170.8 593.7 1171.6 592.9 1171.6 591.9 " fill="#776E90"></path><path d="M 1183.3 591.9 C 1183.3 590.9 1182.5 590.1 1181.5 590.1 C 1180.5 590.1 1179.7 590.9 1179.7 591.9 C 1179.7 592.9 1180.5 593.7 1181.5 593.7 C 1182.5 593.7 1183.3 592.9 1183.3 591.9 " fill="#776E90"></path><path d="M 1195.0 591.9 C 1195.0 590.9 1194.2 590.1 1193.2 590.1 C 1192.2 590.1 1191.4 590.9 1191.4 591.9 C 1191.4 592.9 1192.2 593.7 1193.2 593.7 C 1194.2 593.7 1195.0 592.9 1195.0 591.9 " fill="#776E90"></path><path d="M 1206.7 591.9 C 1206.7 590.9 1205.9 590.1 1204.9 590.1 C 1203.9 590.1 1203.1 590.9 1203.1 591.9 C 1203.1 592.9 1203.9 593.7 1204.9 593.7 C 1205.9 593.7 1206.7 592.9 1206.7 591.9 " fill="#776E90"></path><path d="M 1218.4 591.9 C 1218.4 590.9 1217.6 590.1 1216.6 590.1 C 1215.6 590.1 1214.8 590.9 1214.8 591.9 C 1214.8 592.9 1215.6 593.7 1216.6 593.7 C 1217.6 593.7 1218.4 592.9 1218.4 591.9 " fill="#776E90"></path><path d="M 1230.1 591.9 C 1230.1 590.9 1229.3 590.1 1228.3 590.1 C 1227.4 590.1 1226.6 590.9 1226.6 591.9 C 1226.6 592.9 1227.4 593.7 1228.3 593.7 C 1229.3 593.7 1230.1 592.9 1230.1 591.9 " fill="#776E90"></path><path d="M 1241.9 591.9 C 1241.9 590.9 1241.0 590.1 1240.1 590.1 C 1239.1 590.1 1238.3 590.9 1238.3 591.9 C 1238.3 592.9 1239.1 593.7 1240.1 593.7 C 1241.0 593.7 1241.9 592.9 1241.9 591.9 " fill="#776E90"></path><path d="M 1253.6 591.9 C 1253.6 590.9 1252.8 590.1 1251.8 590.1 C 1250.8 590.1 1250.0 590.9 1250.0 591.9 C 1250.0 592.9 1250.8 593.7 1251.8 593.7 C 1252.8 593.7 1253.6 592.9 1253.6 591.9 " fill="#776E90"></path><path d="M 1165.9 608.3 C 1165.9 607.4 1165.1 606.5 1164.1 606.5 C 1163.1 606.5 1162.3 607.4 1162.3 608.3 C 1162.3 609.3 1163.1 610.1 1164.1 610.1 C 1165.1 610.1 1165.9 609.3 1165.9 608.3 " fill="#776E90"></path><path d="M 1177.6 608.3 C 1177.6 607.4 1176.8 606.5 1175.8 606.5 C 1174.8 606.5 1174.0 607.4 1174.0 608.3 C 1174.0 609.3 1174.8 610.1 1175.8 610.1 C 1176.8 610.1 1177.6 609.3 1177.6 608.3 " fill="#776E90"></path><path d="M 1189.3 608.3 C 1189.3 607.4 1188.5 606.5 1187.5 606.5 C 1186.5 606.5 1185.7 607.4 1185.7 608.3 C 1185.7 609.3 1186.5 610.1 1187.5 610.1 C 1188.5 610.1 1189.3 609.3 1189.3 608.3 " fill="#776E90"></path><path d="M 1201.0 608.3 C 1201.0 607.4 1200.2 606.5 1199.2 606.5 C 1198.2 606.5 1197.4 607.4 1197.4 608.3 C 1197.4 609.3 1198.2 610.1 1199.2 610.1 C 1200.2 610.1 1201.0 609.3 1201.0 608.3 " fill="#776E90"></path><path d="M 1212.7 608.3 C 1212.7 607.4 1211.9 606.5 1210.9 606.5 C 1209.9 606.5 1209.1 607.4 1209.1 608.3 C 1209.1 609.3 1209.9 610.1 1210.9 610.1 C 1211.9 610.1 1212.7 609.3 1212.7 608.3 " fill="#776E90"></path><path d="M 1224.4 608.3 C 1224.4 607.4 1223.6 606.5 1222.6 606.5 C 1221.6 606.5 1220.8 607.4 1220.8 608.3 C 1220.8 609.3 1221.6 610.1 1222.6 610.1 C 1223.6 610.1 1224.4 609.3 1224.4 608.3 " fill="#776E90"></path><path d="M 1236.1 608.3 C 1236.1 607.4 1235.3 606.5 1234.3 606.5 C 1233.3 606.5 1232.5 607.4 1232.5 608.3 C 1232.5 609.3 1233.3 610.1 1234.3 610.1 C 1235.3 610.1 1236.1 609.3 1236.1 608.3 " fill="#776E90"></path><path d="M 1247.8 608.3 C 1247.8 607.4 1247.0 606.5 1246.0 606.5 C 1245.1 606.5 1244.3 607.4 1244.3 608.3 C 1244.3 609.3 1245.1 610.1 1246.0 610.1 C 1247.0 610.1 1247.8 609.3 1247.8 608.3 " fill="#776E90"></path><path d="M 1165.9 597.4 C 1165.9 596.4 1165.1 595.6 1164.1 595.6 C 1163.1 595.6 1162.3 596.4 1162.3 597.4 C 1162.3 598.4 1163.1 599.2 1164.1 599.2 C 1165.1 599.2 1165.9 598.4 1165.9 597.4 " fill="#776E90"></path><path d="M 1177.6 597.4 C 1177.6 596.4 1176.8 595.6 1175.8 595.6 C 1174.8 595.6 1174.0 596.4 1174.0 597.4 C 1174.0 598.4 1174.8 599.2 1175.8 599.2 C 1176.8 599.2 1177.6 598.4 1177.6 597.4 " fill="#776E90"></path><path d="M 1189.3 597.4 C 1189.3 596.4 1188.5 595.6 1187.5 595.6 C 1186.5 595.6 1185.7 596.4 1185.7 597.4 C 1185.7 598.4 1186.5 599.2 1187.5 599.2 C 1188.5 599.2 1189.3 598.4 1189.3 597.4 " fill="#776E90"></path><path d="M 1201.0 597.4 C 1201.0 596.4 1200.2 595.6 1199.2 595.6 C 1198.2 595.6 1197.4 596.4 1197.4 597.4 C 1197.4 598.4 1198.2 599.2 1199.2 599.2 C 1200.2 599.2 1201.0 598.4 1201.0 597.4 " fill="#776E90"></path><path d="M 1212.7 597.4 C 1212.7 596.4 1211.9 595.6 1210.9 595.6 C 1209.9 595.6 1209.1 596.4 1209.1 597.4 C 1209.1 598.4 1209.9 599.2 1210.9 599.2 C 1211.9 599.2 1212.7 598.4 1212.7 597.4 " fill="#776E90"></path><path d="M 1224.4 597.4 C 1224.4 596.4 1223.6 595.6 1222.6 595.6 C 1221.6 595.6 1220.8 596.4 1220.8 597.4 C 1220.8 598.4 1221.6 599.2 1222.6 599.2 C 1223.6 599.2 1224.4 598.4 1224.4 597.4 " fill="#776E90"></path><path d="M 1236.1 597.4 C 1236.1 596.4 1235.3 595.6 1234.3 595.6 C 1233.3 595.6 1232.5 596.4 1232.5 597.4 C 1232.5 598.4 1233.3 599.2 1234.3 599.2 C 1235.3 599.2 1236.1 598.4 1236.1 597.4 " fill="#776E90"></path><path d="M 1247.8 597.4 C 1247.8 596.4 1247.0 595.6 1246.0 595.6 C 1245.1 595.6 1244.3 596.4 1244.3 597.4 C 1244.3 598.4 1245.1 599.2 1246.0 599.2 C 1247.0 599.2 1247.8 598.4 1247.8 597.4 " fill="#776E90"></path><path d="M 1165.9 586.4 C 1165.9 585.4 1165.1 584.6 1164.1 584.6 C 1163.1 584.6 1162.3 585.4 1162.3 586.4 C 1162.3 587.4 1163.1 588.2 1164.1 588.2 C 1165.1 588.2 1165.9 587.4 1165.9 586.4 " fill="#776E90"></path><path d="M 1177.6 586.4 C 1177.6 585.4 1176.8 584.6 1175.8 584.6 C 1174.8 584.6 1174.0 585.4 1174.0 586.4 C 1174.0 587.4 1174.8 588.2 1175.8 588.2 C 1176.8 588.2 1177.6 587.4 1177.6 586.4 " fill="#776E90"></path><path d="M 1189.3 586.4 C 1189.3 585.4 1188.5 584.6 1187.5 584.6 C 1186.5 584.6 1185.7 585.4 1185.7 586.4 C 1185.7 587.4 1186.5 588.2 1187.5 588.2 C 1188.5 588.2 1189.3 587.4 1189.3 586.4 " fill="#776E90"></path><path d="M 1201.0 586.4 C 1201.0 585.4 1200.2 584.6 1199.2 584.6 C 1198.2 584.6 1197.4 585.4 1197.4 586.4 C 1197.4 587.4 1198.2 588.2 1199.2 588.2 C 1200.2 588.2 1201.0 587.4 1201.0 586.4 " fill="#776E90"></path><path d="M 1212.7 586.4 C 1212.7 585.4 1211.9 584.6 1210.9 584.6 C 1209.9 584.6 1209.1 585.4 1209.1 586.4 C 1209.1 587.4 1209.9 588.2 1210.9 588.2 C 1211.9 588.2 1212.7 587.4 1212.7 586.4 " fill="#776E90"></path><path d="M 1224.4 586.4 C 1224.4 585.4 1223.6 584.6 1222.6 584.6 C 1221.6 584.6 1220.8 585.4 1220.8 586.4 C 1220.8 587.4 1221.6 588.2 1222.6 588.2 C 1223.6 588.2 1224.4 587.4 1224.4 586.4 " fill="#776E90"></path><path d="M 1236.1 586.4 C 1236.1 585.4 1235.3 584.6 1234.3 584.6 C 1233.3 584.6 1232.5 585.4 1232.5 586.4 C 1232.5 587.4 1233.3 588.2 1234.3 588.2 C 1235.3 588.2 1236.1 587.4 1236.1 586.4 " fill="#776E90"></path><path d="M 1247.8 586.4 C 1247.8 585.4 1247.0 584.6 1246.0 584.6 C 1245.1 584.6 1244.3 585.4 1244.3 586.4 C 1244.3 587.4 1245.1 588.2 1246.0 588.2 C 1247.0 588.2 1247.8 587.4 1247.8 586.4 " fill="#776E90"></path><path d="M 1159.9 646.8 C 1159.9 645.8 1159.1 645.0 1158.1 645.0 C 1157.1 645.0 1156.3 645.8 1156.3 646.8 C 1156.3 647.8 1157.1 648.6 1158.1 648.6 C 1159.1 648.6 1159.9 647.8 1159.9 646.8 " fill="#776E90"></path><path d="M 1171.6 646.8 C 1171.6 645.8 1170.8 645.0 1169.8 645.0 C 1168.8 645.0 1168.0 645.8 1168.0 646.8 C 1168.0 647.8 1168.8 648.6 1169.8 648.6 C 1170.8 648.6 1171.6 647.8 1171.6 646.8 " fill="#776E90"></path><path d="M 1183.3 646.8 C 1183.3 645.8 1182.5 645.0 1181.5 645.0 C 1180.5 645.0 1179.7 645.8 1179.7 646.8 C 1179.7 647.8 1180.5 648.6 1181.5 648.6 C 1182.5 648.6 1183.3 647.8 1183.3 646.8 " fill="#776E90"></path><path d="M 1195.0 646.8 C 1195.0 645.8 1194.2 645.0 1193.2 645.0 C 1192.2 645.0 1191.4 645.8 1191.4 646.8 C 1191.4 647.8 1192.2 648.6 1193.2 648.6 C 1194.2 648.6 1195.0 647.8 1195.0 646.8 " fill="#776E90"></path><path d="M 1206.7 646.8 C 1206.7 645.8 1205.9 645.0 1204.9 645.0 C 1203.9 645.0 1203.1 645.8 1203.1 646.8 C 1203.1 647.8 1203.9 648.6 1204.9 648.6 C 1205.9 648.6 1206.7 647.8 1206.7 646.8 " fill="#776E90"></path><path d="M 1218.4 646.8 C 1218.4 645.8 1217.6 645.0 1216.6 645.0 C 1215.6 645.0 1214.8 645.8 1214.8 646.8 C 1214.8 647.8 1215.6 648.6 1216.6 648.6 C 1217.6 648.6 1218.4 647.8 1218.4 646.8 " fill="#776E90"></path><path d="M 1230.1 646.8 C 1230.1 645.8 1229.3 645.0 1228.3 645.0 C 1227.4 645.0 1226.6 645.8 1226.6 646.8 C 1226.6 647.8 1227.4 648.6 1228.3 648.6 C 1229.3 648.6 1230.1 647.8 1230.1 646.8 " fill="#776E90"></path><path d="M 1241.9 646.8 C 1241.9 645.8 1241.0 645.0 1240.1 645.0 C 1239.1 645.0 1238.3 645.8 1238.3 646.8 C 1238.3 647.8 1239.1 648.6 1240.1 648.6 C 1241.0 648.6 1241.9 647.8 1241.9 646.8 " fill="#776E90"></path><path d="M 1253.6 646.8 C 1253.6 645.8 1252.8 645.0 1251.8 645.0 C 1250.8 645.0 1250.0 645.8 1250.0 646.8 C 1250.0 647.8 1250.8 648.6 1251.8 648.6 C 1252.8 648.6 1253.6 647.8 1253.6 646.8 " fill="#776E90"></path><path d="M 1159.9 635.8 C 1159.9 634.8 1159.1 634.0 1158.1 634.0 C 1157.1 634.0 1156.3 634.8 1156.3 635.8 C 1156.3 636.8 1157.1 637.6 1158.1 637.6 C 1159.1 637.6 1159.9 636.8 1159.9 635.8 " fill="#776E90"></path><path d="M 1171.6 635.8 C 1171.6 634.8 1170.8 634.0 1169.8 634.0 C 1168.8 634.0 1168.0 634.8 1168.0 635.8 C 1168.0 636.8 1168.8 637.6 1169.8 637.6 C 1170.8 637.6 1171.6 636.8 1171.6 635.8 " fill="#776E90"></path><path d="M 1183.3 635.8 C 1183.3 634.8 1182.5 634.0 1181.5 634.0 C 1180.5 634.0 1179.7 634.8 1179.7 635.8 C 1179.7 636.8 1180.5 637.6 1181.5 637.6 C 1182.5 637.6 1183.3 636.8 1183.3 635.8 " fill="#776E90"></path><path d="M 1195.0 635.8 C 1195.0 634.8 1194.2 634.0 1193.2 634.0 C 1192.2 634.0 1191.4 634.8 1191.4 635.8 C 1191.4 636.8 1192.2 637.6 1193.2 637.6 C 1194.2 637.6 1195.0 636.8 1195.0 635.8 " fill="#776E90"></path><path d="M 1206.7 635.8 C 1206.7 634.8 1205.9 634.0 1204.9 634.0 C 1203.9 634.0 1203.1 634.8 1203.1 635.8 C 1203.1 636.8 1203.9 637.6 1204.9 637.6 C 1205.9 637.6 1206.7 636.8 1206.7 635.8 " fill="#776E90"></path><path d="M 1218.4 635.8 C 1218.4 634.8 1217.6 634.0 1216.6 634.0 C 1215.6 634.0 1214.8 634.8 1214.8 635.8 C 1214.8 636.8 1215.6 637.6 1216.6 637.6 C 1217.6 637.6 1218.4 636.8 1218.4 635.8 " fill="#776E90"></path><path d="M 1230.1 635.8 C 1230.1 634.8 1229.3 634.0 1228.3 634.0 C 1227.4 634.0 1226.6 634.8 1226.6 635.8 C 1226.6 636.8 1227.4 637.6 1228.3 637.6 C 1229.3 637.6 1230.1 636.8 1230.1 635.8 " fill="#776E90"></path><path d="M 1241.9 635.8 C 1241.9 634.8 1241.0 634.0 1240.1 634.0 C 1239.1 634.0 1238.3 634.8 1238.3 635.8 C 1238.3 636.8 1239.1 637.6 1240.1 637.6 C 1241.0 637.6 1241.9 636.8 1241.9 635.8 " fill="#776E90"></path><path d="M 1253.6 635.8 C 1253.6 634.8 1252.8 634.0 1251.8 634.0 C 1250.8 634.0 1250.0 634.8 1250.0 635.8 C 1250.0 636.8 1250.8 637.6 1251.8 637.6 C 1252.8 637.6 1253.6 636.8 1253.6 635.8 " fill="#776E90"></path><path d="M 1159.9 624.8 C 1159.9 623.8 1159.1 623.0 1158.1 623.0 C 1157.1 623.0 1156.3 623.8 1156.3 624.8 C 1156.3 625.8 1157.1 626.6 1158.1 626.6 C 1159.1 626.6 1159.9 625.8 1159.9 624.8 " fill="#776E90"></path><path d="M 1171.6 624.8 C 1171.6 623.8 1170.8 623.0 1169.8 623.0 C 1168.8 623.0 1168.0 623.8 1168.0 624.8 C 1168.0 625.8 1168.8 626.6 1169.8 626.6 C 1170.8 626.6 1171.6 625.8 1171.6 624.8 " fill="#776E90"></path><path d="M 1183.3 624.8 C 1183.3 623.8 1182.5 623.0 1181.5 623.0 C 1180.5 623.0 1179.7 623.8 1179.7 624.8 C 1179.7 625.8 1180.5 626.6 1181.5 626.6 C 1182.5 626.6 1183.3 625.8 1183.3 624.8 " fill="#776E90"></path><path d="M 1195.0 624.8 C 1195.0 623.8 1194.2 623.0 1193.2 623.0 C 1192.2 623.0 1191.4 623.8 1191.4 624.8 C 1191.4 625.8 1192.2 626.6 1193.2 626.6 C 1194.2 626.6 1195.0 625.8 1195.0 624.8 " fill="#776E90"></path><path d="M 1206.7 624.8 C 1206.7 623.8 1205.9 623.0 1204.9 623.0 C 1203.9 623.0 1203.1 623.8 1203.1 624.8 C 1203.1 625.8 1203.9 626.6 1204.9 626.6 C 1205.9 626.6 1206.7 625.8 1206.7 624.8 " fill="#776E90"></path><path d="M 1218.4 624.8 C 1218.4 623.8 1217.6 623.0 1216.6 623.0 C 1215.6 623.0 1214.8 623.8 1214.8 624.8 C 1214.8 625.8 1215.6 626.6 1216.6 626.6 C 1217.6 626.6 1218.4 625.8 1218.4 624.8 " fill="#776E90"></path><path d="M 1230.1 624.8 C 1230.1 623.8 1229.3 623.0 1228.3 623.0 C 1227.4 623.0 1226.6 623.8 1226.6 624.8 C 1226.6 625.8 1227.4 626.6 1228.3 626.6 C 1229.3 626.6 1230.1 625.8 1230.1 624.8 " fill="#776E90"></path><path d="M 1241.9 624.8 C 1241.9 623.8 1241.0 623.0 1240.1 623.0 C 1239.1 623.0 1238.3 623.8 1238.3 624.8 C 1238.3 625.8 1239.1 626.6 1240.1 626.6 C 1241.0 626.6 1241.9 625.8 1241.9 624.8 " fill="#776E90"></path><path d="M 1253.6 624.8 C 1253.6 623.8 1252.8 623.0 1251.8 623.0 C 1250.8 623.0 1250.0 623.8 1250.0 624.8 C 1250.0 625.8 1250.8 626.6 1251.8 626.6 C 1252.8 626.6 1253.6 625.8 1253.6 624.8 " fill="#776E90"></path><path d="M 1165.9 641.3 C 1165.9 640.3 1165.1 639.5 1164.1 639.5 C 1163.1 639.5 1162.3 640.3 1162.3 641.3 C 1162.3 642.3 1163.1 643.1 1164.1 643.1 C 1165.1 643.1 1165.9 642.3 1165.9 641.3 " fill="#776E90"></path><path d="M 1177.6 641.3 C 1177.6 640.3 1176.8 639.5 1175.8 639.5 C 1174.8 639.5 1174.0 640.3 1174.0 641.3 C 1174.0 642.3 1174.8 643.1 1175.8 643.1 C 1176.8 643.1 1177.6 642.3 1177.6 641.3 " fill="#776E90"></path><path d="M 1189.3 641.3 C 1189.3 640.3 1188.5 639.5 1187.5 639.5 C 1186.5 639.5 1185.7 640.3 1185.7 641.3 C 1185.7 642.3 1186.5 643.1 1187.5 643.1 C 1188.5 643.1 1189.3 642.3 1189.3 641.3 " fill="#776E90"></path><path d="M 1201.0 641.3 C 1201.0 640.3 1200.2 639.5 1199.2 639.5 C 1198.2 639.5 1197.4 640.3 1197.4 641.3 C 1197.4 642.3 1198.2 643.1 1199.2 643.1 C 1200.2 643.1 1201.0 642.3 1201.0 641.3 " fill="#776E90"></path><path d="M 1212.7 641.3 C 1212.7 640.3 1211.9 639.5 1210.9 639.5 C 1209.9 639.5 1209.1 640.3 1209.1 641.3 C 1209.1 642.3 1209.9 643.1 1210.9 643.1 C 1211.9 643.1 1212.7 642.3 1212.7 641.3 " fill="#776E90"></path><path d="M 1224.4 641.3 C 1224.4 640.3 1223.6 639.5 1222.6 639.5 C 1221.6 639.5 1220.8 640.3 1220.8 641.3 C 1220.8 642.3 1221.6 643.1 1222.6 643.1 C 1223.6 643.1 1224.4 642.3 1224.4 641.3 " fill="#776E90"></path><path d="M 1236.1 641.3 C 1236.1 640.3 1235.3 639.5 1234.3 639.5 C 1233.3 639.5 1232.5 640.3 1232.5 641.3 C 1232.5 642.3 1233.3 643.1 1234.3 643.1 C 1235.3 643.1 1236.1 642.3 1236.1 641.3 " fill="#776E90"></path><path d="M 1247.8 641.3 C 1247.8 640.3 1247.0 639.5 1246.0 639.5 C 1245.1 639.5 1244.3 640.3 1244.3 641.3 C 1244.3 642.3 1245.1 643.1 1246.0 643.1 C 1247.0 643.1 1247.8 642.3 1247.8 641.3 " fill="#776E90"></path><path d="M 1165.9 630.3 C 1165.9 629.3 1165.1 628.5 1164.1 628.5 C 1163.1 628.5 1162.3 629.3 1162.3 630.3 C 1162.3 631.3 1163.1 632.1 1164.1 632.1 C 1165.1 632.1 1165.9 631.3 1165.9 630.3 " fill="#776E90"></path><path d="M 1177.6 630.3 C 1177.6 629.3 1176.8 628.5 1175.8 628.5 C 1174.8 628.5 1174.0 629.3 1174.0 630.3 C 1174.0 631.3 1174.8 632.1 1175.8 632.1 C 1176.8 632.1 1177.6 631.3 1177.6 630.3 " fill="#776E90"></path><path d="M 1189.3 630.3 C 1189.3 629.3 1188.5 628.5 1187.5 628.5 C 1186.5 628.5 1185.7 629.3 1185.7 630.3 C 1185.7 631.3 1186.5 632.1 1187.5 632.1 C 1188.5 632.1 1189.3 631.3 1189.3 630.3 " fill="#776E90"></path><path d="M 1201.0 630.3 C 1201.0 629.3 1200.2 628.5 1199.2 628.5 C 1198.2 628.5 1197.4 629.3 1197.4 630.3 C 1197.4 631.3 1198.2 632.1 1199.2 632.1 C 1200.2 632.1 1201.0 631.3 1201.0 630.3 " fill="#776E90"></path><path d="M 1212.7 630.3 C 1212.7 629.3 1211.9 628.5 1210.9 628.5 C 1209.9 628.5 1209.1 629.3 1209.1 630.3 C 1209.1 631.3 1209.9 632.1 1210.9 632.1 C 1211.9 632.1 1212.7 631.3 1212.7 630.3 " fill="#776E90"></path><path d="M 1224.4 630.3 C 1224.4 629.3 1223.6 628.5 1222.6 628.5 C 1221.6 628.5 1220.8 629.3 1220.8 630.3 C 1220.8 631.3 1221.6 632.1 1222.6 632.1 C 1223.6 632.1 1224.4 631.3 1224.4 630.3 " fill="#776E90"></path><path d="M 1236.1 630.3 C 1236.1 629.3 1235.3 628.5 1234.3 628.5 C 1233.3 628.5 1232.5 629.3 1232.5 630.3 C 1232.5 631.3 1233.3 632.1 1234.3 632.1 C 1235.3 632.1 1236.1 631.3 1236.1 630.3 " fill="#776E90"></path><path d="M 1247.8 630.3 C 1247.8 629.3 1247.0 628.5 1246.0 628.5 C 1245.1 628.5 1244.3 629.3 1244.3 630.3 C 1244.3 631.3 1245.1 632.1 1246.0 632.1 C 1247.0 632.1 1247.8 631.3 1247.8 630.3 " fill="#776E90"></path><path d="M 1159.9 657.8 C 1159.9 656.8 1159.1 656.0 1158.1 656.0 C 1157.1 656.0 1156.3 656.8 1156.3 657.8 C 1156.3 658.7 1157.1 659.5 1158.1 659.5 C 1159.1 659.5 1159.9 658.7 1159.9 657.8 " fill="#776E90"></path><path d="M 1171.6 657.8 C 1171.6 656.8 1170.8 656.0 1169.8 656.0 C 1168.8 656.0 1168.0 656.8 1168.0 657.8 C 1168.0 658.7 1168.8 659.5 1169.8 659.5 C 1170.8 659.5 1171.6 658.7 1171.6 657.8 " fill="#776E90"></path><path d="M 1183.3 657.8 C 1183.3 656.8 1182.5 656.0 1181.5 656.0 C 1180.5 656.0 1179.7 656.8 1179.7 657.8 C 1179.7 658.7 1180.5 659.5 1181.5 659.5 C 1182.5 659.5 1183.3 658.7 1183.3 657.8 " fill="#776E90"></path><path d="M 1195.0 657.8 C 1195.0 656.8 1194.2 656.0 1193.2 656.0 C 1192.2 656.0 1191.4 656.8 1191.4 657.8 C 1191.4 658.7 1192.2 659.5 1193.2 659.5 C 1194.2 659.5 1195.0 658.7 1195.0 657.8 " fill="#776E90"></path><path d="M 1206.7 657.8 C 1206.7 656.8 1205.9 656.0 1204.9 656.0 C 1203.9 656.0 1203.1 656.8 1203.1 657.8 C 1203.1 658.7 1203.9 659.5 1204.9 659.5 C 1205.9 659.5 1206.7 658.7 1206.7 657.8 " fill="#776E90"></path><path d="M 1218.4 657.8 C 1218.4 656.8 1217.6 656.0 1216.6 656.0 C 1215.6 656.0 1214.8 656.8 1214.8 657.8 C 1214.8 658.7 1215.6 659.5 1216.6 659.5 C 1217.6 659.5 1218.4 658.7 1218.4 657.8 " fill="#776E90"></path><path d="M 1230.1 657.8 C 1230.1 656.8 1229.3 656.0 1228.3 656.0 C 1227.4 656.0 1226.6 656.8 1226.6 657.8 C 1226.6 658.7 1227.4 659.5 1228.3 659.5 C 1229.3 659.5 1230.1 658.7 1230.1 657.8 " fill="#776E90"></path><path d="M 1241.9 657.8 C 1241.9 656.8 1241.0 656.0 1240.1 656.0 C 1239.1 656.0 1238.3 656.8 1238.3 657.8 C 1238.3 658.7 1239.1 659.5 1240.1 659.5 C 1241.0 659.5 1241.9 658.7 1241.9 657.8 " fill="#776E90"></path><path d="M 1253.6 657.8 C 1253.6 656.8 1252.8 656.0 1251.8 656.0 C 1250.8 656.0 1250.0 656.8 1250.0 657.8 C 1250.0 658.7 1250.8 659.5 1251.8 659.5 C 1252.8 659.5 1253.6 658.7 1253.6 657.8 " fill="#776E90"></path><path d="M 1165.9 652.3 C 1165.9 651.3 1165.1 650.5 1164.1 650.5 C 1163.1 650.5 1162.3 651.3 1162.3 652.3 C 1162.3 653.3 1163.1 654.1 1164.1 654.1 C 1165.1 654.1 1165.9 653.3 1165.9 652.3 " fill="#776E90"></path><path d="M 1177.6 652.3 C 1177.6 651.3 1176.8 650.5 1175.8 650.5 C 1174.8 650.5 1174.0 651.3 1174.0 652.3 C 1174.0 653.3 1174.8 654.1 1175.8 654.1 C 1176.8 654.1 1177.6 653.3 1177.6 652.3 " fill="#776E90"></path><path d="M 1189.3 652.3 C 1189.3 651.3 1188.5 650.5 1187.5 650.5 C 1186.5 650.5 1185.7 651.3 1185.7 652.3 C 1185.7 653.3 1186.5 654.1 1187.5 654.1 C 1188.5 654.1 1189.3 653.3 1189.3 652.3 " fill="#776E90"></path><path d="M 1201.0 652.3 C 1201.0 651.3 1200.2 650.5 1199.2 650.5 C 1198.2 650.5 1197.4 651.3 1197.4 652.3 C 1197.4 653.3 1198.2 654.1 1199.2 654.1 C 1200.2 654.1 1201.0 653.3 1201.0 652.3 " fill="#776E90"></path><path d="M 1212.7 652.3 C 1212.7 651.3 1211.9 650.5 1210.9 650.5 C 1209.9 650.5 1209.1 651.3 1209.1 652.3 C 1209.1 653.3 1209.9 654.1 1210.9 654.1 C 1211.9 654.1 1212.7 653.3 1212.7 652.3 " fill="#776E90"></path><path d="M 1224.4 652.3 C 1224.4 651.3 1223.6 650.5 1222.6 650.5 C 1221.6 650.5 1220.8 651.3 1220.8 652.3 C 1220.8 653.3 1221.6 654.1 1222.6 654.1 C 1223.6 654.1 1224.4 653.3 1224.4 652.3 " fill="#776E90"></path><path d="M 1236.1 652.3 C 1236.1 651.3 1235.3 650.5 1234.3 650.5 C 1233.3 650.5 1232.5 651.3 1232.5 652.3 C 1232.5 653.3 1233.3 654.1 1234.3 654.1 C 1235.3 654.1 1236.1 653.3 1236.1 652.3 " fill="#776E90"></path><path d="M 1247.8 652.3 C 1247.8 651.3 1247.0 650.5 1246.0 650.5 C 1245.1 650.5 1244.3 651.3 1244.3 652.3 C 1244.3 653.3 1245.1 654.1 1246.0 654.1 C 1247.0 654.1 1247.8 653.3 1247.8 652.3 " fill="#776E90"></path><path d="M 1165.9 619.3 C 1165.9 618.3 1165.1 617.5 1164.1 617.5 C 1163.1 617.5 1162.3 618.3 1162.3 619.3 C 1162.3 620.3 1163.1 621.1 1164.1 621.1 C 1165.1 621.1 1165.9 620.3 1165.9 619.3 " fill="#776E90"></path><path d="M 1177.6 619.3 C 1177.6 618.3 1176.8 617.5 1175.8 617.5 C 1174.8 617.5 1174.0 618.3 1174.0 619.3 C 1174.0 620.3 1174.8 621.1 1175.8 621.1 C 1176.8 621.1 1177.6 620.3 1177.6 619.3 " fill="#776E90"></path><path d="M 1189.3 619.3 C 1189.3 618.3 1188.5 617.5 1187.5 617.5 C 1186.5 617.5 1185.7 618.3 1185.7 619.3 C 1185.7 620.3 1186.5 621.1 1187.5 621.1 C 1188.5 621.1 1189.3 620.3 1189.3 619.3 " fill="#776E90"></path><path d="M 1201.0 619.3 C 1201.0 618.3 1200.2 617.5 1199.2 617.5 C 1198.2 617.5 1197.4 618.3 1197.4 619.3 C 1197.4 620.3 1198.2 621.1 1199.2 621.1 C 1200.2 621.1 1201.0 620.3 1201.0 619.3 " fill="#776E90"></path><path d="M 1212.7 619.3 C 1212.7 618.3 1211.9 617.5 1210.9 617.5 C 1209.9 617.5 1209.1 618.3 1209.1 619.3 C 1209.1 620.3 1209.9 621.1 1210.9 621.1 C 1211.9 621.1 1212.7 620.3 1212.7 619.3 " fill="#776E90"></path><path d="M 1224.4 619.3 C 1224.4 618.3 1223.6 617.5 1222.6 617.5 C 1221.6 617.5 1220.8 618.3 1220.8 619.3 C 1220.8 620.3 1221.6 621.1 1222.6 621.1 C 1223.6 621.1 1224.4 620.3 1224.4 619.3 " fill="#776E90"></path><path d="M 1236.1 619.3 C 1236.1 618.3 1235.3 617.5 1234.3 617.5 C 1233.3 617.5 1232.5 618.3 1232.5 619.3 C 1232.5 620.3 1233.3 621.1 1234.3 621.1 C 1235.3 621.1 1236.1 620.3 1236.1 619.3 " fill="#776E90"></path><path d="M 1247.8 619.3 C 1247.8 618.3 1247.0 617.5 1246.0 617.5 C 1245.1 617.5 1244.3 618.3 1244.3 619.3 C 1244.3 620.3 1245.1 621.1 1246.0 621.1 C 1247.0 621.1 1247.8 620.3 1247.8 619.3 " fill="#776E90"></path><path d="M 0.0 0.0 L -20.7 -20.7 " fill="none" stroke="#EBEBEF" stroke-width="6.64" stroke-linecap="round" stroke-linejoin="round" transform="matrix(1.03, 0.00, 0.00, 1.03, 1199.1, 808.4)"></path><path d="M 0.0 0.0 L -8.8 -8.8 " fill="none" stroke="#EBEBEF" stroke-width="4.55" stroke-linecap="round" stroke-linejoin="round" transform="matrix(1.03, 0.00, 0.00, 1.03, 1241.3, 809.8)"></path><path d="M 0.0 0.0 L -8.8 8.8 " fill="none" stroke="#EBEBEF" stroke-width="4.55" stroke-linecap="round" stroke-linejoin="round" transform="matrix(1.03, 0.00, 0.00, 1.03, 1241.3, 745.2)"></path><path d="M 0.0 0.0 L -8.8 -8.8 " fill="none" stroke="#EBEBEF" stroke-width="4.55" stroke-linecap="round" stroke-linejoin="round" transform="matrix(1.03, 0.00, 0.00, 1.03, 1241.3, 698.8)"></path><path d="M 0.0 0.0 L -20.7 20.7 " fill="none" stroke="#EBEBEF" stroke-width="6.64" stroke-linecap="round" stroke-linejoin="round" transform="matrix(1.03, 0.00, 0.00, 1.03, 1199.1, 691.1)"></path></g></g></g></g></g></g><text xml:space="preserve" font-family="BentonSans-ExtraLight,BentonSans" font-size="96.0" fill="#F0EAF7" transform="matrix(1.00, 0.00, -0.00, -1.00, 694.4, 281.0)">S</text><text xml:space="preserve" font-family="BentonSans-ExtraLight,BentonSans" font-size="96.0" fill="#F0EAF7" transform="matrix(1.00, 0.00, -0.00, -1.00, 755.4, 281.0)">p</text><text xml:space="preserve" font-family="BentonSans-ExtraLight,BentonSans" font-size="96.0" fill="#F0EAF7" transform="matrix(1.00, 0.00, -0.00, -1.00, 811.3, 281.0)">u</text><text xml:space="preserve" font-family="BentonSans-ExtraLight,BentonSans" font-size="96.0" fill="#F0EAF7" transform="matrix(1.00, 0.00, -0.00, -1.00, 865.9, 281.0)">r</text><text xml:space="preserve" font-family="BentonSans-ExtraLight,BentonSans" font-size="96.0" fill="#F0EAF7" transform="matrix(1.00, 0.00, -0.00, -1.00, 903.2, 281.0)">n</text><text xml:space="preserve" font-family="BentonSans-ExtraLight,BentonSans" font-size="96.0" fill="#F0EAF7" transform="matrix(1.00, 0.00, -0.00, -1.00, 957.8, 281.0)">i</text><text xml:space="preserve" font-family="BentonSans-ExtraLight,BentonSans" font-size="96.0" fill="#F0EAF7" transform="matrix(1.00, 0.00, -0.00, -1.00, 978.6, 281.0)">n</text><text xml:space="preserve" font-family="BentonSans-ExtraLight,BentonSans" font-size="96.0" fill="#F0EAF7" transform="matrix(1.00, 0.00, -0.00, -1.00, 1033.2, 281.0)">g</text><text xml:space="preserve" font-family="BentonSans-ExtraLight,BentonSans" font-size="96.0" fill="#F0EAF7" transform="matrix(1.00, 0.00, -0.00, -1.00, 1086.7, 281.0)">a</text><text xml:space="preserve" font-family="BentonSans-ExtraLight,BentonSans" font-size="96.0" fill="#F0EAF7" transform="matrix(1.00, 0.00, -0.00, -1.00, 1138.1, 281.0)">r</text><text xml:space="preserve" font-family="BentonSans-ExtraLight,BentonSans" font-size="96.0" fill="#F0EAF7" transform="matrix(1.00, 0.00, -0.00, -1.00, 1175.3, 281.0)">?</text></g></svg>